<?xml version="1.0" encoding="UTF-8"?>
<svg version="1.1" xmlns="http://www.w3.org/2000/svg" width="2934" height="962">
<path d="M0 0 C968.22 0 1936.44 0 2934 0 C2934 317.46 2934 634.92 2934 962 C1965.78 962 997.56 962 0 962 C0 644.54 0 327.08 0 0 Z " fill="#FEFEFE" transform="translate(0,0)"/>
<path d="M0 0 C968.22 0 1936.44 0 2934 0 C2934 317.46 2934 634.92 2934 962 C1965.78 962 997.56 962 0 962 C0 644.54 0 327.08 0 0 Z M115 272 C115 286.19 115 300.38 115 315 C141.07 315 167.14 315 194 315 C194 316.32 194 317.64 194 319 C167.93 319 141.86 319 115 319 C115 410.08 115 501.16 115 595 C165.82 595 216.64 595 269 595 C269 585.76 269 576.52 269 567 C268.01 566.67 267.02 566.34 266 566 C268.54896069 560.24307904 273.20840904 556.5819882 278.9375 554.125 C279.948125 553.75375 280.95875 553.3825 282 553 C280.86695008 556.39914975 279.87481525 557.05254451 277 559 C277.69268982 559 278.38537964 559 279.09906006 559 C299.06604004 559 319.03302002 559 339 559 C339.26554688 559.57492187 339.53109375 560.14984375 339.8046875 560.7421875 C341.44697273 563.84428183 343.58971991 566.44629558 345.7578125 569.1953125 C347 571 347 571 347 573 C343.00146009 571.66715336 342.21502331 569.47020318 340 566 C339.67 566 339.34 566 339 566 C339 575.57 339 585.14 339 595 C342.63 595 346.26 595 350 595 C350.2745039 588.32040507 350.09485864 583.93181238 347 578 C348.32 578 349.64 578 351 578 C352.12849647 583.64248233 353.05401115 589.32406693 354 595 C496.89 595 639.78 595 787 595 C787 596.32 787 597.64 787 599 C638.83 599 490.66 599 338 599 C338 608.24 338 617.48 338 627 C339.65 626.67 341.3 626.34 343 626 C332.77105588 638.14502876 332.77105588 638.14502876 327 639 C327.9977758 636.00667261 328.7522025 635.05233685 331 633 C323.09798872 632.97466789 315.1959879 632.95714066 307.29394531 632.94506836 C304.60513148 632.94060054 301.91634118 632.93363881 299.22753906 632.92456055 C295.3652275 632.91244629 291.50295208 632.90676055 287.640625 632.90234375 C286.4363385 632.89718246 285.232052 632.89202118 283.99127197 632.88670349 C282.87041199 632.88662796 281.749552 632.88655243 280.59472656 632.88647461 C279.60877502 632.884254 278.62282349 632.88203339 277.60699463 632.87974548 C275.2458566 632.98865921 273.25666764 633.32600009 271 634 C269.70601853 632.56458334 268.41489889 631.12658648 267.125 629.6875 C266.40570313 628.88699219 265.68640625 628.08648438 264.9453125 627.26171875 C261 622.6746988 261 622.6746988 261 619 C264.99853991 620.33284664 265.78497669 622.52979682 268 626 C268.33 626 268.66 626 269 626 C269 617.09 269 608.18 269 599 C265.37 599 261.74 599 258 599 C257.6847405 604.98993047 258.31780178 608.63560356 261 614 C259.68 614 258.36 614 257 614 C256.01 608.72 255.02 603.44 254 598 C208.13 598 162.26 598 115 598 C115 691.06 115 784.12 115 880 C141.07 880 167.14 880 194 880 C194 881.32 194 882.64 194 884 C167.93 884 141.86 884 115 884 C115 896.21 115 908.42 115 921 C1036.36 921 1957.72 921 2907 921 C2907 908.79 2907 896.58 2907 884 C2880.93 884 2854.86 884 2828 884 C2828 882.68 2828 881.36 2828 880 C2854.07 880 2880.14 880 2907 880 C2907 787.93 2907 695.86 2907 601 C2856.18 601 2805.36 601 2753 601 C2753 609.91 2753 618.82 2753 628 C2753.99 628.66 2754.98 629.32 2756 630 C2751.54212574 635.73951312 2747.72228849 639.16956274 2741 642 C2741.99 640.02 2742.98 638.04 2744 636 C2743.27638779 636.01554428 2742.55277557 636.03108856 2741.80723572 636.04710388 C2734.96669374 636.18773211 2728.12636949 636.29412318 2721.28475094 636.3626852 C2717.76773541 636.39912149 2714.25192034 636.44848563 2710.7355957 636.52807617 C2706.68689894 636.61913655 2702.63945019 636.65273198 2698.58984375 636.68359375 C2697.33541977 636.71972275 2696.08099579 636.75585175 2694.78855896 636.79307556 C2685.02189883 636.79744908 2685.02189883 636.79744908 2680.77172852 632.63305664 C2675 625.64531794 2675 625.64531794 2675 622 C2675.99 621.67 2676.98 621.34 2678 621 C2678.37125 622.11375 2678.37125 622.11375 2678.75 623.25 C2680.034137 626.50230159 2680.034137 626.50230159 2684 630 C2684 620.43 2684 610.86 2684 601 C2680.04 601 2676.08 601 2672 601 C2671.83196401 606.54518774 2671.86156778 610.78757146 2674 616 C2673.34 616 2672.68 616 2672 616 C2670 612 2670 612 2668 601 C2453.665 600.505 2453.665 600.505 2235 600 C2235 599.34 2235 598.68 2235 598 C2382.84 597.67 2530.68 597.34 2683 597 C2683 587.76 2683 578.52 2683 569 C2681.68 569 2680.36 569 2679 569 C2682.69766323 563.03602705 2686.79000654 559.33070376 2693 556 C2693.66 556 2694.32 556 2695 556 C2694.34 557.65 2693.68 559.3 2693 561 C2700.59 561 2708.18 561 2716 561 C2716 558.36 2716 555.72 2716 553 C2710.22192976 552.7641604 2705.48675196 553.13216954 2700 555 C2700.33 554.01 2700.66 553.02 2701 552 C2706.04362251 549.73036987 2710.26907137 549.63676985 2716 549 C2716 473.1 2716 397.2 2716 319 C2687.62 318.67 2659.24 318.34 2630 318 C2630 317.34 2630 316.68 2630 316 C2658.38 315.67 2686.76 315.34 2716 315 C2716 300.81 2716 286.62 2716 272 C1920.7 272 1125.4 272 306 272 C306 286.19 306 300.38 306 315 C348.57 315.495 348.57 315.495 392 316 C392 316.66 392 317.32 392 318 C349.43 318.495 349.43 318.495 306 319 C305.67 394.9 305.34 470.8 305 549 C300.38 549.66 295.76 550.32 291 551 C289.68 551.33 288.36 551.66 287 552 C287.33 551.01 287.66 550.02 288 549 C292.62 548.01 297.24 547.02 302 546 C302 471.09 302 396.18 302 319 C280.22 318.505 280.22 318.505 258 318 C258 317.34 258 316.68 258 316 C272.52 315.67 287.04 315.34 302 315 C302 300.81 302 286.62 302 272 C240.29 272 178.58 272 115 272 Z " fill="#FEFEFE" transform="translate(0,0)"/>
<path d="M0 0 C898.26 0 1796.52 0 2722 0 C2722.495 2.475 2722.495 2.475 2723 5 C2723.6391333 4.91435791 2724.2782666 4.82871582 2724.93676758 4.74047852 C2727.89503491 4.34545607 2730.85375978 3.95396409 2733.8125 3.5625 C2734.81732422 3.42779297 2735.82214844 3.29308594 2736.85742188 3.15429688 C2737.85966797 3.02216797 2738.86191406 2.89003906 2739.89453125 2.75390625 C2740.80050049 2.63345947 2741.70646973 2.5130127 2742.63989258 2.38891602 C2747.41703927 1.83598463 2752.21070995 1.43539 2757 1 C2757 46.54 2757 92.08 2757 139 C2752.70530579 138.38647226 2748.44397523 137.75760181 2744.171875 137.02734375 C2743.12515625 136.85009766 2742.0784375 136.67285156 2741 136.49023438 C2738.81750157 136.11905225 2736.63521222 135.74663882 2734.453125 135.37304688 C2733.4115625 135.19708984 2732.37 135.02113281 2731.296875 134.83984375 C2730.35166992 134.67863037 2729.40646484 134.51741699 2728.43261719 134.35131836 C2725.9147766 133.92853151 2725.9147766 133.92853151 2723 134 C2722.67 135.65 2722.34 137.3 2722 139 C2683.39 139 2644.78 139 2605 139 C2604.505 136.525 2604.505 136.525 2604 134 C2594.8212288 135.01324098 2585.89002611 136.30024968 2576.890625 138.4140625 C2574 139 2574 139 2570 139 C2570 133.39 2570 127.78 2570 122 C2569.01 122.33 2568.02 122.66 2567 123 C2566.67 128.28 2566.34 133.56 2566 139 C2564.13214844 138.72285156 2562.26429688 138.44570312 2560.33984375 138.16015625 C2557.87239727 137.79426114 2555.40494927 137.42837626 2552.9375 137.0625 C2551.70837891 136.88009766 2550.47925781 136.69769531 2549.21289062 136.50976562 C2543.4771507 135.65945378 2537.74151747 134.8104668 2532 134 C2531.67 135.65 2531.34 137.3 2531 139 C1758.8 139 986.6 139 191 139 C190.67 137.35 190.34 135.7 190 134 C182.59549258 134.74594719 175.28104372 135.86329465 167.9375 137.0625 C166.78572266 137.24876953 165.63394531 137.43503906 164.44726562 137.62695312 C161.63119108 138.08266643 158.81555031 138.5410589 156 139 C155.67 133.39 155.34 127.78 155 122 C154.01 121.67 153.02 121.34 152 121 C152 126.61 152 132.22 152 138 C150.29972656 137.72285156 148.59945312 137.44570312 146.84765625 137.16015625 C144.58595624 136.794155 142.32423644 136.42827607 140.0625 136.0625 C138.94552734 135.88009766 137.82855469 135.69769531 136.67773438 135.50976562 C130.46056873 134.50699697 124.26602638 133.63125398 118 133 C117.67 134.65 117.34 136.3 117 138 C78.39 138 39.78 138 0 138 C0 136.02 0 134.04 0 132 C-1.43049683 132.27263672 -1.43049683 132.27263672 -2.88989258 132.55078125 C-6.42843467 133.22443965 -9.96765007 133.8945004 -13.50708008 134.56347656 C-15.03884181 134.85351045 -16.57041924 135.14451953 -18.10180664 135.43652344 C-20.30307037 135.85608359 -22.5049732 136.27213173 -24.70703125 136.6875 C-25.39150833 136.81874268 -26.07598541 136.94998535 -26.78120422 137.08520508 C-29.5753614 137.60929491 -32.14900304 138 -35 138 C-35 92.79 -35 47.58 -35 1 C-22.625 2.125 -22.625 2.125 -17.89453125 2.75390625 C-16.89228516 2.88603516 -15.89003906 3.01816406 -14.85742188 3.15429688 C-13.85259766 3.28900391 -12.84777344 3.42371094 -11.8125 3.5625 C-10.76513672 3.70107422 -9.71777344 3.83964844 -8.63867188 3.98242188 C-6.09217717 4.31962894 -3.54596857 4.65884727 -1 5 C-0.67 3.35 -0.34 1.7 0 0 Z " fill="#FEFEFE" transform="translate(150,72)"/>
<path d="M0 0 C0.99 0 1.98 0 3 0 C3 5.61 3 11.22 3 17 C5.18625 16.54625 7.3725 16.0925 9.625 15.625 C28.45452762 11.81339678 28.45452762 11.81339678 38 12 C38 13.65 38 15.3 38 17 C936.26 17 1834.52 17 2760 17 C2760 15.35 2760 13.7 2760 12 C2767.19846339 12.47879688 2774.30720616 13.4314852 2781.4375 14.5 C2782.31374023 14.63059814 2783.18998047 14.76119629 2784.09277344 14.89575195 C2787.79934385 15.46090015 2791.35503894 16.08875974 2795 17 C2795 11.39 2795 5.78 2795 0 C2796.32 0.33 2797.64 0.66 2799 1 C2799 70.3 2799 139.6 2799 211 C2797.68 211.33 2796.36 211.66 2795 212 C2795 196.49 2795 180.98 2795 165 C2785.3504299 166.6806517 2785.3504299 166.6806517 2775.7043457 168.38110352 C2774.49866943 168.58662842 2773.29299316 168.79215332 2772.05078125 169.00390625 C2770.82012939 169.21861572 2769.58947754 169.4333252 2768.3215332 169.65454102 C2765.20777031 169.97839067 2762.99673719 169.81819629 2760 169 C2760 167.35 2760 165.7 2760 164 C2721.39 164 2682.78 164 2643 164 C2643 165.65 2643 167.3 2643 169 C2638.58977937 170.26127231 2634.94757168 169.63666831 2630.5625 168.6875 C2623.03164442 167.12965399 2615.67666056 166.09666579 2608 165 C2608 182.16 2608 199.32 2608 217 C2616.62564087 216.99214478 2616.62564087 216.99214478 2625.42553711 216.98413086 C2644.37267594 216.9676004 2663.31981505 216.95648014 2682.26695919 216.94818783 C2693.76057743 216.94302425 2705.25418886 216.93598037 2716.74780273 216.92456055 C2726.76175187 216.91461561 2736.77569608 216.90814703 2746.78965002 216.90591151 C2752.09545443 216.90460407 2757.40124471 216.90151619 2762.7070446 216.89426994 C2767.69490771 216.88751272 2772.68275081 216.88538243 2777.67061806 216.88689232 C2779.50690189 216.88661586 2781.34318635 216.88460898 2783.17946625 216.88079453 C2785.67520616 216.87586192 2788.17086924 216.8770001 2790.66661072 216.87974548 C2791.40297805 216.87683264 2792.13934539 216.8739198 2792.89802688 216.87091869 C2797.88587879 216.88587879 2797.88587879 216.88587879 2799 218 C2799.09743572 219.43828473 2799.1252296 220.88134569 2799.12534916 222.322927 C2799.12910444 223.734246 2799.12910444 223.734246 2799.13293558 225.1740765 C2799.13059442 226.2220099 2799.12825325 227.2699433 2799.12584114 228.34963226 C2799.12729458 229.45637127 2799.12874802 230.56311029 2799.13024551 231.70338684 C2799.13393419 235.46222404 2799.1304059 239.22102141 2799.12698364 242.9798584 C2799.12813433 245.68175422 2799.12968019 248.38364717 2799.13171089 251.0855422 C2799.13533544 256.98591173 2799.13520515 262.88627212 2799.13266373 268.78664207 C2799.12889485 277.56042527 2799.13080787 286.3342007 2799.13387203 295.10798384 C2799.13914928 310.77425181 2799.13867682 326.4405157 2799.13579312 342.10678406 C2799.13328187 355.81624088 2799.13261885 369.5256962 2799.13381577 383.2351532 C2799.13389215 384.14299647 2799.13396854 385.05083975 2799.13404724 385.98619343 C2799.13435855 389.67102136 2799.13467695 393.35584929 2799.135007 397.04067723 C2799.138069 431.63794648 2799.13528779 466.23521314 2799.1299101 500.832482 C2799.12516417 531.59942299 2799.12558878 562.36635983 2799.13037109 593.13330078 C2799.13572067 627.66553324 2799.13785188 662.19776339 2799.13475883 696.7299962 C2799.13443809 700.40827974 2799.13412525 704.08656327 2799.13381577 707.7648468 C2799.13373669 708.67059644 2799.13365761 709.57634608 2799.13357614 710.50954269 C2799.13243657 724.213531 2799.13377282 737.91751765 2799.13629532 751.62150574 C2799.13914789 767.19674729 2799.13845409 782.77198411 2799.13301457 798.34722507 C2799.13006766 807.07419476 2799.12990184 815.80115425 2799.13366075 824.52812369 C2799.1358914 830.34651824 2799.13452899 836.16490455 2799.13015598 841.98329787 C2799.12776128 845.30566852 2799.12753709 848.62801451 2799.13056196 851.95038527 C2799.13356243 855.51706624 2799.13052513 859.08368987 2799.12584114 862.65036774 C2799.12818231 863.69830114 2799.13052347 864.74623454 2799.13293558 865.8259235 C2799.13043207 866.76680284 2799.12792855 867.70768217 2799.12534916 868.677073 C2799.1252814 869.49403175 2799.12521365 870.3109905 2799.12514383 871.15270558 C2799 873 2799 873 2798 874 C2795.49605143 874.09960826 2793.01965656 874.13314913 2790.51515663 874.12514383 C2789.71618045 874.12652425 2788.91720426 874.12790467 2788.09401668 874.12932692 C2785.37469043 874.13277532 2782.65541965 874.12900046 2779.93609428 874.12534916 C2777.97229452 874.12633917 2776.00849494 874.12776789 2774.04469579 874.12959861 C2768.5874592 874.13338892 2763.13024021 874.1308635 2757.67300406 874.12740866 C2751.73679891 874.12474294 2745.80059644 874.12785201 2739.86439157 874.13024551 C2729.39999129 874.1336533 2718.93559552 874.13332938 2708.47119546 874.13056196 C2697.17585736 874.12759476 2685.88052223 874.12681375 2674.58518386 874.12868617 C2673.51323897 874.12886181 2673.51323897 874.12886181 2672.41963863 874.12904099 C2668.77119568 874.12964846 2665.12275273 874.1302907 2661.47430978 874.1309446 C2634.782156 874.13565195 2608.090004 874.1353955 2581.39785004 874.13266373 C2554.32988191 874.12990839 2527.26191504 874.12932014 2500.19394684 874.13140106 C2498.91513968 874.13149783 2498.91513968 874.13149783 2497.61049803 874.13159656 C2489.79794379 874.13218807 2481.98538956 874.13280196 2474.17283532 874.13344277 C2454.57900429 874.1350473 2434.98517324 874.13630313 2415.39134216 874.13732314 C2414.0443065 874.13739349 2414.0443065 874.13739349 2412.67005799 874.13746527 C2368.36225294 874.1397461 2324.05444811 874.13820699 2279.74664307 874.13629532 C2277.80482389 874.13621168 2275.86300472 874.13612805 2273.92118555 874.13604442 C2272.95881942 874.13600297 2271.99645329 874.13596151 2271.00492456 874.1359188 C2258.3145954 874.13537231 2245.62426623 874.13483571 2232.93393707 874.1343255 C2231.96396619 874.13428634 2230.9939953 874.13424718 2229.99463136 874.13420683 C2185.08734195 874.13240725 2140.18005265 874.13283349 2095.27276323 874.13375596 C2090.37681347 874.13385576 2085.48086371 874.13395126 2080.58491395 874.13404724 C2065.82868024 874.13433781 2051.07244652 874.13463475 2036.3162128 874.13494483 C1991.31565676 874.13588946 1946.31510072 874.13648963 1901.31454468 874.13679314 C1899.81145539 874.13680344 1899.81145539 874.13680344 1898.27800067 874.13681395 C1833.3613286 874.13725283 1768.44465665 874.13615121 1703.52798462 874.13394356 C1701.97297048 874.13389088 1701.97297048 874.13389088 1700.38654192 874.13383714 C1665.66077164 874.13266072 1630.93500136 874.13140468 1596.20923107 874.13014051 C1491.19007578 874.12631992 1386.17092094 874.12422641 1198.62272115 874.13025584 C1163.90581923 874.13151901 1129.18891731 874.13276749 1094.47201538 874.13394356 C1092.91744218 874.13399642 1092.91744218 874.13399642 1091.33146345 874.13405036 C1026.44946073 874.13625495 961.56745809 874.13723786 896.68545532 874.13679314 C895.68372448 874.13678638 894.68199364 874.13677962 893.64990732 874.13677266 C848.67452766 874.13646597 803.69914802 874.13582773 758.72376838 874.13488263 C743.97395487 874.13457307 729.22414136 874.13427874 714.47432785 874.13398959 C709.58119924 874.13389359 704.68807062 874.13379624 699.79494201 874.13369573 C654.88531559 874.13277603 609.97568933 874.13251235 565.06606293 874.1343255 C564.09670436 874.13436448 563.1273458 874.13440345 562.12861273 874.1344436 C549.44534664 874.13495543 536.76208055 874.13549807 524.07881445 874.13604442 C523.11720308 874.13608584 522.1555917 874.13612725 521.16484059 874.13616992 C519.2247758 874.13625348 517.28471102 874.13633711 515.34464624 874.13642082 C471.09931669 874.13832481 426.8539874 874.13963396 382.60865784 874.13732314 C381.26338711 874.13725311 381.26338711 874.13725311 379.89093919 874.13718166 C360.32963321 874.13615176 340.76832726 874.13483233 321.20702132 874.13322786 C313.4066986 874.13259192 305.60637588 874.13199133 297.80605316 874.13140106 C296.95514449 874.13133565 296.10423582 874.13127023 295.22754203 874.13120283 C268.19145413 874.12914079 241.15536752 874.13015086 214.11927971 874.13291783 C187.5198622 874.13562658 160.9204467 874.13531683 134.32102942 874.13054947 C130.685625 874.12989825 127.05022057 874.12928182 123.41481614 874.12868617 C122.70305686 874.12856819 121.99129759 874.1284502 121.25796985 874.12832864 C109.99393238 874.12655262 98.72989797 874.12812864 87.46586086 874.13110753 C76.46988379 874.13394766 65.47391083 874.13320433 54.477934 874.12877072 C48.61386071 874.12650936 42.74979905 874.12587484 36.88572624 874.12958724 C31.57937457 874.1329179 26.27304475 874.13175928 20.9666945 874.12681253 C19.05018772 874.12584637 17.13367921 874.1265982 15.21717391 874.12917154 C12.63970295 874.13239675 10.06231071 874.12959702 7.48484337 874.12514383 C6.73032872 874.12755554 5.97581407 874.12996724 5.19843533 874.13245203 C0.11415852 874.11415852 0.11415852 874.11415852 -1 873 C-1.09743572 871.56171527 -1.1252296 870.11865431 -1.12534916 868.677073 C-1.12785268 867.73619367 -1.1303562 866.79531433 -1.13293558 865.8259235 C-1.13059442 864.7779901 -1.12825325 863.7300567 -1.12584114 862.65036774 C-1.12729458 861.54362873 -1.12874802 860.43688971 -1.13024551 859.29661316 C-1.13393419 855.53777596 -1.1304059 851.77897859 -1.12698364 848.0201416 C-1.12813433 845.31824578 -1.12968019 842.61635283 -1.13171089 839.9144578 C-1.13533544 834.01408827 -1.13520515 828.11372788 -1.13266373 822.21335793 C-1.12889485 813.43957473 -1.13080787 804.6657993 -1.13387203 795.89201616 C-1.13914928 780.22574819 -1.13867682 764.5594843 -1.13579312 748.89321594 C-1.13328187 735.18375912 -1.13261885 721.4743038 -1.13381577 707.7648468 C-1.13389215 706.85700353 -1.13396854 705.94916025 -1.13404724 705.01380657 C-1.13435855 701.32897864 -1.13467695 697.64415071 -1.135007 693.95932277 C-1.138069 659.36205352 -1.13528779 624.76478686 -1.1299101 590.167518 C-1.12516417 559.40057701 -1.12558878 528.63364017 -1.13037109 497.86669922 C-1.13572067 463.33446676 -1.13785188 428.80223661 -1.13475883 394.2700038 C-1.13443809 390.59172026 -1.13412525 386.91343673 -1.13381577 383.2351532 C-1.13373669 382.32940356 -1.13365761 381.42365392 -1.13357614 380.49045731 C-1.13243657 366.786469 -1.13377282 353.08248235 -1.13629532 339.37849426 C-1.13914789 323.80325271 -1.13845409 308.22801589 -1.13301457 292.65277493 C-1.13006766 283.92580524 -1.12990184 275.19884575 -1.13366075 266.47187631 C-1.1358914 260.65348176 -1.13452899 254.83509545 -1.13015598 249.01670213 C-1.12776128 245.69433148 -1.12753709 242.37198549 -1.13056196 239.04961473 C-1.13356243 235.48293376 -1.13052513 231.91631013 -1.12584114 228.34963226 C-1.12818231 227.30169886 -1.13052347 226.25376546 -1.13293558 225.1740765 C-1.13043207 224.23319716 -1.12792855 223.29231783 -1.12534916 222.322927 C-1.1252814 221.50596825 -1.12521365 220.6890095 -1.12514383 219.84729442 C-1 218 -1 218 0 217 C2.45370621 216.90230123 4.8792317 216.87003759 7.33338928 216.87974548 C8.11011866 216.87889106 8.88684803 216.87803663 9.68711466 216.87715632 C12.30974322 216.87549916 14.9323089 216.88102671 17.55493164 216.88647461 C19.42697651 216.88675646 21.29902148 216.8865988 23.17106628 216.8860321 C28.2700276 216.88574403 33.36896562 216.89164231 38.4679215 216.89860606 C43.79041633 216.90483801 49.11291163 216.90544327 54.43540955 216.90663147 C64.52184891 216.90974526 74.60827749 216.91795928 84.6947121 216.92798096 C96.17456379 216.93914063 107.65441598 216.94465218 119.13427174 216.94967639 C142.75618852 216.96014186 166.37809052 216.97848793 190 217 C190 199.18 190 181.36 190 163 C187.36 163.66 184.72 164.32 182 165 C178.65959983 165.63741711 175.3014739 166.12813573 171.9375 166.625 C170.64875977 166.82609375 170.64875977 166.82609375 169.33398438 167.03125 C164.49600274 167.75565367 159.89100302 168.14600009 155 168 C155 166.35 155 164.7 155 163 C116.39 163 77.78 163 38 163 C38 164.65 38 166.3 38 168 C31.03967704 168.26090691 24.53410135 167.26096626 17.6875 166.0625 C16.60404297 165.88009766 15.52058594 165.69769531 14.40429688 165.50976562 C6.45165019 164.15055006 6.45165019 164.15055006 3 163 C3 179.17 3 195.34 3 212 C1.68 211.67 0.36 211.34 -1 211 C-1.02332551 183.6366729 -1.04097746 156.27334728 -1.05181217 128.91001225 C-1.05697587 116.20571117 -1.06401997 103.50141626 -1.07543945 90.79711914 C-1.08538404 79.72841575 -1.09185289 68.65971682 -1.09408849 57.59100908 C-1.09539599 51.72629172 -1.09848425 45.86158713 -1.10573006 39.99687386 C-1.11248673 34.48371472 -1.11461769 28.97057369 -1.11310768 23.45741081 C-1.11338417 21.42762021 -1.11539138 19.39782903 -1.11920547 17.36804199 C-1.12413721 14.60956083 -1.12300022 11.8511492 -1.12025452 9.09266663 C-1.12316736 8.27848033 -1.1260802 7.46429402 -1.12908131 6.62543541 C-1.11412121 1.11412121 -1.11412121 1.11412121 0 0 Z M38 21 C37.67 22.65 37.34 24.3 37 26 C36.3608667 25.91435791 35.7217334 25.82871582 35.06323242 25.74047852 C32.10496509 25.34545607 29.14624022 24.95396409 26.1875 24.5625 C25.18267578 24.42779297 24.17785156 24.29308594 23.14257812 24.15429688 C22.14033203 24.02216797 21.13808594 23.89003906 20.10546875 23.75390625 C19.19949951 23.63345947 18.29353027 23.5130127 17.36010742 23.38891602 C12.58296073 22.83598463 7.78929005 22.43539 3 22 C3 67.21 3 112.42 3 159 C12.1058019 157.48763522 12.1058019 157.48763522 21.203125 155.9296875 C22.20214844 155.75566406 23.20117188 155.58164063 24.23046875 155.40234375 C25.22691406 155.22832031 26.22335938 155.05429688 27.25 154.875 C28.81427734 154.60236328 28.81427734 154.60236328 30.41015625 154.32421875 C32.94017318 153.88320662 35.47011995 153.44179654 38 153 C38 154.98 38 156.96 38 159 C76.61 159 115.22 159 155 159 C155.33 157.35 155.66 155.7 156 154 C163.40450742 154.74594719 170.71895628 155.86329465 178.0625 157.0625 C179.21427734 157.24876953 180.36605469 157.43503906 181.55273438 157.62695312 C184.36880892 158.08266643 187.18444969 158.5410589 190 159 C190 153.39 190 147.78 190 142 C190.99 142.33 191.98 142.66 193 143 C193.33 148.61 193.66 154.22 194 160 C195.70027344 159.72285156 197.40054688 159.44570312 199.15234375 159.16015625 C201.41404376 158.794155 203.67576356 158.42827607 205.9375 158.0625 C207.61295898 157.78889648 207.61295898 157.78889648 209.32226562 157.50976562 C215.53943127 156.50699697 221.73397362 155.63125398 228 155 C228.33 156.65 228.66 158.3 229 160 C1001.2 160 1773.4 160 2569 160 C2569.33 158.35 2569.66 156.7 2570 155 C2576.984305 155.98589744 2583.96039287 157.02709291 2590.9375 158.0625 C2592.19369141 158.24876953 2593.44988281 158.43503906 2594.74414062 158.62695312 C2597.82945151 159.08447071 2600.91472906 159.54221308 2604 160 C2604.33 154.72 2604.66 149.44 2605 144 C2605.99 143.67 2606.98 143.34 2608 143 C2608 148.61 2608 154.22 2608 160 C2612.69959024 159.41255122 2617.30659992 158.82199637 2621.9609375 158.02734375 C2623.00894531 157.85009766 2624.05695312 157.67285156 2625.13671875 157.49023438 C2626.20535156 157.30783203 2627.27398438 157.12542969 2628.375 156.9375 C2630.52839252 156.57012666 2632.68202684 156.20416693 2634.8359375 155.83984375 C2635.78001465 155.67863037 2636.7240918 155.51741699 2637.69677734 155.35131836 C2640 155 2640 155 2642 155 C2642.495 157.475 2642.495 157.475 2643 160 C2681.61 160 2720.22 160 2760 160 C2760.33 158.35 2760.66 156.7 2761 155 C2761.77601563 155.12117187 2762.55203125 155.24234375 2763.3515625 155.3671875 C2771.55929305 156.64046312 2779.77589863 157.83768639 2788 159 C2790.31 159.33 2792.62 159.66 2795 160 C2795 114.46 2795 68.92 2795 22 C2786.42425116 22.75922919 2786.42425116 22.75922919 2777.89453125 23.75390625 C2776.89228516 23.88603516 2775.89003906 24.01816406 2774.85742188 24.15429688 C2773.85259766 24.28900391 2772.84777344 24.42371094 2771.8125 24.5625 C2770.76513672 24.70107422 2769.71777344 24.83964844 2768.63867188 24.98242188 C2766.09217717 25.31962894 2763.54596857 25.65884727 2761 26 C2760.505 23.525 2760.505 23.525 2760 21 C1861.74 21 963.48 21 38 21 Z M3 221 C3 235.19 3 249.38 3 264 C29.07 264 55.14 264 82 264 C82 265.32 82 266.64 82 268 C55.93 268 29.86 268 3 268 C3 359.08 3 450.16 3 544 C53.82 544 104.64 544 157 544 C157 534.76 157 525.52 157 516 C156.01 515.67 155.02 515.34 154 515 C156.54896069 509.24307904 161.20840904 505.5819882 166.9375 503.125 C167.948125 502.75375 168.95875 502.3825 170 502 C168.86695008 505.39914975 167.87481525 506.05254451 165 508 C165.69268982 508 166.38537964 508 167.09906006 508 C187.06604004 508 207.03302002 508 227 508 C227.26554688 508.57492187 227.53109375 509.14984375 227.8046875 509.7421875 C229.44697273 512.84428183 231.58971991 515.44629558 233.7578125 518.1953125 C235 520 235 520 235 522 C231.00146009 520.66715336 230.21502331 518.47020318 228 515 C227.67 515 227.34 515 227 515 C227 524.57 227 534.14 227 544 C230.63 544 234.26 544 238 544 C238.2745039 537.32040507 238.09485864 532.93181238 235 527 C236.32 527 237.64 527 239 527 C240.12849647 532.64248233 241.05401115 538.32406693 242 544 C384.89 544 527.78 544 675 544 C675 545.32 675 546.64 675 548 C526.83 548 378.66 548 226 548 C226 557.24 226 566.48 226 576 C227.65 575.67 229.3 575.34 231 575 C220.77105588 587.14502876 220.77105588 587.14502876 215 588 C215.9977758 585.00667261 216.7522025 584.05233685 219 582 C211.09798872 581.97466789 203.1959879 581.95714066 195.29394531 581.94506836 C192.60513148 581.94060054 189.91634118 581.93363881 187.22753906 581.92456055 C183.3652275 581.91244629 179.50295208 581.90676055 175.640625 581.90234375 C174.4363385 581.89718246 173.232052 581.89202118 171.99127197 581.88670349 C170.87041199 581.88662796 169.749552 581.88655243 168.59472656 581.88647461 C167.60877502 581.884254 166.62282349 581.88203339 165.60699463 581.87974548 C163.2458566 581.98865921 161.25666764 582.32600009 159 583 C157.70601853 581.56458334 156.41489889 580.12658648 155.125 578.6875 C154.40570313 577.88699219 153.68640625 577.08648438 152.9453125 576.26171875 C149 571.6746988 149 571.6746988 149 568 C152.99853991 569.33284664 153.78497669 571.52979682 156 575 C156.33 575 156.66 575 157 575 C157 566.09 157 557.18 157 548 C153.37 548 149.74 548 146 548 C145.6847405 553.98993047 146.31780178 557.63560356 149 563 C147.68 563 146.36 563 145 563 C144.01 557.72 143.02 552.44 142 547 C96.13 547 50.26 547 3 547 C3 640.06 3 733.12 3 829 C29.07 829 55.14 829 82 829 C82 830.32 82 831.64 82 833 C55.93 833 29.86 833 3 833 C3 845.21 3 857.42 3 870 C924.36 870 1845.72 870 2795 870 C2795 857.79 2795 845.58 2795 833 C2768.93 833 2742.86 833 2716 833 C2716 831.68 2716 830.36 2716 829 C2742.07 829 2768.14 829 2795 829 C2795 736.93 2795 644.86 2795 550 C2744.18 550 2693.36 550 2641 550 C2641 558.91 2641 567.82 2641 577 C2641.99 577.66 2642.98 578.32 2644 579 C2639.54212574 584.73951312 2635.72228849 588.16956274 2629 591 C2629.99 589.02 2630.98 587.04 2632 585 C2631.27638779 585.01554428 2630.55277557 585.03108856 2629.80723572 585.04710388 C2622.96669374 585.18773211 2616.12636949 585.29412318 2609.28475094 585.3626852 C2605.76773541 585.39912149 2602.25192034 585.44848563 2598.7355957 585.52807617 C2594.68689894 585.61913655 2590.63945019 585.65273198 2586.58984375 585.68359375 C2585.33541977 585.71972275 2584.08099579 585.75585175 2582.78855896 585.79307556 C2573.02189883 585.79744908 2573.02189883 585.79744908 2568.77172852 581.63305664 C2563 574.64531794 2563 574.64531794 2563 571 C2563.99 570.67 2564.98 570.34 2566 570 C2566.37125 571.11375 2566.37125 571.11375 2566.75 572.25 C2568.034137 575.50230159 2568.034137 575.50230159 2572 579 C2572 569.43 2572 559.86 2572 550 C2568.04 550 2564.08 550 2560 550 C2559.83196401 555.54518774 2559.86156778 559.78757146 2562 565 C2561.34 565 2560.68 565 2560 565 C2558 561 2558 561 2556 550 C2341.665 549.505 2341.665 549.505 2123 549 C2123 548.34 2123 547.68 2123 547 C2270.84 546.67 2418.68 546.34 2571 546 C2571 536.76 2571 527.52 2571 518 C2569.68 518 2568.36 518 2567 518 C2570.69766323 512.03602705 2574.79000654 508.33070376 2581 505 C2581.66 505 2582.32 505 2583 505 C2582.34 506.65 2581.68 508.3 2581 510 C2588.59 510 2596.18 510 2604 510 C2604 507.36 2604 504.72 2604 502 C2598.22192976 501.7641604 2593.48675196 502.13216954 2588 504 C2588.33 503.01 2588.66 502.02 2589 501 C2594.04362251 498.73036987 2598.26907137 498.63676985 2604 498 C2604 422.1 2604 346.2 2604 268 C2575.62 267.67 2547.24 267.34 2518 267 C2518 266.34 2518 265.68 2518 265 C2546.38 264.67 2574.76 264.34 2604 264 C2604 249.81 2604 235.62 2604 221 C1808.7 221 1013.4 221 194 221 C194 235.19 194 249.38 194 264 C236.57 264.495 236.57 264.495 280 265 C280 265.66 280 266.32 280 267 C237.43 267.495 237.43 267.495 194 268 C193.67 343.9 193.34 419.8 193 498 C188.38 498.66 183.76 499.32 179 500 C177.68 500.33 176.36 500.66 175 501 C175.33 500.01 175.66 499.02 176 498 C180.62 497.01 185.24 496.02 190 495 C190 420.09 190 345.18 190 268 C168.22 267.505 168.22 267.505 146 267 C146 266.34 146 265.68 146 265 C160.52 264.67 175.04 264.34 190 264 C190 249.81 190 235.62 190 221 C128.29 221 66.58 221 3 221 Z " fill="#161616" transform="translate(112,51)"/>
<path d="M0 0 C772.2 0 1544.4 0 2340 0 C2340.495 2.475 2340.495 2.475 2341 5 C2348.33982146 4.23481618 2355.60385103 3.17634765 2362.890625 2.01757812 C2363.73625 1.88673828 2364.581875 1.75589844 2365.453125 1.62109375 C2366.20754883 1.5017749 2366.96197266 1.38245605 2367.73925781 1.25952148 C2370 1 2370 1 2375 1 C2375 18.16 2375 35.32 2375 53 C1579.7 53 784.4 53 -35 53 C-35 35.84 -35 18.68 -35 1 C-27.91360239 1.64421796 -21.04849029 2.38025549 -14.0625 3.5625 C-12.42887229 3.83754304 -10.79476993 4.10978494 -9.16015625 4.37890625 C-8.10260132 4.55788452 -8.10260132 4.55788452 -7.02368164 4.74047852 C-4.67879108 5.08480036 -4.67879108 5.08480036 -1 5 C-0.67 3.35 -0.34 1.7 0 0 Z " fill="#FDFDFD" transform="translate(341,215)"/>
<path d="M0 0 C61.71 0 123.42 0 187 0 C187 14.19 187 28.38 187 43 C160.93 43 134.86 43 108 43 C108 44.32 108 45.64 108 47 C134.07 47 160.14 47 187 47 C187 139.07 187 231.14 187 326 C141.46 326 95.92 326 49 326 C47.39629832 324.39629832 47.76404212 322.52724226 47.625 320.3125 C47.24294624 315.94706604 46.29889164 312.79816879 44 309 C43.34 309 42.68 309 42 309 C42.14308594 309.5671875 42.28617188 310.134375 42.43359375 310.71875 C42.99394736 312.97562249 43.53876109 315.23434427 44.0625 317.5 C44.23910156 318.2528125 44.41570313 319.005625 44.59765625 319.78125 C45 322 45 322 45 326 C41.04 326 37.08 326 33 326 C33 316.1 33 306.2 33 296 C37.5 300.5 37.5 300.5 38 304 C39.32 304 40.64 304 42 304 C41.30582698 302.61779708 40.59370487 301.2446074 39.875 299.875 C39.48054688 299.10929687 39.08609375 298.34359375 38.6796875 297.5546875 C36.58337643 294.17864321 36.58337643 294.17864321 31 289 C20.77 289 10.54 289 0 289 C0 209.14 0 129.28 0 47 C14.52 46.67 29.04 46.34 44 46 C44 45.34 44 44.68 44 44 C22.22 43.505 22.22 43.505 0 43 C0 28.81 0 14.62 0 0 Z " fill="#FEFEFE" transform="translate(2720,272)"/>
<path d="M0 0 C1.02544922 -0.04576172 2.05089844 -0.09152344 3.10742188 -0.13867188 C9.56513246 -0.23369897 13.36594277 0.57304489 18.32641602 4.79858398 C25.86962656 12.47210609 27.25030415 19.90068253 27.2734375 30.42578125 C27.2800943 31.4835527 27.2867511 32.54132416 27.29360962 33.63114929 C27.30371242 35.86435209 27.30842738 38.09758492 27.30810547 40.33081055 C27.312472 43.72821412 27.34880002 47.12431092 27.38671875 50.52148438 C27.39258889 52.69791226 27.39655696 54.87434627 27.3984375 57.05078125 C27.41280853 58.05732254 27.42717957 59.06386383 27.44198608 60.10090637 C27.38785653 68.5544634 25.2320658 75.54048603 19.4375 81.875 C18.8703125 82.51308594 18.303125 83.15117188 17.71875 83.80859375 C14.19180495 87.03389218 11.27969173 87.68872208 6.55078125 87.66796875 C5.0203418 87.66506836 5.0203418 87.66506836 3.45898438 87.66210938 C2.40001953 87.64986328 1.34105469 87.63761719 0.25 87.625 C-1.35584961 87.6240332 -1.35584961 87.6240332 -2.99414062 87.62304688 C-10.92219886 87.57780114 -10.92219886 87.57780114 -12.0625 86.4375 C-12.16293271 83.79549939 -12.1986685 81.1796141 -12.19189453 78.53710938 C-12.19364685 77.70951614 -12.19539917 76.88192291 -12.19720459 76.0292511 C-12.20162393 73.27989638 -12.19868483 70.53060543 -12.1953125 67.78125 C-12.19598552 65.87935371 -12.19695552 63.97745751 -12.19821167 62.07556152 C-12.19968875 58.08405745 -12.19753375 54.09257571 -12.19287109 50.10107422 C-12.1871738 44.97259493 -12.19045275 39.84416798 -12.19644356 34.71569061 C-12.20004889 30.78675946 -12.19891072 26.85784082 -12.19631577 22.9289093 C-12.19564642 21.03737888 -12.19647519 19.14584735 -12.19879532 17.25431824 C-12.20132138 14.61547823 -12.19748191 11.97672419 -12.19189453 9.33789062 C-12.19391876 8.54824417 -12.19594299 7.75859772 -12.19802856 6.94502258 C-12.16337176 -1.84425349 -7.67986933 0.1363847 0 0 Z " fill="#FAFAFA" transform="translate(1584.0625,697.5625)"/>
<path d="M0 0 C218.13 0 436.26 0 661 0 C661.33 1.32 661.66 2.64 662 4 C443.54 4 225.08 4 0 4 C0 2.68 0 1.36 0 0 Z " fill="#121212" transform="translate(1180,596)"/>
<path d="M0 0 C31.68 0 63.36 0 96 0 C96.495 1.98 96.495 1.98 97 4 C71.59 4 46.18 4 20 4 C20.66 5.65 21.32 7.3 22 9 C22.32299433 10.50298516 22.59582242 12.01767087 22.81640625 13.5390625 C22.94080078 14.36664063 23.06519531 15.19421875 23.19335938 16.046875 C23.31517578 16.89765625 23.43699219 17.7484375 23.5625 18.625 C23.8114997 20.32585949 24.06270972 22.02639724 24.31640625 23.7265625 C24.42412354 24.47502441 24.53184082 25.22348633 24.64282227 25.99462891 C24.98506233 28.1968131 24.98506233 28.1968131 26 31 C26.12781786 33.67394964 26.04391871 36.32095857 26 39 C24.02 39 22.04 39 20 39 C20 122.49 20 205.98 20 292 C21.98 292 23.96 292 26 292 C24.86016233 303.39837674 22.88322769 314.70063384 21 326 C45.75 326 70.5 326 96 326 C96.33 327.32 96.66 328.64 97 330 C64.66 330 32.32 330 -1 330 C-0.505 328.02 -0.505 328.02 0 326 C4.95 325.67 9.9 325.34 15 325 C14.71125 323.20433594 14.4225 321.40867187 14.125 319.55859375 C13.74971882 317.18494027 13.3747344 314.81123986 13 312.4375 C12.80921875 311.25607422 12.6184375 310.07464844 12.421875 308.85742188 C11.531544 303.18156175 10.72989508 297.74817031 11 292 C12.65 292 14.3 292 16 292 C16 208.51 16 125.02 16 39 C14.35 39 12.7 39 11 39 C11.33252028 26.94613996 13.26027797 15.72346172 16 4 C10.39 4 4.78 4 -1 4 C-0.67 2.68 -0.34 1.36 0 0 Z " fill="#111111" transform="translate(9,268)"/>
<path d="M0 0 C20.46 0 40.92 0 62 0 C62 10.56 62 21.12 62 32 C41.54 32 21.08 32 0 32 C0 21.44 0 10.88 0 0 Z " fill="#FDFDFD" transform="translate(273,563)"/>
<path d="M0 0 C9.57 0 19.14 0 29 0 C29.33 2.64 29.66 5.28 30 8 C30.66 8 31.32 8 32 8 C32.33 5.36 32.66 2.72 33 0 C42.57 0 52.14 0 62 0 C62 10.56 62 21.12 62 32 C41.54 32 21.08 32 0 32 C0 21.44 0 10.88 0 0 Z " fill="#FDFDFD" transform="translate(2687,565)"/>
<path d="M0 0 C20.46 0 40.92 0 62 0 C62 10.23 62 20.46 62 31 C41.54 31 21.08 31 0 31 C0 20.77 0 10.54 0 0 Z " fill="#FBFBFB" transform="translate(2687,601)"/>
<path d="M0 0 C20.46 0 40.92 0 62 0 C62 10.23 62 20.46 62 31 C41.54 31 21.08 31 0 31 C0 20.77 0 10.54 0 0 Z " fill="#F9F9F9" transform="translate(273,598)"/>
<path d="M0 0 C0.99 0 1.98 0 3 0 C13.33350704 23.53242484 23.193887 47.24210022 33 71 C33.33 47.9 33.66 24.8 34 1 C35.32 0.67 36.64 0.34 38 0 C38 28.71 38 57.42 38 87 C34 86 34 86 32.82699585 84.21897888 C32.35261581 83.05182091 32.35261581 83.05182091 31.86865234 81.86108398 C31.50081635 80.97762802 31.13298035 80.09417206 30.7539978 79.1839447 C30.3685379 78.21445389 29.983078 77.24496307 29.5859375 76.24609375 C29.17139313 75.23901871 28.75684875 74.23194366 28.32974243 73.1943512 C26.9970766 69.9477484 25.68569472 66.69302658 24.375 63.4375 C23.51574032 61.33210326 22.65507725 59.2272787 21.79296875 57.12304688 C20.55038518 54.08788254 19.30947185 51.05219707 18.0796814 48.01182556 C13.47704826 36.63516107 8.72133127 25.33119504 4 14 C3.67 38.09 3.34 62.18 3 87 C1.68 86.67 0.36 86.34 -1 86 C-1.02312283 74.93465142 -1.04091478 63.86930855 -1.05181217 52.80394077 C-1.05704113 47.66640434 -1.06413901 42.52888437 -1.07543945 37.39135742 C-1.08626787 32.4376859 -1.09227674 27.48403026 -1.09487724 22.53034782 C-1.09673157 20.63602384 -1.10035234 18.74170076 -1.10573006 16.8473835 C-1.11293989 14.20365614 -1.11399097 11.55999529 -1.11352539 8.91625977 C-1.11712067 8.12504227 -1.12071594 7.33382477 -1.12442017 6.51863098 C-1.11405216 1.11405216 -1.11405216 1.11405216 0 0 Z " fill="#191919" transform="translate(1280,698)"/>
<path d="M0 0 C26.6437659 0 26.6437659 0 32.671875 5.53515625 C37.9015828 12.94390897 39.83774853 21.32394714 38.6328125 30.296875 C36.68414843 38.62079808 32.77262261 43.95373218 26 49 C28.82172525 57.79328335 32.20289867 66.34587118 35.59179688 74.93359375 C36.24825195 76.61775391 36.24825195 76.61775391 36.91796875 78.3359375 C37.31781982 79.35220215 37.7176709 80.3684668 38.12963867 81.41552734 C39 84 39 84 39 87 C37.68 87 36.36 87 35 87 C34.78907715 86.4423999 34.5781543 85.8847998 34.36083984 85.31030273 C30.01349238 73.82863492 25.59927965 62.38321713 21 51 C15.39 50.67 9.78 50.34 4 50 C4 61.88 4 73.76 4 86 C2.68 86 1.36 86 0 86 C0 57.62 0 29.24 0 0 Z M4 4 C4 17.86 4 31.72 4 46 C21.27683649 47.65398825 21.27683649 47.65398825 28 42.9375 C33.25856031 36.86525946 35.1891317 29.93171071 35 22 C33.91001121 15.39194294 31.72167342 10.72167342 27 6 C21.82742423 2.15099935 21.82742423 2.15099935 4 4 Z " fill="#121212" transform="translate(1440,698)"/>
<path d="M0 0 C1.02544922 -0.04576172 2.05089844 -0.09152344 3.10742188 -0.13867188 C9.56513246 -0.23369897 13.36594277 0.57304489 18.32641602 4.79858398 C25.86962656 12.47210609 27.25030415 19.90068253 27.2734375 30.42578125 C27.2800943 31.4835527 27.2867511 32.54132416 27.29360962 33.63114929 C27.30371242 35.86435209 27.30842738 38.09758492 27.30810547 40.33081055 C27.312472 43.72821412 27.34880002 47.12431092 27.38671875 50.52148438 C27.39258889 52.69791226 27.39655696 54.87434627 27.3984375 57.05078125 C27.41280853 58.05732254 27.42717957 59.06386383 27.44198608 60.10090637 C27.38785653 68.5544634 25.2320658 75.54048603 19.4375 81.875 C18.8703125 82.51308594 18.303125 83.15117188 17.71875 83.80859375 C14.19180495 87.03389218 11.27969173 87.68872208 6.55078125 87.66796875 C5.0203418 87.66506836 5.0203418 87.66506836 3.45898438 87.66210938 C2.40001953 87.64986328 1.34105469 87.63761719 0.25 87.625 C-1.35584961 87.6240332 -1.35584961 87.6240332 -2.99414062 87.62304688 C-10.92219886 87.57780114 -10.92219886 87.57780114 -12.0625 86.4375 C-12.16293271 83.79549939 -12.1986685 81.1796141 -12.19189453 78.53710938 C-12.19364685 77.70951614 -12.19539917 76.88192291 -12.19720459 76.0292511 C-12.20162393 73.27989638 -12.19868483 70.53060543 -12.1953125 67.78125 C-12.19598552 65.87935371 -12.19695552 63.97745751 -12.19821167 62.07556152 C-12.19968875 58.08405745 -12.19753375 54.09257571 -12.19287109 50.10107422 C-12.1871738 44.97259493 -12.19045275 39.84416798 -12.19644356 34.71569061 C-12.20004889 30.78675946 -12.19891072 26.85784082 -12.19631577 22.9289093 C-12.19564642 21.03737888 -12.19647519 19.14584735 -12.19879532 17.25431824 C-12.20132138 14.61547823 -12.19748191 11.97672419 -12.19189453 9.33789062 C-12.19391876 8.54824417 -12.19594299 7.75859772 -12.19802856 6.94502258 C-12.16337176 -1.84425349 -7.67986933 0.1363847 0 0 Z M-8.0625 3.4375 C-8.0625 30.1675 -8.0625 56.8975 -8.0625 84.4375 C4.43132886 85.1836783 4.43132886 85.1836783 14.9375 81.4375 C22.16208232 74.08303755 23.25116573 66.57841838 23.2734375 56.6328125 C23.2800943 55.59486542 23.2867511 54.55691833 23.29360962 53.48751831 C23.30371047 51.29719814 23.30842744 49.10684735 23.30810547 46.91650391 C23.31247637 43.58053465 23.34881826 40.24589155 23.38671875 36.91015625 C23.39258802 34.77604616 23.39655667 32.64192983 23.3984375 30.5078125 C23.41280853 29.5179837 23.42717957 28.52815491 23.44198608 27.5083313 C23.39369675 20.12338267 21.85523214 14.75983952 16.9375 9.16015625 C16.2775 8.61230469 15.6175 8.06445312 14.9375 7.5 C14.2775 6.93410156 13.6175 6.36820313 12.9375 5.78515625 C6.74386578 1.61171131 -0.85904997 3.4375 -8.0625 3.4375 Z " fill="#171717" transform="translate(1584.0625,697.5625)"/>
<path d="M0 0 C0.9796875 0.00322266 1.959375 0.00644531 2.96875 0.00976562 C3.98453125 0.01814453 5.0003125 0.02652344 6.046875 0.03515625 C7.59375 0.04192383 7.59375 0.04192383 9.171875 0.04882812 C11.71360073 0.06059537 14.25520819 0.07703614 16.796875 0.09765625 C16.466875 1.41765625 16.136875 2.73765625 15.796875 4.09765625 C15.1263208 4.10700195 14.4557666 4.11634766 13.76489258 4.12597656 C10.71231933 4.17982221 7.66125518 4.2634412 4.609375 4.34765625 C3.55427734 4.36183594 2.49917969 4.37601563 1.41210938 4.390625 C-4.61577243 4.57401134 -4.61577243 4.57401134 -10.19140625 6.64453125 C-16.13926385 13.89745275 -16.80176808 20.09468094 -16.734375 29.19140625 C-16.7382019 30.33750366 -16.74202881 31.48360107 -16.74597168 32.66442871 C-16.74868352 35.07821536 -16.74137363 37.49203176 -16.72460938 39.90576172 C-16.70319119 43.58628273 -16.72443783 47.26485172 -16.75 50.9453125 C-16.7473566 53.29818136 -16.74223136 55.65104902 -16.734375 58.00390625 C-16.74652039 59.64329163 -16.74652039 59.64329163 -16.75891113 61.3157959 C-16.68213495 67.61610329 -16.1395788 72.96281998 -12.203125 78.09765625 C-4.50003765 84.25595407 4.05853129 83.44843334 13.796875 84.09765625 C13.796875 69.90765625 13.796875 55.71765625 13.796875 41.09765625 C10.496875 41.09765625 7.196875 41.09765625 3.796875 41.09765625 C3.796875 39.77765625 3.796875 38.45765625 3.796875 37.09765625 C5.94264137 37.07079687 8.08850145 37.05132537 10.234375 37.03515625 C11.42933594 37.02355469 12.62429688 37.01195312 13.85546875 37 C16.796875 37.09765625 16.796875 37.09765625 17.796875 38.09765625 C17.89518646 39.59635673 17.92485956 41.09964164 17.92626953 42.6015625 C17.92942169 43.55925537 17.93257385 44.51694824 17.93582153 45.50366211 C17.9337973 46.54530518 17.93177307 47.58694824 17.9296875 48.66015625 C17.93064423 49.72177979 17.93160095 50.78340332 17.93258667 51.87719727 C17.93326864 54.12679097 17.93141319 56.37638662 17.92724609 58.62597656 C17.9218981 62.08272696 17.92719054 65.53934742 17.93359375 68.99609375 C17.93293297 71.17578154 17.93165182 73.35546925 17.9296875 75.53515625 C17.93171173 76.57679932 17.93373596 77.61844238 17.93582153 78.69165039 C17.93109329 80.1281897 17.93109329 80.1281897 17.92626953 81.59375 C17.92547394 82.44122803 17.92467834 83.28870605 17.92385864 84.16186523 C17.796875 86.09765625 17.796875 86.09765625 16.796875 87.09765625 C13.11809263 87.4080388 9.42462196 87.37625931 5.734375 87.41015625 C4.19620117 87.45366211 4.19620117 87.45366211 2.62695312 87.49804688 C-3.84669842 87.55189043 -8.87404764 86.98093175 -14.203125 83.09765625 C-16.0078125 81.1328125 -16.0078125 81.1328125 -17.078125 79.16015625 C-17.44679688 78.51175781 -17.81546875 77.86335937 -18.1953125 77.1953125 C-20.22306602 72.97475576 -21.45328865 69.57670756 -21.52539062 64.85522461 C-21.54460571 63.83323471 -21.5638208 62.81124481 -21.58361816 61.75828552 C-21.59211792 60.6624263 -21.60061768 59.56656708 -21.609375 58.4375 C-21.62077515 57.29664444 -21.63217529 56.15578888 -21.6439209 54.98036194 C-21.66279805 52.56547743 -21.67587981 50.15054167 -21.68359375 47.7355957 C-21.70292979 44.07214202 -21.76495838 40.41097047 -21.828125 36.74804688 C-21.84119428 34.39454449 -21.8516916 32.04102614 -21.859375 29.6875 C-21.8840686 28.60581039 -21.90876221 27.52412079 -21.9342041 26.40965271 C-21.88591605 18.01016427 -19.71581649 9.66199283 -13.62316895 3.49961853 C-9.33368791 0.47496166 -5.10817867 -0.02969871 0 0 Z " fill="#171717" transform="translate(1650.203125,697.90234375)"/>
<path d="M0 0 C3.69683573 0.91520105 4.96282953 3.40355326 7.00390625 6.49609375 C9.10030988 10.688901 8.27762896 16.13935131 8.31640625 20.74609375 C8.34541016 21.87917969 8.37441406 23.01226562 8.40429688 24.1796875 C8.45299375 30.57021615 8.45285666 34.71848214 4.00390625 39.49609375 C0.49137479 41.83778139 -0.86078731 41.99233052 -4.99609375 41.49609375 C-8.4649085 39.52517628 -9.74064579 38.19390282 -11.1171875 34.43359375 C-12.27987826 29.99049536 -12.32674265 25.62848797 -12.30859375 21.05859375 C-12.32470703 20.25099609 -12.34082031 19.44339844 -12.35742188 18.61132812 C-12.36234564 12.50094008 -11.60973997 6.73750229 -7.6340332 1.80688477 C-5.27240082 -0.08305476 -2.94817191 -0.09230004 0 0 Z " fill="#141414" transform="translate(1178.99609375,19.50390625)"/>
<path d="M0 0 C10.56 0 21.12 0 32 0 C31.67 1.32 31.34 2.64 31 4 C22.09 4 13.18 4 4 4 C4 14.89 4 25.78 4 37 C10.6 37 17.2 37 24 37 C24 38.32 24 39.64 24 41 C17.4 41 10.8 41 4 41 C4 54.86 4 68.72 4 83 C12.91 83 21.82 83 31 83 C31.33 84.32 31.66 85.64 32 87 C27.60343827 87.02465504 23.2069128 87.04283842 18.81030273 87.05493164 C17.31355082 87.05997121 15.81680384 87.06680287 14.32006836 87.07543945 C12.17300193 87.08752159 10.02600038 87.09323191 7.87890625 87.09765625 C5.93866577 87.10551147 5.93866577 87.10551147 3.95922852 87.11352539 C1 87 1 87 0 86 C-0.09512944 83.32212027 -0.12555279 80.67011131 -0.11352539 77.99194336 C-0.11367142 77.15299026 -0.11381744 76.31403717 -0.1139679 75.44966125 C-0.1132685 72.66302956 -0.10547485 69.87646384 -0.09765625 67.08984375 C-0.09579217 65.16313209 -0.09436822 63.23641995 -0.09336853 61.30970764 C-0.08954259 56.22812603 -0.07971166 51.1465728 -0.06866455 46.06500244 C-0.05845206 40.88383366 -0.05387126 35.70266031 -0.04882812 30.52148438 C-0.03808946 20.34764174 -0.02049205 10.17382767 0 0 Z " fill="#151515" transform="translate(1230,698)"/>
<path d="M0 0 C10.23 0 20.46 0 31 0 C30.67 1.32 30.34 2.64 30 4 C21.42 4 12.84 4 4 4 C4 14.89 4 25.78 4 37 C10.6 37 17.2 37 24 37 C24 38.32 24 39.64 24 41 C17.4 41 10.8 41 4 41 C4 54.86 4 68.72 4 83 C12.91 83 21.82 83 31 83 C31 84.32 31 85.64 31 87 C20.77 87 10.54 87 0 87 C0 58.29 0 29.58 0 0 Z " fill="#1C1C1C" transform="translate(1524,698)"/>
<path d="M0 0 C1.25159912 0.00523682 2.50319824 0.01047363 3.79272461 0.01586914 C4.78942421 0.01799156 4.78942421 0.01799156 5.80625916 0.02015686 C7.93590735 0.02577021 10.06545175 0.03832485 12.19506836 0.05102539 C13.63582205 0.05603868 15.07657739 0.06060188 16.51733398 0.06469727 C20.05577938 0.07574394 23.59416375 0.09301747 27.13256836 0.11352539 C26.80256836 1.43352539 26.47256836 2.75352539 26.13256836 4.11352539 C17.55256836 4.11352539 8.97256836 4.11352539 0.13256836 4.11352539 C0.13256836 15.00352539 0.13256836 25.89352539 0.13256836 37.11352539 C6.73256836 37.11352539 13.33256836 37.11352539 20.13256836 37.11352539 C20.13256836 38.43352539 20.13256836 39.75352539 20.13256836 41.11352539 C13.53256836 41.11352539 6.93256836 41.11352539 0.13256836 41.11352539 C0.13256836 54.97352539 0.13256836 68.83352539 0.13256836 83.11352539 C8.71256836 83.11352539 17.29256836 83.11352539 26.13256836 83.11352539 C26.46256836 84.43352539 26.79256836 85.75352539 27.13256836 87.11352539 C22.87842213 87.13818161 18.62431338 87.15636438 14.37011719 87.16845703 C12.92186763 87.1734964 11.47362319 87.18032792 10.02539062 87.18896484 C7.94782248 87.20104786 5.87032139 87.2067575 3.79272461 87.21118164 C2.54112549 87.21641846 1.28952637 87.22165527 0 87.22705078 C-2.86743164 87.11352539 -2.86743164 87.11352539 -3.86743164 86.11352539 C-3.96786435 83.47152478 -4.00360014 80.85563949 -3.99682617 78.21313477 C-3.99857849 77.38554153 -4.00033081 76.5579483 -4.00213623 75.70527649 C-4.00655557 72.95592177 -4.00361647 70.20663082 -4.00024414 67.45727539 C-4.00091716 65.55537911 -4.00188716 63.6534829 -4.00314331 61.75158691 C-4.00462039 57.76008284 -4.00246539 53.7686011 -3.99780273 49.77709961 C-3.99210544 44.64862032 -3.99538439 39.52019337 -4.0013752 34.391716 C-4.00498053 30.46278485 -4.00384236 26.53386621 -4.00124741 22.60493469 C-4.00057806 20.71340428 -4.00140683 18.82187274 -4.00372696 16.93034363 C-4.00625302 14.29150362 -4.00241355 11.65274958 -3.99682617 9.01391602 C-3.9988504 8.22426956 -4.00087463 7.43462311 -4.00296021 6.62104797 C-3.97747382 0.15747342 -3.97747382 0.15747342 0 0 Z " fill="#151515" transform="translate(1394.867431640625,697.886474609375)"/>
<path d="M0 0 C1.29349365 0.00523682 2.5869873 0.01047363 3.91967773 0.01586914 C4.9496714 0.01799156 4.9496714 0.01799156 6.00047302 0.02015686 C8.20144949 0.0257706 10.40232557 0.03832532 12.60327148 0.05102539 C14.09220231 0.05603863 15.58113473 0.06060184 17.07006836 0.06469727 C20.72700223 0.07574446 24.38387707 0.09301826 28.04077148 0.11352539 C28.04077148 1.10352539 28.04077148 2.09352539 28.04077148 3.11352539 C18.80077148 3.11352539 9.56077148 3.11352539 0.04077148 3.11352539 C0.04077148 14.33352539 0.04077148 25.55352539 0.04077148 37.11352539 C6.97077148 37.11352539 13.90077148 37.11352539 21.04077148 37.11352539 C21.04077148 38.43352539 21.04077148 39.75352539 21.04077148 41.11352539 C14.11077148 41.11352539 7.18077148 41.11352539 0.04077148 41.11352539 C0.04077148 55.30352539 0.04077148 69.49352539 0.04077148 84.11352539 C9.28077148 84.11352539 18.52077148 84.11352539 28.04077148 84.11352539 C28.04077148 85.10352539 28.04077148 86.09352539 28.04077148 87.11352539 C23.64420976 87.13818043 19.24768428 87.15636381 14.85107422 87.16845703 C13.3543223 87.1734966 11.85757533 87.18032826 10.36083984 87.18896484 C8.21377341 87.20104698 6.06677186 87.2067573 3.91967773 87.21118164 C1.97943726 87.21903687 1.97943726 87.21903687 0 87.22705078 C-2.95922852 87.11352539 -2.95922852 87.11352539 -3.95922852 86.11352539 C-4.05966123 83.47152478 -4.09539701 80.85563949 -4.08862305 78.21313477 C-4.09037537 77.38554153 -4.09212769 76.5579483 -4.09393311 75.70527649 C-4.09835245 72.95592177 -4.09541335 70.20663082 -4.09204102 67.45727539 C-4.09271403 65.55537911 -4.09368404 63.6534829 -4.09494019 61.75158691 C-4.09641727 57.76008284 -4.09426226 53.7686011 -4.08959961 49.77709961 C-4.08390232 44.64862032 -4.08718127 39.52019337 -4.09317207 34.391716 C-4.0967774 30.46278485 -4.09563923 26.53386621 -4.09304428 22.60493469 C-4.09237493 20.71340428 -4.0932037 18.82187274 -4.09552383 16.93034363 C-4.0980499 14.29150362 -4.09421043 11.65274958 -4.08862305 9.01391602 C-4.09064728 8.22426956 -4.09267151 7.43462311 -4.09475708 6.62104797 C-4.06926532 0.15610992 -4.06926532 0.15610992 0 0 Z " fill="#141414" transform="translate(1687.959228515625,697.886474609375)"/>
<path d="M0 0 C44.22 0 88.44 0 134 0 C134 1.32 134 2.64 134 4 C89.78 4 45.56 4 0 4 C0 2.68 0 1.36 0 0 Z " fill="#101010" transform="translate(2037,880)"/>
<path d="M0 0 C44.22 0 88.44 0 134 0 C134 1.32 134 2.64 134 4 C89.78 4 45.56 4 0 4 C0 2.68 0 1.36 0 0 Z " fill="#101010" transform="translate(1444,880)"/>
<path d="M0 0 C44.22 0 88.44 0 134 0 C134 1.32 134 2.64 134 4 C89.78 4 45.56 4 0 4 C0 2.68 0 1.36 0 0 Z " fill="#101010" transform="translate(851,880)"/>
<path d="M0 0 C44.22 0 88.44 0 134 0 C134 1.32 134 2.64 134 4 C89.78 4 45.56 4 0 4 C0 2.68 0 1.36 0 0 Z " fill="#101010" transform="translate(258,880)"/>
<path d="M0 0 C44.22 0 88.44 0 134 0 C134 1.32 134 2.64 134 4 C89.78 4 45.56 4 0 4 C0 2.68 0 1.36 0 0 Z " fill="#101010" transform="translate(2037,315)"/>
<path d="M0 0 C44.22 0 88.44 0 134 0 C134 1.32 134 2.64 134 4 C89.78 4 45.56 4 0 4 C0 2.68 0 1.36 0 0 Z " fill="#101010" transform="translate(1444,315)"/>
<path d="M0 0 C44.22 0 88.44 0 134 0 C134 1.32 134 2.64 134 4 C89.78 4 45.56 4 0 4 C0 2.68 0 1.36 0 0 Z " fill="#101010" transform="translate(851,315)"/>
<path d="M0 0 C44.22 0 88.44 0 134 0 C134 1.32 134 2.64 134 4 C89.78 4 45.56 4 0 4 C0 2.68 0 1.36 0 0 Z " fill="#101010" transform="translate(2630,880)"/>
<path d="M0 0 C44.22 0 88.44 0 134 0 C134 1.32 134 2.64 134 4 C89.78 4 45.56 4 0 4 C0 2.68 0 1.36 0 0 Z " fill="#101010" transform="translate(2433,880)"/>
<path d="M0 0 C44.22 0 88.44 0 134 0 C134 1.32 134 2.64 134 4 C89.78 4 45.56 4 0 4 C0 2.68 0 1.36 0 0 Z " fill="#101010" transform="translate(2235,880)"/>
<path d="M0 0 C43.89 0 87.78 0 133 0 C133.33 1.32 133.66 2.64 134 4 C89.45 4 44.9 4 -1 4 C-0.67 2.68 -0.34 1.36 0 0 Z " fill="#101010" transform="translate(1642,880)"/>
<path d="M0 0 C43.89 0 87.78 0 133 0 C133.33 1.32 133.66 2.64 134 4 C89.45 4 44.9 4 -1 4 C-0.67 2.68 -0.34 1.36 0 0 Z " fill="#101010" transform="translate(1247,880)"/>
<path d="M0 0 C44.22 0 88.44 0 134 0 C134 1.32 134 2.64 134 4 C89.78 4 45.56 4 0 4 C0 2.68 0 1.36 0 0 Z " fill="#101010" transform="translate(455,880)"/>
<path d="M0 0 C44.22 0 88.44 0 134 0 C134 1.32 134 2.64 134 4 C89.78 4 45.56 4 0 4 C0 2.68 0 1.36 0 0 Z " fill="#101010" transform="translate(2433,315)"/>
<path d="M0 0 C44.22 0 88.44 0 134 0 C134 1.32 134 2.64 134 4 C89.78 4 45.56 4 0 4 C0 2.68 0 1.36 0 0 Z " fill="#101010" transform="translate(2235,315)"/>
<path d="M0 0 C44.22 0 88.44 0 134 0 C134 1.32 134 2.64 134 4 C89.78 4 45.56 4 0 4 C0 2.68 0 1.36 0 0 Z " fill="#101010" transform="translate(1840,315)"/>
<path d="M0 0 C43.89 0 87.78 0 133 0 C133.33 1.32 133.66 2.64 134 4 C89.45 4 44.9 4 -1 4 C-0.67 2.68 -0.34 1.36 0 0 Z " fill="#101010" transform="translate(1247,315)"/>
<path d="M0 0 C44.22 0 88.44 0 134 0 C134 1.32 134 2.64 134 4 C89.78 4 45.56 4 0 4 C0 2.68 0 1.36 0 0 Z " fill="#101010" transform="translate(1048,315)"/>
<path d="M0 0 C44.22 0 88.44 0 134 0 C134 1.32 134 2.64 134 4 C89.78 4 45.56 4 0 4 C0 2.68 0 1.36 0 0 Z " fill="#101010" transform="translate(455,315)"/>
<path d="M0 0 C43.89 0 87.78 0 133 0 C133.33 1.32 133.66 2.64 134 4 C89.78 4 45.56 4 0 4 C0 2.68 0 1.36 0 0 Z " fill="#0F0F0F" transform="translate(1840,880)"/>
<path d="M0 0 C43.89 0 87.78 0 133 0 C133 1.32 133 2.64 133 4 C88.78 4 44.56 4 -1 4 C-0.67 2.68 -0.34 1.36 0 0 Z " fill="#0F0F0F" transform="translate(1049,880)"/>
<path d="M0 0 C43.89 0 87.78 0 133 0 C133 1.32 133 2.64 133 4 C88.78 4 44.56 4 -1 4 C-0.67 2.68 -0.34 1.36 0 0 Z " fill="#0F0F0F" transform="translate(1642,315)"/>
<path d="M0 0 C43.89 0 87.78 0 133 0 C133 1.32 133 2.64 133 4 C88.78 4 44.56 4 -1 4 C-0.67 2.68 -0.34 1.36 0 0 Z " fill="#101010" transform="translate(654,880)"/>
<path d="M0 0 C43.89 0 87.78 0 133 0 C133 1.32 133 2.64 133 4 C88.78 4 44.56 4 -1 4 C-0.67 2.68 -0.34 1.36 0 0 Z " fill="#101010" transform="translate(654,315)"/>
<path d="M0 0 C1.20366211 0.00483398 1.20366211 0.00483398 2.43164062 0.00976562 C3.68170898 0.02233398 3.68170898 0.02233398 4.95703125 0.03515625 C6.22450195 0.04192383 6.22450195 0.04192383 7.51757812 0.04882812 C9.6015928 0.06060222 11.68557102 0.07853735 13.76953125 0.09765625 C13.43953125 1.41765625 13.10953125 2.73765625 12.76953125 4.09765625 C11.58875 4.14664063 10.40796875 4.195625 9.19140625 4.24609375 C7.63409188 4.32114504 6.07680134 4.39669186 4.51953125 4.47265625 C3.74222656 4.50359375 2.96492188 4.53453125 2.1640625 4.56640625 C-3.36113516 4.74291721 -3.36113516 4.74291721 -8.23046875 7.09765625 C-9.52321618 8.85059993 -9.52321618 8.85059993 -10.41796875 10.91015625 C-10.74152344 11.57660156 -11.06507812 12.24304688 -11.3984375 12.9296875 C-12.9010324 16.84489955 -13.35584213 20.66445267 -13.39160156 24.83691406 C-13.40601288 26.20423676 -13.40601288 26.20423676 -13.42071533 27.59918213 C-13.42496521 28.57320984 -13.42921509 29.54723755 -13.43359375 30.55078125 C-13.43929382 31.56557556 -13.4449939 32.58036987 -13.4508667 33.62591553 C-13.46029839 35.77094486 -13.46684339 37.91598856 -13.47070312 40.06103516 C-13.48039311 43.32220106 -13.511428 46.58273226 -13.54296875 49.84375 C-13.54950113 51.93359003 -13.55475068 54.02343454 -13.55859375 56.11328125 C-13.57094055 57.07921204 -13.58328735 58.04514282 -13.5960083 59.04034424 C-13.57128777 66.65277508 -12.08609489 73.46237757 -8.23046875 80.09765625 C-5.20932535 82.11175185 -4.42386858 82.36602221 -1 82.51171875 C-0.19755859 82.55039062 0.60488281 82.5890625 1.43164062 82.62890625 C2.26501953 82.65984375 3.09839844 82.69078125 3.95703125 82.72265625 C4.80201172 82.76132812 5.64699219 82.8 6.51757812 82.83984375 C8.60120649 82.93401904 10.68533878 83.016923 12.76953125 83.09765625 C13.09953125 84.41765625 13.42953125 85.73765625 13.76953125 87.09765625 C10.58274189 87.27357244 7.39721485 87.37902403 4.20703125 87.47265625 C3.31177734 87.52292969 2.41652344 87.57320312 1.49414062 87.625 C-3.34457553 87.73134541 -6.42735024 87.4786464 -10.234375 84.328125 C-12.46848807 82.09368197 -14.30437918 79.94171874 -15.60546875 77.03515625 C-15.90195313 76.40480469 -16.1984375 75.77445313 -16.50390625 75.125 C-17.93084476 71.14338126 -18.36138628 67.24798273 -18.43920898 63.03881836 C-18.4584996 62.05686996 -18.47779022 61.07492157 -18.49766541 60.06321716 C-18.55597836 55.57221706 -18.6047039 51.08136687 -18.63549805 46.59008789 C-18.65703207 44.23251659 -18.69107959 41.87502424 -18.73803711 39.51782227 C-19.25334546 13.37280032 -19.25334546 13.37280032 -12.23046875 5.09765625 C-8.21480883 1.54613544 -5.36567493 -0.03805443 0 0 Z " fill="#151515" transform="translate(1199.23046875,697.90234375)"/>
<path d="M0 0 C12.54 0 25.08 0 38 0 C38 0.99 38 1.98 38 3 C32.39 3 26.78 3 21 3 C21 30.72 21 58.44 21 87 C19.68 86.67 18.36 86.34 17 86 C17 58.61 17 31.22 17 3 C11.39 3 5.78 3 0 3 C0 2.01 0 1.02 0 0 Z " fill="#181818" transform="translate(1335,698)"/>
<path d="M0 0 C0.99 0 1.98 0 3 0 C6.63 8.58 10.26 17.16 14 26 C14.33 17.42 14.66 8.84 15 0 C16.32 0 17.64 0 19 0 C19 13.53 19 27.06 19 41 C17.68 41 16.36 41 15 41 C11.37 32.09 7.74 23.18 4 14 C3.67 22.91 3.34 31.82 3 41 C1.68 40.67 0.36 40.34 -1 40 C-1.02464775 34.46411467 -1.04283496 28.928261 -1.05493164 23.39233398 C-1.05997244 21.5075627 -1.06680498 19.62279535 -1.07543945 17.73803711 C-1.08751617 15.03498364 -1.09323068 12.33198169 -1.09765625 9.62890625 C-1.10281754 8.78099014 -1.10797882 7.93307404 -1.11329651 7.0594635 C-1.11349195 5.03928932 -1.06206211 3.01922066 -1 1 C-0.67 0.67 -0.34 0.34 0 0 Z " fill="#151515" transform="translate(1300,20)"/>
<path d="M0 0 C1.32 0.33 2.64 0.66 4 1 C5.44916874 6.46407886 6.89008029 11.9302189 8.31982422 17.39941406 C8.75497852 19.06318422 9.19138211 20.72662844 9.62939453 22.38964844 C10.19676217 24.54984819 10.75586418 26.71201366 11.3125 28.875 C11.80169922 30.75832031 11.80169922 30.75832031 12.30078125 32.6796875 C12.91323591 35.58799177 13.1516274 38.04607356 13 41 C11.68 40.67 10.36 40.34 9 40 C8.34 37.03 7.68 34.06 7 31 C3.37 31 -0.26 31 -4 31 C-4.66 34.3 -5.32 37.6 -6 41 C-6.99 41 -7.98 41 -9 41 C-9.18196218 35.86568204 -8.57678846 31.32886108 -7.28515625 26.38671875 C-7.10995956 25.69109329 -6.93476288 24.99546783 -6.7542572 24.27876282 C-6.38568345 22.82149812 -6.01319839 21.36521753 -5.63696289 19.90991211 C-5.0601275 17.67832155 -4.4948725 15.44404316 -3.93164062 13.20898438 C-3.5709741 11.78889431 -3.20966875 10.3689663 -2.84765625 8.94921875 C-2.6778273 8.28153976 -2.50799835 7.61386078 -2.33302307 6.9259491 C-1.1178986 2.23579721 -1.1178986 2.23579721 0 0 Z " fill="#121212" transform="translate(1224,20)"/>
<path d="M0 0 C44.55 0 89.1 0 135 0 C135 0.99 135 1.98 135 3 C90.45 3 45.9 3 0 3 C0 2.01 0 1.02 0 0 Z " fill="#000000" transform="translate(1971,597)"/>
<path d="M0 0 C44.55 0 89.1 0 135 0 C135 0.99 135 1.98 135 3 C90.45 3 45.9 3 0 3 C0 2.01 0 1.02 0 0 Z " fill="#000000" transform="translate(916,596)"/>
<path d="M0 0 C2.701875 -0.103125 5.40375 -0.20625 8.1875 -0.3125 C9.02949951 -0.35802002 9.87149902 -0.40354004 10.73901367 -0.45043945 C14.95195413 -0.52805811 16.54273667 -0.35684472 19.98828125 2.33203125 C22.71927819 5.95391651 23.12436769 8.47933058 23.09765625 12.88671875 C23.09443359 13.82451172 23.09121094 14.76230469 23.08789062 15.72851562 C23.07951172 16.70498047 23.07113281 17.68144531 23.0625 18.6875 C23.05798828 19.67556641 23.05347656 20.66363281 23.04882812 21.68164062 C23.03704303 24.12115474 23.02059011 26.56054689 23 29 C21.68 29 20.36 29 19 29 C18.98018066 28.37955811 18.96036133 27.75911621 18.93994141 27.11987305 C18.84468155 24.30865463 18.73500698 21.49817834 18.625 18.6875 C18.5940625 17.71103516 18.563125 16.73457031 18.53125 15.72851562 C18.49257812 14.79072266 18.45390625 13.85292969 18.4140625 12.88671875 C18.3826416 12.02264404 18.3512207 11.15856934 18.31884766 10.26831055 C18.12811963 7.72257555 18.12811963 7.72257555 16 5 C15.01 4.67 14.02 4.34 13 4 C13 12.25 13 20.5 13 29 C11.68 29 10.36 29 9 29 C9 20.75 9 12.5 9 4 C7.35 4 5.7 4 4 4 C4 11.92 4 19.84 4 28 C2.68 28.33 1.36 28.66 0 29 C0 19.43 0 9.86 0 0 Z " fill="#131313" transform="translate(1831,32)"/>
<path d="M0 0 C0.72509766 -0.01224609 1.45019531 -0.02449219 2.19726562 -0.03710938 C9.10909877 -0.05608055 9.10909877 -0.05608055 12.1875 2.1875 C14.45348448 5.58647673 14.42492654 6.75069173 14.3828125 10.73046875 C14.37636719 11.80361328 14.36992188 12.87675781 14.36328125 13.98242188 C14.34652344 15.10197266 14.32976562 16.22152344 14.3125 17.375 C14.30347656 18.50615234 14.29445313 19.63730469 14.28515625 20.80273438 C14.26156862 23.59786828 14.228653 26.39257845 14.1875 29.1875 C12.8675 28.8575 11.5475 28.5275 10.1875 28.1875 C9.8575 20.9275 9.5275 13.6675 9.1875 6.1875 C7.8675 5.5275 6.5475 4.8675 5.1875 4.1875 C5.1875 12.1075 5.1875 20.0275 5.1875 28.1875 C3.8675 28.5175 2.5475 28.8475 1.1875 29.1875 C1.1875 20.9375 1.1875 12.6875 1.1875 4.1875 C-0.7925 4.1875 -2.7725 4.1875 -4.8125 4.1875 C-4.8125 12.4375 -4.8125 20.6875 -4.8125 29.1875 C-6.1325 28.8575 -7.4525 28.5275 -8.8125 28.1875 C-8.84136338 23.70834672 -8.85925187 19.22921709 -8.875 14.75 C-8.88337891 13.47060547 -8.89175781 12.19121094 -8.90039062 10.87304688 C-8.90361328 9.65810547 -8.90683594 8.44316406 -8.91015625 7.19140625 C-8.91539307 6.06549072 -8.92062988 4.9395752 -8.92602539 3.77954102 C-8.69174903 -1.56951737 -4.27671313 0.00374166 0 0 Z " fill="#131313" transform="translate(1810.8125,31.8125)"/>
<path d="M0 0 C1.32 0 2.64 0 4 0 C4 5.61 4 11.22 4 17 C7.96 17 11.92 17 16 17 C16 11.39 16 5.78 16 0 C17.32 0.33 18.64 0.66 20 1 C20 13.87 20 26.74 20 40 C18.02 40.495 18.02 40.495 16 41 C16 34.07 16 27.14 16 20 C12.04 20 8.08 20 4 20 C4 26.93 4 33.86 4 41 C2.68 41 1.36 41 0 41 C0 27.47 0 13.94 0 0 Z " fill="#151515" transform="translate(1375,20)"/>
<path d="M0 0 C4.25874501 4.67447965 3.40457724 10.63640878 3.3125 16.5625 C3.31572266 17.60341797 3.31894531 18.64433594 3.32226562 19.71679688 C3.25872024 28.69980302 3.25872024 28.69980302 1 32 C-2.125 32.75 -2.125 32.75 -5 33 C-9.26472624 27.62273648 -9.18251939 23.28681407 -9.1875 16.6875 C-9.19974609 15.84509766 -9.21199219 15.00269531 -9.22460938 14.13476562 C-9.23574179 9.38864462 -8.99625246 5.40576419 -7 1 C-4.39722303 -0.30138849 -2.88185107 -0.4217343 0 0 Z " fill="#F8F8F8" transform="translate(1180,24)"/>
<path d="M0 0 C0 0.99 0 1.98 0 3 C-0.74765625 3.01417969 -1.4953125 3.02835938 -2.265625 3.04296875 C-3.74289062 3.11451172 -3.74289062 3.11451172 -5.25 3.1875 C-6.22453125 3.22230469 -7.1990625 3.25710937 -8.203125 3.29296875 C-11.10669289 3.82179971 -11.10669289 3.82179971 -13.33203125 5.86328125 C-15.8141874 10.53112993 -15.54307122 14.7963604 -15.4375 20 C-15.44458984 20.98484375 -15.45167969 21.9696875 -15.45898438 22.984375 C-15.42418057 26.94665448 -15.23727787 30.29267739 -13.97265625 34.0625 C-11.4665522 36.85127981 -11.4665522 36.85127981 -4 38 C-4 32.06 -4 26.12 -4 20 C-5.32 20 -6.64 20 -8 20 C-8 19.01 -8 18.02 -8 17 C-5.36 17 -2.72 17 0 17 C0.02886984 20.97915159 0.04675406 24.95827653 0.0625 28.9375 C0.07087891 30.07380859 0.07925781 31.21011719 0.08789062 32.38085938 C0.09272461 34.00024414 0.09272461 34.00024414 0.09765625 35.65234375 C0.10551147 37.15269165 0.10551147 37.15269165 0.11352539 38.68334961 C0 41 0 41 -1 42 C-6.22373302 42.68379338 -11.02172319 42.46495072 -15.44726562 39.41723633 C-19.28534665 35.91408219 -20.15607414 30.31477726 -20.3984375 25.34375 C-20.40628799 23.72916685 -20.39832248 22.11443378 -20.375 20.5 C-20.38660156 19.69691406 -20.39820313 18.89382812 -20.41015625 18.06640625 C-20.38091111 12.05165623 -19.67293965 5.99954518 -15.50146484 1.31835938 C-11.79654056 -1.93474487 -4.24096116 -2.12048058 0 0 Z " fill="#161616" transform="translate(1344,20)"/>
<path d="M0 0 C1.48831242 0.00667405 2.97660807 0.01863442 4.46484375 0.03515625 C5.22345703 0.03966797 5.98207031 0.04417969 6.76367188 0.04882812 C8.64326246 0.06064945 10.52281274 0.07858547 12.40234375 0.09765625 C12.40234375 1.08765625 12.40234375 2.07765625 12.40234375 3.09765625 C8.11234375 3.09765625 3.82234375 3.09765625 -0.59765625 3.09765625 C-0.59765625 7.71765625 -0.59765625 12.33765625 -0.59765625 17.09765625 C2.70234375 17.09765625 6.00234375 17.09765625 9.40234375 17.09765625 C9.07234375 18.08765625 8.74234375 19.07765625 8.40234375 20.09765625 C5.43234375 20.09765625 2.46234375 20.09765625 -0.59765625 20.09765625 C-0.59765625 26.03765625 -0.59765625 31.97765625 -0.59765625 38.09765625 C3.36234375 38.09765625 7.32234375 38.09765625 11.40234375 38.09765625 C11.40234375 39.08765625 11.40234375 40.07765625 11.40234375 41.09765625 C8.92310574 41.1245072 6.44415535 41.14442172 3.96484375 41.16015625 C3.25779297 41.16853516 2.55074219 41.17691406 1.82226562 41.18554688 C0.01540816 41.19419213 -1.79153228 41.14985636 -3.59765625 41.09765625 C-5.46728343 39.22802907 -4.72651928 36.55102064 -4.73660278 34.06384277 C-4.73457855 33.21906372 -4.73255432 32.37428467 -4.73046875 31.50390625 C-4.73142548 30.64204712 -4.7323822 29.78018799 -4.73336792 28.89221191 C-4.73404975 27.06632413 -4.73219529 25.24043394 -4.72802734 23.41455078 C-4.72267911 20.60964547 -4.72797224 17.8049003 -4.734375 15 C-4.73371422 13.23046839 -4.73243306 11.46093689 -4.73046875 9.69140625 C-4.73249298 8.8466272 -4.73451721 8.00184814 -4.73660278 7.13146973 C-4.70820855 0.12780154 -4.70820855 0.12780154 0 0 Z " fill="#141414" transform="translate(1281.59765625,19.90234375)"/>
<path d="M0 0 C6.27 0 12.54 0 19 0 C19 0.99 19 1.98 19 3 C16.36 3 13.72 3 11 3 C11 15.54 11 28.08 11 41 C9.68 40.67 8.36 40.34 7 40 C7 27.79 7 15.58 7 3 C4.69 3 2.38 3 0 3 C0 2.01 0 1.02 0 0 Z " fill="#171717" transform="translate(1350,20)"/>
<path d="M0 0 C1.32 0.33 2.64 0.66 4 1 C4 13.21 4 25.42 4 38 C7.96 38 11.92 38 16 38 C16 38.99 16 39.98 16 41 C10.72 41 5.44 41 0 41 C0 27.47 0 13.94 0 0 Z " fill="#181818" transform="translate(1256,20)"/>
<path d="M0 0 C1.32 0 2.64 0 4 0 C2.45343766 7.784943 0.19377543 15.31223723 -2.20361328 22.86865234 C-2.65499166 24.30157354 -3.09889071 25.73687017 -3.53564453 27.17431641 C-4.17177784 29.26744602 -4.82927051 31.35272122 -5.4921875 33.4375 C-5.87745605 34.67371094 -6.26272461 35.90992188 -6.65966797 37.18359375 C-8 40 -8 40 -10.15673828 40.91015625 C-10.76501465 40.93980469 -11.37329102 40.96945313 -12 41 C-11.44475221 35.34254992 -10.35103835 30.3615234 -8.49609375 25 C-8.2533522 24.2788501 -8.01061066 23.5577002 -7.76051331 22.81469727 C-6.99326549 20.54065704 -6.21559502 18.27034857 -5.4375 16 C-4.91141233 14.44685051 -4.38601522 12.89346694 -3.86132812 11.33984375 C-2.5821785 7.55714528 -1.29367718 3.77775346 0 0 Z " fill="#121212" transform="translate(1205,20)"/>
<path d="M0 0 C0 2.31 0 4.62 0 7 C-6.93 6.01 -13.86 5.02 -21 4 C-20.67 3.34 -20.34 2.68 -20 2 C-13.45574304 0.46352228 -6.71692207 -0.31241498 0 0 Z " fill="#E1E1E1" transform="translate(337,210)"/>
<path d="M0 0 C2.31 0 4.62 0 7 0 C6.29411026 7.05889737 5.21786614 14.01204964 4 21 C3.34 20.67 2.68 20.34 2 20 C1.51835976 17.56206793 1.15781367 15.21186982 0.875 12.75 C0.78863281 12.08097656 0.70226562 11.41195312 0.61328125 10.72265625 C0.16857081 7.12967823 -0.09820698 3.61962856 0 0 Z " fill="#E5E5E5" transform="translate(24,563)"/>
<path d="M0 0 C14.78132118 0.77904328 14.78132118 0.77904328 21 3 C21 3.33 21 3.66 21 4 C18.81347261 4.33965474 16.62571975 4.67142477 14.4375 5 C12.61025391 5.2784375 12.61025391 5.2784375 10.74609375 5.5625 C7.12372152 5.98555077 3.64287954 6.07501425 0 6 C0 4.02 0 2.04 0 0 Z " fill="#E5E5E5" transform="translate(2685,210)"/>
<path d="M0 0 C2.43818936 3.65728405 2.6716692 6.93287895 3.125 11.1875 C3.21136719 11.93708984 3.29773438 12.68667969 3.38671875 13.45898438 C3.59838382 15.30517412 3.80015464 17.15249344 4 19 C1.69 19 -0.62 19 -3 19 C-2.69277348 16.02020106 -2.37948528 13.04126241 -2.0625 10.0625 C-1.97548828 9.21236328 -1.88847656 8.36222656 -1.79882812 7.48632812 C-1.71181641 6.67744141 -1.62480469 5.86855469 -1.53515625 5.03515625 C-1.456604 4.2862915 -1.37805176 3.53742676 -1.29711914 2.76586914 C-1 1 -1 1 0 0 Z " fill="#E5E5E5" transform="translate(27,284)"/>
<path d="M0 0 C2.53605069 2.53605069 2.79250373 4.46876556 3.625 7.9375 C3.88539062 8.99839844 4.14578125 10.05929688 4.4140625 11.15234375 C5 14 5 14 5 17 C2.36 17 -0.28 17 -3 17 C-2.48517081 11.147205 -1.54642808 5.6702363 0 0 Z " fill="#E8E8E8" transform="translate(1225,30)"/>
<path d="M0 0 C0 1.98 0 3.96 0 6 C-7.16562789 6.28100502 -13.94546999 5.20443195 -21 4 C-16.28048534 -0.71951466 -6.43854699 -0.29266123 0 0 Z " fill="#EBEBEB" transform="translate(2751,210)"/>
<path d="M0 0 C6.03748977 0.80499864 12.01270113 1.88482498 18 3 C18 3.66 18 4.32 18 5 C11.88019467 6.40454548 6.28260706 7.23268915 0 7 C0 4.69 0 2.38 0 0 Z " fill="#E9E9E9" transform="translate(271,208)"/>
<path d="M0 0 C3.86455954 0.84903202 7.53808048 2.21579749 11.25 3.5625 C11.8996875 3.79646484 12.549375 4.03042969 13.21875 4.27148438 C14.81312378 4.84592787 16.40664767 5.4227293 18 6 C18 7.32 18 8.64 18 10 C10.88387799 9.39437259 4.93720437 6.95813624 -1 3 C-0.67 2.01 -0.34 1.02 0 0 Z " fill="#191919" transform="translate(279,636)"/>
<path d="M0 0 C2.83281345 1.07533219 5.60225129 2.128288 8 4 C8.71875 6.1328125 8.71875 6.1328125 9 8 C4.76057446 7.27185439 0.81346291 6.02765979 -3.25 4.625 C-4.49265625 4.20476563 -5.7353125 3.78453125 -7.015625 3.3515625 C-8.00046875 2.90554688 -8.9853125 2.45953125 -10 2 C-10.33 1.01 -10.66 0.02 -11 -1 C-7.44600513 -2.77699743 -3.66658081 -1.0883343 0 0 Z " fill="#141414" transform="translate(2735,551)"/>
<path d="M0 0 C6.84944119 0.59560358 12.86876215 2.93438108 19 6 C19 6.99 19 7.98 19 9 C14.54856736 8.35731596 10.41118353 7.29333357 6.125 5.9375 C4.97257812 5.57527344 3.82015625 5.21304688 2.6328125 4.83984375 C1.76398438 4.56269531 0.89515625 4.28554688 0 4 C0 2.68 0 1.36 0 0 Z " fill="#131313" transform="translate(311,547)"/>
<path d="M0 0 C0 2.31 0 4.62 0 7 C-2.25056722 6.88566637 -4.50046674 6.75813564 -6.75 6.625 C-8.00296875 6.55539063 -9.2559375 6.48578125 -10.546875 6.4140625 C-13.60998121 6.04676696 -15.41974266 5.60288714 -18 4 C-14.47436067 1.64957378 -12.05397093 1.4156061 -7.875 0.875 C-6.61429688 0.70742187 -5.35359375 0.53984375 -4.0546875 0.3671875 C-1 0 -1 0 0 0 Z " fill="#EAEAEA" transform="translate(146,208)"/>
<path d="M0 0 C0.99 0 1.98 0 3 0 C2.34055037 4.35236753 0.73618234 7.97205697 -1 12 C-1.74162079 14.31982601 -2.37513172 16.64472724 -3 19 C-3.99 19 -4.98 19 -6 19 C-6.5535024 12.63472245 -4.84929408 7.68818929 -2 2 C-1.34 1.34 -0.68 0.68 0 0 Z " fill="#151515" transform="translate(2675,573)"/>
<path d="M0 0 C6.14040005 -0.22742222 12.09858129 0.13639409 18 2 C18.33 2.66 18.66 3.32 19 4 C12.56971459 5.32388229 6.5705166 6.24794402 0 6 C0 4.02 0 2.04 0 0 Z " fill="#ECECEC" transform="translate(2876,210)"/>
<path d="M0 0 C-0.1875 1.875 -0.1875 1.875 -1 4 C-4.88644456 6.00037588 -8.48714866 6.36285749 -12.8125 6.625 C-14.55466797 6.73714844 -14.55466797 6.73714844 -16.33203125 6.8515625 C-17.65267578 6.92503906 -17.65267578 6.92503906 -19 7 C-19 5.68 -19 4.36 -19 3 C-16.58424393 2.49521515 -14.16755639 1.99602358 -11.75 1.5 C-10.72712891 1.28537109 -10.72712891 1.28537109 -9.68359375 1.06640625 C-6.35366879 0.38748951 -3.41667449 0 0 0 Z " fill="#161616" transform="translate(2736,642)"/>
<path d="M0 0 C4.28379643 0.71260094 8.25093853 2.06921736 12.3125 3.5625 C12.95767578 3.79646484 13.60285156 4.03042969 14.26757812 4.27148438 C15.84621219 4.84447007 17.42327026 5.42179464 19 6 C19 6.99 19 7.98 19 9 C12.60107793 8.59371923 6.37785852 7.78130677 1 4 C0.25 1.86328125 0.25 1.86328125 0 0 Z " fill="#141414" transform="translate(2693,639)"/>
<path d="M0 0 C0.99 0 1.98 0 3 0 C2.56699236 6.81987029 1.09212176 11.91643021 -2 18 C-3.32 18 -4.64 18 -6 18 C-4 12 -2 6 0 0 Z " fill="#121212" transform="translate(350,603)"/>
<path d="M0 0 C0 0.99 0 1.98 0 3 C-6.63633664 5.92779558 -12.86559643 6.14268807 -20 6 C-20 5.01 -20 4.02 -20 3 C-17.28849421 1.6442471 -14.68305292 1.39548374 -11.6875 0.9375 C-10.55699219 0.76089844 -9.42648437 0.58429687 -8.26171875 0.40234375 C-5.4578087 0.05647221 -2.81888956 -0.07933085 0 0 Z " fill="#141414" transform="translate(322,640)"/>
<path d="M0 0 C0.99 0.66 1.98 1.32 3 2 C2.49487476 8.22987798 -0.32604123 13.45474233 -3 19 C-4.32 19 -5.64 19 -7 19 C-6.14980005 15.16443886 -4.82255998 11.50433173 -3.5 7.8125 C-3.27441406 7.17119141 -3.04882812 6.52988281 -2.81640625 5.86914062 C-1.12211361 1.12211361 -1.12211361 1.12211361 0 0 Z " fill="#141414" transform="translate(2765,605)"/>
<path d="M0 0 C0.99 0.33 1.98 0.66 3 1 C2.15096798 4.86455954 0.78420251 8.53808048 -0.5625 12.25 C-0.79646484 12.8996875 -1.03042969 13.549375 -1.27148438 14.21875 C-1.84592787 15.81312378 -2.4227293 17.40664767 -3 19 C-3.99 19 -4.98 19 -6 19 C-6.62927547 11.60601329 -4.06592415 6.09888623 0 0 Z " fill="#111111" transform="translate(261,570)"/>
<path d="M0 0 C0 1.98 0 3.96 0 6 C-6.79839071 6.31620422 -13.30983984 5.12676382 -20 4 C-16.50247535 1.6683169 -14.14385842 1.41888142 -10 0.875 C-8.7625 0.70742187 -7.525 0.53984375 -6.25 0.3671875 C-3 0 -3 0 0 0 Z " fill="#EAEAEA" transform="translate(146,67)"/>
<path d="M0 0 C2.77217867 0.28171329 5.54230241 0.57491392 8.3125 0.875 C9.09818359 0.95363281 9.88386719 1.03226562 10.69335938 1.11328125 C11.45068359 1.19707031 12.20800781 1.28085938 12.98828125 1.3671875 C13.68477783 1.44050293 14.38127441 1.51381836 15.09887695 1.58935547 C17 2 17 2 20 4 C17.79248152 4.33868777 15.58394089 4.67071689 13.375 5 C12.14523438 5.185625 10.91546875 5.37125 9.6484375 5.5625 C6.3833973 5.95402516 3.28287549 6.08080924 0 6 C0 4.02 0 2.04 0 0 Z " fill="#ECECEC" transform="translate(2876,67)"/>
</svg>
