<?xml version="1.0" encoding="UTF-8"?>
<svg version="1.1" xmlns="http://www.w3.org/2000/svg" width="1456" height="1324">
<path d="M0 0 C480.48 0 960.96 0 1456 0 C1456 436.92 1456 873.84 1456 1324 C975.52 1324 495.04 1324 0 1324 C0 887.08 0 450.16 0 0 Z " fill="#111111" transform="translate(0,0)"/>
<path d="M0 0 C59.4 0 118.8 0 180 0 C181.64285031 1.64285031 181.24166287 3.6739435 181.375 5.9375 C181.83562461 11.35869734 182.40664328 17.13370129 185 22 C187.0327762 22.83870095 187.0327762 22.83870095 189 23 C188.41255243 17.71297189 187.55200557 12.58898869 186.40234375 7.39453125 C186 5 186 5 186 0 C191.61 0 197.22 0 203 0 C203 13.53 203 27.06 203 41 C198 36 198 36 195.875 32.6875 C195.25625 31.800625 194.6375 30.91375 194 30 C193.01 30 192.02 30 191 30 C192.21810609 38.16847612 198.29865852 45.23477794 204 51 C204.99 51.66 205.98 52.32 207 53 C208.34286747 52.70743234 209.67431113 52.36254365 211 52 C213.66963556 51.9106759 216.31227549 51.87371987 218.98144531 51.88647461 C219.7818222 51.88632858 220.5821991 51.88618256 221.40682983 51.8860321 C224.04728931 51.8867277 226.68767788 51.8945036 229.328125 51.90234375 C231.16086793 51.90420918 232.99361137 51.90563249 234.82635498 51.90663147 C239.64649842 51.91044678 244.46661165 51.92026867 249.28674316 51.93133545 C254.20678295 51.94157075 259.12682763 51.94613363 264.046875 51.95117188 C273.69792993 51.96189181 283.34896245 51.97895641 293 52 C291.78763672 52.92039062 291.78763672 52.92039062 290.55078125 53.859375 C287.97614982 56.02001516 287.347111 56.76029736 287 60 C295.33360592 58.84543293 304.66126675 51.3975323 310 45 C310 43.68 310 42.36 310 41 C308.35 41 306.7 41 305 41 C305 27.8 305 14.6 305 1 C545.24 1 785.48 1 1033 1 C1033.66 5.95 1034.32 10.9 1035 16 C1035.62264379 19.00944499 1036.2669702 22.01552153 1037 25 C1038.65 25 1040.3 25 1042 25 C1041.87882812 24.41508789 1041.75765625 23.83017578 1041.6328125 23.22753906 C1041.08447951 20.56917856 1040.54218181 17.90962157 1040 15.25 C1039.80921875 14.32960938 1039.6184375 13.40921875 1039.421875 12.4609375 C1039.24140625 11.57148437 1039.0609375 10.68203125 1038.875 9.765625 C1038.70742187 8.94868164 1038.53984375 8.13173828 1038.3671875 7.29003906 C1038 5 1038 5 1038 1 C1043.61 1 1049.22 1 1055 1 C1055 14.86 1055 28.72 1055 43 C1051.21681784 39.21681784 1049.46326463 36.57463432 1047 32 C1045.68 32.33 1044.36 32.66 1043 33 C1046.20586133 41.5539571 1051.7726122 49.34445347 1059 55 C1059.99 55 1060.98 55 1062 55 C1062.33 54.34 1062.66 53.68 1063 53 C1090.39 53 1117.78 53 1146 53 C1141 57 1141 57 1139 57 C1139 58.65 1139 60.3 1139 62 C1147.91013738 59.13602727 1156.39074876 53.67766263 1162 46 C1162 44.68 1162 43.36 1162 42 C1160.35 42.33 1158.7 42.66 1157 43 C1157 29.47 1157 15.94 1157 2 C1223.66 2 1290.32 2 1359 2 C1359 137.3 1359 272.6 1359 412 C1293.66 412.33 1228.32 412.66 1161 413 C1161 414.32 1161 415.64 1161 417 C1226.34 417.33 1291.68 417.66 1359 418 C1359 435.82 1359 453.64 1359 472 C910.53 472 462.06 472 0 472 C0 454.18 0 436.36 0 418 C98.505 417.505 98.505 417.505 199 417 C198.67 415.68 198.34 414.36 198 413 C99.99 412.505 99.99 412.505 0 412 C0 276.04 0 140.08 0 0 Z " fill="#FEFEFE" transform="translate(53,810)"/>
<path d="M0 0 C279.51 0 559.02 0 847 0 C847 132.99 847 265.98 847 403 C843.7 403.66 840.4 404.32 837 405 C834.7872178 405.52319579 832.57785772 406.06147826 830.375 406.625 C829.35148437 406.88539063 828.32796875 407.14578125 827.2734375 407.4140625 C826.52320313 407.60742188 825.77296875 407.80078125 825 408 C824.67 409.32 824.34 410.64 824 412 C827.50730744 411.46041424 830.93077798 410.77915564 834.375 409.9375 C838.6835824 408.94996413 842.59019195 408.83964334 847 409 C847.33 411.97 847.66 414.94 848 418 C849.32 418.33 850.64 418.66 852 419 C852 280.73 852 142.46 852 0 C934.83 0 1017.66 0 1103 0 C1103 20.79 1103 41.58 1103 63 C1037.66 63.33 972.32 63.66 905 64 C905 65.32 905 66.64 905 68 C1003.01 68.495 1003.01 68.495 1103 69 C1103 202.65 1103 336.3 1103 474 C1043.6 474 984.2 474 923 474 C922.34 468.72 921.68 463.44 921 458 C919.01041667 451.13541667 919.01041667 451.13541667 915.8125 450.0625 C915.214375 450.041875 914.61625 450.02125 914 450 C914.20496094 450.64324219 914.40992188 451.28648437 914.62109375 451.94921875 C916.82613341 459.34506948 917.58578217 466.29554845 918 474 C912.39 474 906.78 474 901 474 C900.95405979 468.8036521 900.91424318 463.60801034 900.89013672 458.41162109 C900.88008616 456.64434418 900.86644358 454.87708387 900.84912109 453.10986328 C900.82483115 450.56799215 900.81350745 448.02634111 900.8046875 445.484375 C900.79436493 444.69569031 900.78404236 443.90700562 900.77340698 443.09442139 C900.77262291 439.25110336 900.81335324 436.25348826 903 433 C903.58007812 434.06541016 903.58007812 434.06541016 904.171875 435.15234375 C904.69265625 436.07144531 905.2134375 436.99054688 905.75 437.9375 C906.26046875 438.85402344 906.7709375 439.77054688 907.296875 440.71484375 C908.78860295 443.14892513 908.78860295 443.14892513 911.203125 443.81640625 C911.79609375 443.87699219 912.3890625 443.93757813 913 444 C910.94806391 434.35590038 904.73023334 426.0490312 897 420 C896.01 420 895.02 420 894 420 C893.67 420.66 893.34 421.32 893 422 C865.94 422 838.88 422 811 422 C814 419 814 419 816 418 C816 416.68 816 415.36 816 414 C807.60593759 415.16501222 801.08801889 421.62009237 795.1796875 427.32421875 C793.61624331 429.20357664 793.61624331 429.20357664 794 433 C795.65 432.67 797.3 432.34 799 432 C799 445.86 799 459.72 799 474 C745.83037759 474.03074388 692.66075472 474.05091605 639.49112451 474.06185675 C636.38627616 474.06249767 633.28142782 474.06315668 630.17657948 474.06381607 C523.10676733 474.08618335 416.03765311 474.0199643 229.86103356 473.50902146 C226.86404844 473.49996691 223.86706327 473.49093135 220.87007809 473.48189783 C170.91335246 473.33119293 120.95665922 473.17131806 71 473 C70.87447754 471.980271 70.74895508 470.96054199 70.61962891 469.90991211 C70.44717943 468.55319222 70.27447721 467.19650443 70.1015625 465.83984375 C70.0197876 465.16997437 69.9380127 464.50010498 69.85375977 463.80993652 C69.17450051 458.54165328 67.90688097 453.94055523 66 449 C64.68 449 63.36 449 62 449 C62.19916016 449.88751953 62.19916016 449.88751953 62.40234375 450.79296875 C62.76795522 452.42887994 63.12976452 454.06564433 63.48828125 455.703125 C63.84120973 457.28726197 64.22189297 458.86538258 64.625 460.4375 C65.23702692 464.61968396 65.0562992 468.77755981 65 473 C59.72 473 54.44 473 49 473 C49 459.47 49 445.94 49 432 C54 437 54 437 55.625 439.3125 C56.07875 439.869375 56.5325 440.42625 57 441 C57.99 441 58.98 441 60 441 C59.65791213 435.52659402 56.31331537 432.08162039 53 428 C52.54882812 427.42507813 52.09765625 426.85015625 51.6328125 426.2578125 C49.33772426 423.392516 47.05896016 421.03930677 44 419 C42.68 419.66 41.36 420.32 40 421 C26.8 421 13.6 421 0 421 C0 282.07 0 143.14 0 0 Z " fill="#FEFEFE" transform="translate(309,332)"/>
<path d="M0 0 C480.48 0 960.96 0 1456 0 C1456 436.92 1456 873.84 1456 1324 C975.52 1324 495.04 1324 0 1324 C0 887.08 0 450.16 0 0 Z M48 72 C46.04622227 73.95377773 46.87697234 76.94063911 46.87091869 79.54149443 C46.87383153 80.49186392 46.87674437 81.44223341 46.87974548 82.42140198 C46.87889106 83.42272673 46.87803663 84.42405148 46.87715632 85.45571941 C46.87549849 88.83841727 46.88102782 92.22106642 46.88647461 95.60375977 C46.88675644 98.01766967 46.88659882 100.43157965 46.8860321 102.8454895 C46.88580379 108.05657492 46.88865513 113.26764915 46.89426994 118.47873116 C46.90238284 126.0131629 46.90499995 133.54758857 46.90625793 141.08202421 C46.90844879 153.30493037 46.91510977 165.52782988 46.92456055 177.75073242 C46.93373381 189.62703417 46.94081506 201.5033341 46.94506836 213.37963867 C46.94533108 214.11118986 46.94559381 214.84274106 46.94586449 215.59646047 C46.94716949 219.26628728 46.94843321 222.93611411 46.94967639 226.60594094 C46.96005004 257.07063206 46.97774337 287.53531511 47 318 C48.65614657 318.38218767 50.32457024 318.71395102 52 319 C53.31747011 317.907817 53.31747011 317.907817 53.12025452 315.22227478 C53.11803391 313.98095291 53.11581329 312.73963104 53.11352539 311.46069336 C53.11367142 310.77779739 53.11381744 310.09490143 53.1139679 309.39131165 C53.11326876 307.12412386 53.1054764 304.85701726 53.09765625 302.58984375 C53.09579207 301.02185613 53.09436817 299.45386793 53.09336853 297.88587952 C53.08954334 293.75123497 53.07971306 289.61662534 53.06866455 285.48199463 C53.05845044 281.26599602 53.05387091 277.04999178 53.04882812 272.83398438 C53.03809079 264.55597353 53.02101436 256.2779911 53 248 C53.69841003 248.11200745 54.39682007 248.22401489 55.11639404 248.3394165 C58.34317807 248.85675434 61.57002616 249.37369156 64.796875 249.890625 C65.89499512 250.06674316 66.99311523 250.24286133 68.12451172 250.42431641 C75.16349095 251.55159205 82.20490106 252.66162477 89.25 253.75 C90.09808228 253.88136353 90.94616455 254.01272705 91.81994629 254.14807129 C95.56334707 254.72143367 99.2015918 255.26500522 103 255 C103.33 254.67 103.66 254.34 104 254 C104 251.69 104 249.38 104 247 C152.84 247 201.68 247 252 247 C252 249.31 252 251.62 252 254 C252.33 254.33 252.66 254.66 253 255 C259.48304483 254.75880807 265.97108172 253.61998896 272.375 252.625 C273.92445547 252.38786595 275.47393619 252.15089685 277.0234375 251.9140625 C278.99570312 251.61242187 280.96796875 251.31078125 283 251 C289.6 250.01 296.2 249.02 303 248 C303 273.74 303 299.48 303 326 C295.31605957 325.98952637 287.63211914 325.97905273 279.71533203 325.96826172 C255.15283763 325.93618783 230.5903438 325.91392628 206.02783401 325.89786934 C202.21500777 325.89536781 198.40218161 325.89277918 194.58935547 325.89013672 C193.83026394 325.8896121 193.07117241 325.88908748 192.2890781 325.88854696 C179.9846195 325.87983523 167.68017951 325.86406105 155.37573196 325.84569441 C142.758005 325.82701668 130.14028782 325.81588779 117.5225476 325.81182301 C109.73153912 325.80907352 101.94058325 325.8003776 94.14959095 325.78416707 C88.1837771 325.77238356 82.21800886 325.77108325 76.25218201 325.77378464 C73.79870656 325.77323197 71.34522923 325.76922161 68.89176559 325.76158905 C65.55554589 325.75171472 62.21955574 325.75400349 58.8833313 325.75949097 C57.90085611 325.75366528 56.91838093 325.7478396 55.90613377 325.74183738 C55.0173692 325.74581948 54.12860462 325.74980158 53.21290779 325.75390434 C52.44207552 325.7531449 51.67124325 325.75238546 50.87705243 325.75160301 C48.755811 325.83870217 48.755811 325.83870217 47 328 C46.69592122 330.90954729 46.69592122 330.90954729 46.75045234 334.39638239 C46.74777194 335.06477014 46.74509153 335.73315788 46.74232991 336.4217998 C46.73572591 338.68807878 46.74352043 340.95408792 46.75111103 343.22036076 C46.7493301 344.8578957 46.74667188 346.49542988 46.74321017 348.13296214 C46.73620041 352.67034844 46.74178186 357.20764827 46.74926625 361.74503067 C46.75520718 366.66709746 46.74961525 371.58915272 46.74544543 376.51121944 C46.73974243 385.1501463 46.74153 393.78904694 46.7481308 402.42797279 C46.75791918 415.27392127 46.75632363 428.11985043 46.7523805 440.96580112 C46.74609412 462.57179974 46.74928973 484.17778747 46.75797462 505.78378487 C46.76657633 527.18697774 46.77150656 548.5901657 46.77130699 569.99336052 C46.77129907 571.33601098 46.77129135 572.67866144 46.77128382 574.02131191 C46.77124645 579.4164805 46.77118003 584.8116491 46.77107801 590.2068177 C46.77080035 605.2896548 46.77118921 620.37249186 46.77206707 635.45532894 C46.77210674 636.14223559 46.77214641 636.82914223 46.77218729 637.53686423 C46.77349575 659.43346705 46.77766885 681.33006832 46.78392506 703.22667027 C46.784128 703.9371492 46.78433093 704.64762814 46.78454002 705.37963674 C46.78784899 716.91830309 46.79134419 728.45696939 46.79484874 739.99563568 C46.80873875 785.76556491 46.81538185 831.53548859 46.81469727 877.30541992 C46.81467688 878.75214063 46.81465666 880.19886134 46.81463663 881.64558205 C46.81459645 884.53556473 46.81455567 887.4255474 46.81451452 890.31553007 C46.8144231 896.79505136 46.81433875 903.27457265 46.81426793 909.75409394 C46.81425216 911.18911934 46.81423572 912.62414474 46.8142186 914.05917014 C46.81377363 952.36766325 46.81823838 990.67615561 46.82457083 1028.98464817 C46.82468101 1029.65316684 46.82479118 1030.32168551 46.82490469 1031.01046231 C46.82640016 1040.08467225 46.82640016 1040.08467225 46.82792928 1049.15888218 C46.83042708 1063.87741132 46.83236644 1078.59594022 46.83274293 1093.31446958 C46.83276046 1093.97850991 46.83277799 1094.64255023 46.83279605 1095.326713 C46.83286526 1098.00314092 46.83293051 1100.67956885 46.83299353 1103.35599678 C46.83357882 1128.15811827 46.83733665 1152.96023521 46.84747223 1177.7623548 C46.85260305 1190.53964195 46.85499135 1203.31692265 46.85347604 1216.09421077 C46.85274517 1224.61239841 46.85561858 1233.13057975 46.86151985 1241.64876536 C46.86479007 1246.51311363 46.86643419 1251.37744833 46.86375926 1256.24179728 C46.86136653 1260.65676127 46.86348208 1265.07169798 46.86937737 1269.48665847 C46.8706901 1271.08373194 46.87028551 1272.68080786 46.86806076 1274.27788031 C46.86530377 1276.42827632 46.86857851 1278.57857676 46.87350017 1280.72896677 C46.87379167 1281.92504666 46.87408317 1283.12112655 46.8743835 1284.35345129 C46.69892496 1286.92318732 46.69892496 1286.92318732 48 1288 C50.97459294 1288.09991731 53.92602368 1288.1332531 56.90111589 1288.12534916 C58.32885318 1288.12745264 58.32885318 1288.12745264 59.78543365 1288.12959861 C63.02378307 1288.13312061 66.26208605 1288.12942042 69.50043488 1288.12584114 C71.83602886 1288.12688281 74.17162269 1288.12836295 76.50721616 1288.13024551 C81.62660062 1288.1333485 86.74597546 1288.13329795 91.86535972 1288.13056196 C99.52928312 1288.12648449 107.19319782 1288.12813813 114.8571214 1288.1309446 C127.91564419 1288.13555602 140.97416309 1288.13538907 154.03268623 1288.13266373 C167.27458843 1288.12991691 180.51648807 1288.12932856 193.75839043 1288.13140106 C195.01079626 1288.13159482 195.01079626 1288.13159482 196.28850322 1288.13179249 C199.68881345 1288.13232574 203.08912368 1288.13287444 206.48943391 1288.13344277 C238.19575082 1288.13873847 269.90206602 1288.139088 301.60838318 1288.13629532 C302.54882806 1288.13621252 303.48927295 1288.13612973 304.45821617 1288.13604442 C305.40015441 1288.13596149 306.34209266 1288.13587856 307.31257449 1288.13579312 C335.97275189 1288.13327311 364.63292859 1288.13261707 393.29310608 1288.13381577 C395.20996959 1288.13389324 397.1268331 1288.1339704 399.04369662 1288.13404724 C406.74616493 1288.13435768 414.44863324 1288.13467635 422.15110155 1288.135007 C443.68465007 1288.13592415 465.21819859 1288.13649465 486.75174713 1288.13679314 C487.7324536 1288.13680678 488.71316007 1288.13682043 489.72358492 1288.13683449 C520.98793154 1288.13724396 552.25227791 1288.13611589 583.51662445 1288.13394356 C584.53112635 1288.13387331 585.54562825 1288.13380306 586.59087263 1288.13373068 C603.06724993 1288.13258564 619.54362722 1288.13136622 636.0200045 1288.13014051 C701.3732003 1288.12528392 766.72639405 1288.12550933 832.07958984 1288.13037109 C848.54751841 1288.13159222 865.01544698 1288.13280324 881.48337555 1288.13394356 C883.00422068 1288.13404923 883.00422068 1288.13404923 884.55578996 1288.13415704 C915.78661096 1288.1363122 947.0174318 1288.13722769 978.24825287 1288.13679314 C979.22824538 1288.13677955 980.2082379 1288.13676597 981.21792716 1288.13675197 C1002.7272783 1288.13643954 1024.23662942 1288.13580598 1045.74598055 1288.13488263 C1053.44169361 1288.13455347 1061.13740668 1288.13424039 1068.83311974 1288.13393192 C1070.74773231 1288.13385453 1072.66234488 1288.1337758 1074.57695744 1288.13369573 C1103.23189987 1288.13250057 1131.8868415 1288.1335216 1160.54178383 1288.13604442 C1161.48222872 1288.13612722 1162.42267361 1288.13621001 1163.39161682 1288.13629532 C1164.79969863 1288.13641934 1164.79969863 1288.13641934 1166.23622653 1288.13654587 C1197.84830381 1288.13929981 1229.46037902 1288.13829823 1261.072456 1288.13301457 C1264.46217386 1288.13246218 1267.85189171 1288.13192548 1271.24160957 1288.13140106 C1272.07354235 1288.13127086 1272.90547512 1288.13114065 1273.76261797 1288.1310065 C1286.97289845 1288.12902872 1300.18317637 1288.13041305 1313.39345661 1288.13317007 C1326.36112499 1288.13580563 1339.32878904 1288.13490464 1352.29645686 1288.13015598 C1359.91339348 1288.1274736 1367.53031825 1288.12756681 1375.14725432 1288.13163758 C1380.78026188 1288.13434669 1386.41325737 1288.13192166 1392.04626331 1288.1273813 C1394.32712309 1288.12636405 1396.60798435 1288.12706625 1398.88884296 1288.12958724 C1401.95887983 1288.13274289 1405.02885045 1288.12987222 1408.09888411 1288.12534916 C1408.99877483 1288.12773991 1409.89866556 1288.13013065 1410.82582571 1288.13259384 C1414.72573074 1288.50794969 1414.72573074 1288.50794969 1418 1287 C1418.09912526 1284.91158147 1418.12599029 1282.81973637 1418.12649983 1280.72896677 C1418.12878965 1279.72848863 1418.12878965 1279.72848863 1418.13112573 1278.70779881 C1418.13506743 1276.4403378 1418.13179306 1274.17294187 1418.12863445 1271.90548038 C1418.12997923 1270.26941431 1418.13176205 1268.63334854 1418.13394669 1266.99728337 C1418.13870999 1262.45932826 1418.13716436 1257.92139303 1418.13466892 1253.38343689 C1418.13304508 1248.46245314 1418.13716891 1243.54147381 1418.14057809 1238.62049145 C1418.14574851 1229.98188987 1418.14714646 1221.3432939 1418.14612198 1212.70469093 C1418.14460226 1199.85914844 1418.14874717 1187.01361219 1418.1539966 1174.16807091 C1418.16368791 1149.89595566 1418.16648212 1125.62384248 1418.16705366 1101.35172553 C1418.16711841 1098.67264021 1418.16718635 1095.99355489 1418.16725707 1093.31446958 C1418.16727408 1092.64968957 1418.16729108 1091.98490955 1418.1673086 1091.29998469 C1418.16771666 1076.58353935 1418.16990528 1061.8670944 1418.17241292 1047.15064928 C1418.17344124 1041.09531558 1418.17443125 1035.03998187 1418.17542917 1028.98464817 C1418.17553975 1028.31563284 1418.17565034 1027.64661752 1418.17576428 1026.957329 C1418.18209044 988.60731052 1418.18621317 950.25729232 1418.18575573 911.90727329 C1418.18573995 910.4713677 1418.18572422 909.03546211 1418.18570852 907.59955652 C1418.18563513 901.11621555 1418.18554696 894.63287458 1418.18545464 888.14953361 C1418.18541351 885.25830464 1418.18537337 882.36707567 1418.18533332 879.4758467 C1418.18531293 878.02873274 1418.18529191 876.58161878 1418.18527026 875.13450483 C1418.18458986 829.36465031 1418.19190921 783.59480352 1418.20581055 737.82495117 C1418.20931138 726.29219089 1418.21278076 714.75943061 1418.21607494 703.22667027 C1418.21627782 702.51661476 1418.21648069 701.80655925 1418.21668971 701.0749869 C1418.22290155 679.20176765 1418.22666966 657.32854904 1418.22793293 635.45532894 C1418.22797288 634.76892276 1418.22801283 634.08251658 1418.22805399 633.37531021 C1418.22890714 618.30939134 1418.22916851 603.24347252 1418.22888362 588.17755364 C1418.22878713 582.78712587 1418.22873509 577.39669811 1418.22870489 572.00627034 C1418.22869697 570.66519571 1418.22868677 569.32412108 1418.22867426 567.98304645 C1418.22849224 545.92323116 1418.23475796 523.86342344 1418.24362527 501.80361026 C1418.25208034 480.32595715 1418.25310862 458.84831362 1418.24651595 437.37065978 C1418.24280595 424.59357918 1418.24469563 411.81652754 1418.25445829 399.03944998 C1418.2604205 390.52008947 1418.25920513 382.00075012 1418.25198779 373.48139062 C1418.2480742 368.61716192 1418.24742163 363.7529896 1418.25544515 358.88876469 C1418.26266616 354.4727145 1418.26085673 350.05676821 1418.25152128 345.64072283 C1418.24978515 344.04438416 1418.25147577 342.44803758 1418.25682249 340.85170693 C1418.26355315 338.69980247 1418.25817728 336.54827166 1418.24954766 334.39638239 C1418.24963588 333.20023474 1418.2497241 332.00408709 1418.249815 330.77169255 C1418.28565463 327.85846982 1418.28565463 327.85846982 1416 326 C1414.05257215 325.70021867 1414.05257215 325.70021867 1411.78709221 325.75390434 C1410.45394535 325.7479312 1410.45394535 325.7479312 1409.09386623 325.74183738 C1408.11139104 325.74766307 1407.12891586 325.75348875 1406.1166687 325.75949097 C1405.07773755 325.75778212 1404.0388064 325.75607327 1402.96839249 325.75431263 C1399.46437392 325.75100127 1395.96054409 325.76204851 1392.45654297 325.77294922 C1389.95381678 325.77351298 1387.45109026 325.77319747 1384.94836426 325.77206421 C1379.54847662 325.77160781 1374.14865048 325.77730449 1368.74877548 325.78853989 C1360.94141587 325.80477393 1353.13407965 325.81000074 1345.32670499 325.81251587 C1332.66066119 325.81689627 1319.99464311 325.83021472 1307.32861328 325.84912109 C1295.02262501 325.86747097 1282.71664372 325.88163184 1270.41064453 325.89013672 C1269.6524731 325.89066217 1268.89430167 325.89118761 1268.11315535 325.89172898 C1264.30974256 325.894339 1260.50632973 325.89686643 1256.70291686 325.89935279 C1225.13525512 325.92009604 1193.56764119 325.95697157 1162 326 C1162 300.26 1162 274.52 1162 248 C1190.88888889 252.44444444 1190.88888889 252.44444444 1204.1484375 254.58203125 C1207.45925545 254.9413188 1208.97666673 254.97685024 1212 254 C1212.33 253.67 1212.66 253.34 1213 253 C1213 251.02 1213 249.04 1213 247 C1261.84 247 1310.68 247 1361 247 C1361 249.31 1361 251.62 1361 254 C1361.33 254.33 1361.66 254.66 1362 255 C1372.36806956 254.92240525 1382.96971627 252.54273258 1393.1875 250.9375 C1402.4996875 249.4834375 1402.4996875 249.4834375 1412 248 C1412 271.1 1412 294.2 1412 318 C1413.65 318.33 1415.3 318.66 1417 319 C1418.95377773 317.04622227 1418.12302766 314.05936089 1418.12908131 311.45850557 C1418.12616847 310.50813608 1418.12325563 309.55776659 1418.12025452 308.57859802 C1418.12110894 307.57727327 1418.12196337 306.57594852 1418.12284368 305.54428059 C1418.12450151 302.16158273 1418.11897218 298.77893358 1418.11352539 295.39624023 C1418.11324356 292.98233033 1418.11340118 290.56842035 1418.1139679 288.1545105 C1418.11419621 282.94342508 1418.11134487 277.73235085 1418.10573006 272.52126884 C1418.09761716 264.9868371 1418.09500005 257.45241143 1418.09374207 249.91797579 C1418.09155121 237.69506963 1418.08489023 225.47217012 1418.07543945 213.24926758 C1418.06626619 201.37296583 1418.05918494 189.4966659 1418.05493164 177.62036133 C1418.05453756 176.52303454 1418.05453756 176.52303454 1418.05413551 175.40353953 C1418.05283051 171.73371272 1418.05156679 168.06388589 1418.05032361 164.39405906 C1418.03994996 133.92936794 1418.02225663 103.46468489 1418 73 C1416.34385343 72.61781233 1414.67542976 72.28604898 1413 72 C1411.73818905 73.03792772 1411.73818905 73.03792772 1411.88647461 75.31665039 C1411.89171143 76.31688232 1411.89694824 77.31711426 1411.90234375 78.34765625 C1411.90556641 79.42724609 1411.90878906 80.50683594 1411.91210938 81.61914062 C1411.92048828 82.75544922 1411.92886719 83.89175781 1411.9375 85.0625 C1411.94201172 86.20267578 1411.94652344 87.34285156 1411.95117188 88.51757812 C1411.96300253 91.34510351 1411.9794859 94.1725264 1412 97 C1410.71867187 96.7009375 1409.43734375 96.401875 1408.1171875 96.09375 C1403.1475735 94.98982323 1398.16323594 94.21391614 1393.125 93.5 C1387.70009634 92.71733711 1382.31038503 91.9056844 1376.9375 90.8125 C1371.61876654 89.79096548 1366.39792755 89.81206442 1361 90 C1361 92.31 1361 94.62 1361 97 C946.19 97 531.38 97 104 97 C104 95.02 104 93.04 104 91 C102.46118968 89.46118968 101.08810403 89.79308389 98.9375 89.75 C93.69190057 89.80193663 88.74696513 90.68416567 83.61376953 91.71728516 C77.01975662 93.03793265 70.39339085 94.03466054 63.73876953 94.99731445 C62.9342334 95.11421631 62.12969727 95.23111816 61.30078125 95.3515625 C60.59091064 95.45291504 59.88104004 95.55426758 59.1496582 95.65869141 C56.75485956 96.03892179 54.37770811 96.52445838 52 97 C52 88.75 52 80.5 52 72 C50.68 72 49.36 72 48 72 Z " fill="#FEFEFE" transform="translate(0,0)"/>
<path d="M0 0 C414.81 0 829.62 0 1257 0 C1257.33 2.31 1257.66 4.62 1258 7 C1264.36913337 7.34120357 1270.08539431 6.52934966 1276.33520508 5.28466797 C1282.09889465 4.14433369 1287.87805647 3.18956733 1293.6875 2.3125 C1294.53675049 2.18125732 1295.38600098 2.05001465 1296.26098633 1.91479492 C1297.06560303 1.79467041 1297.87021973 1.6745459 1298.69921875 1.55078125 C1299.40908936 1.44419189 1300.11895996 1.33760254 1300.8503418 1.2277832 C1303.22149583 0.97652974 1305.6155714 1 1308 1 C1308 45.88 1308 90.76 1308 137 C1300.65698806 136.38808234 1293.54742549 135.75105136 1286.3125 134.5625 C1285.53583984 134.44068359 1284.75917969 134.31886719 1283.95898438 134.19335938 C1280.02790887 133.56163783 1276.14702799 132.83024632 1272.265625 131.94140625 C1268.99028491 131.19325752 1265.79102192 130.65839622 1262.4375 130.375 C1261.59058594 130.30023438 1260.74367188 130.22546875 1259.87109375 130.1484375 C1258.94490234 130.07496094 1258.94490234 130.07496094 1258 130 C1257.67 132.64 1257.34 135.28 1257 138 C1208.16 138 1159.32 138 1109 138 C1108.67 135.69 1108.34 133.38 1108 131 C1103.09754847 129.51238512 1098.88239265 130.48108316 1093.97265625 131.3984375 C1093.10611923 131.55285309 1092.23958221 131.70726868 1091.3467865 131.86636353 C1088.58373859 132.36069158 1085.82317216 132.86758899 1083.0625 133.375 C1081.20913658 133.70917857 1079.35562217 134.04252092 1077.50195312 134.375 C1073.4019995 135.11128112 1069.30360198 135.8556328 1065.20643616 136.60726929 C1062.47477747 137.09348606 1059.73684161 137.54385973 1057 138 C1057 129.75 1057 121.5 1057 113 C1055.68 113.33 1054.36 113.66 1053 114 C1052.67 122.58 1052.34 131.16 1052 140 C1048.84947796 139.45813591 1045.69897834 138.91614113 1042.54858398 138.37353516 C1039.88555093 137.91491243 1037.22227514 137.45773392 1034.55883789 137.00146484 C1028.84315155 136.020593 1023.12907523 135.03710144 1017.4296875 133.96484375 C1016.65294678 133.82022705 1015.87620605 133.67561035 1015.07592773 133.52661133 C1013.07937299 133.15164472 1011.08453385 132.76757506 1009.08984375 132.3828125 C1006.28602452 132.03543667 1004.62072077 132.04582236 1002 133 C1001.67 135.31 1001.34 137.62 1001 140 C755.15 140 509.3 140 256 140 C255.67 137.36 255.34 134.72 255 132 C246.40369139 132.59246771 238.03144423 133.94075198 229.5625 135.5 C228.31017578 135.72558594 227.05785156 135.95117188 225.76757812 136.18359375 C219.86393973 137.17104001 219.86393973 137.17104001 214.05444336 138.57226562 C212 139 212 139 205 139 C204.67 130.75 204.34 122.5 204 114 C202.68 114 201.36 114 200 114 C199.67 121.59 199.34 129.18 199 137 C193.33151574 137 189.39683658 136.85812738 184.0625 135.75 C176.61079922 134.25837158 169.12943137 133.00909906 161.625 131.8125 C160.51261963 131.63364258 159.40023926 131.45478516 158.25415039 131.27050781 C153.15141188 130.36439035 153.15141188 130.36439035 148 130 C148 132.64 148 135.28 148 138 C99.16 138 50.32 138 0 138 C-0.33 135.36 -0.66 132.72 -1 130 C-8.1917158 130.73200045 -15.30225884 131.78333291 -22.4375 132.9375 C-23.50548828 133.10701172 -24.57347656 133.27652344 -25.67382812 133.45117188 C-31.37675186 134.36740214 -37.03119817 135.37157247 -42.66821289 136.63500977 C-45 137 -45 137 -51 137 C-51 92.12 -51 47.24 -51 1 C-44.63859276 1.57830975 -38.65644967 2.12224329 -32.42578125 3.19140625 C-31.08530656 3.41613553 -29.74481116 3.64074135 -28.40429688 3.86523438 C-26.35043564 4.21414244 -24.29696787 4.56517454 -22.24389648 4.91870117 C-11.68613202 6.74918381 -11.68613202 6.74918381 -1 7 C-0.67 4.69 -0.34 2.38 0 0 Z " fill="#FEFEFE" transform="translate(104,103)"/>
<path d="M0 0 C82.5 0 165 0 250 0 C250 132.66 250 265.32 250 402 C245.05 402.66 240.1 403.32 235 404 C232.31994981 404.61064435 229.64297653 405.24486385 227 406 C227.33 407.32 227.66 408.64 228 410 C229.8253125 409.5359375 229.8253125 409.5359375 231.6875 409.0625 C237.745987 407.69788871 243.81126514 407.39086746 250 407 C250 411.62 250 416.24 250 421 C238.45 420.67 226.9 420.34 215 420 C216.32 418.68 217.64 417.36 219 416 C219.66 416 220.32 416 221 416 C220.67 414.68 220.34 413.36 220 412 C216.09827485 412.55738931 213.63840903 413.66067949 210.4375 415.9375 C208.2500897 417.48043933 206.20474443 418.90107039 203.79296875 420.06640625 C201.44829001 421.28727383 201.03975726 422.62341198 200 425 C199.34 425.66 198.68 426.32 198 427 C197.35232207 429.57061311 197.35232207 429.57061311 197 432 C198.65 431.67 200.3 431.34 202 431 C202 444.86 202 458.72 202 473 C135.34 473 68.68 473 0 473 C0 339.68 0 206.36 0 69 C65.34 68.67 130.68 68.34 198 68 C198 66.68 198 65.36 198 64 C99.99 63.505 99.99 63.505 0 63 C0 42.21 0 21.42 0 0 Z " fill="#FEFEFE" transform="translate(53,332)"/>
<path d="M0 0 C245.85 0 491.7 0 745 0 C745.66 2.31 746.32 4.62 747 7 C756.98230628 6.32041398 766.69718554 4.54410771 776.52539062 2.72851562 C777.75837891 2.50744141 778.99136719 2.28636719 780.26171875 2.05859375 C781.36475342 1.85548584 782.46778809 1.65237793 783.60424805 1.44311523 C787 1 787 1 795 1 C795 26.08 795 51.16 795 77 C515.82 77 236.64 77 -51 77 C-51 51.92 -51 26.84 -51 1 C-44.79024163 1 -40.50278856 1.09447501 -34.6875 2.3125 C-28.25151617 3.60532796 -21.80360575 4.70752029 -15.3125 5.6875 C-14.46324951 5.81874268 -13.61399902 5.94998535 -12.73901367 6.08520508 C-8.79247003 6.67440069 -5.00381215 7.17124247 -1 7 C-0.67 4.69 -0.34 2.38 0 0 Z " fill="#FEFEFE" transform="translate(360,249)"/>
<path d="M0 0 C27.83043362 0 27.83043362 0 36.140625 7.76171875 C41.77501948 14.54429866 45.10347497 22.67639239 45.17700195 31.42407227 C45.18685875 32.39549919 45.18685875 32.39549919 45.19691467 33.3865509 C45.21662087 35.52983731 45.2283084 37.67305349 45.23828125 39.81640625 C45.24235678 40.55138777 45.2464323 41.28636929 45.25063133 42.04362297 C45.27148744 45.93899121 45.2857873 49.83432435 45.29516602 53.72973633 C45.3061888 57.73201944 45.34054124 61.73374017 45.38033772 65.73582554 C45.40663408 68.83044892 45.41486962 71.92494142 45.41844749 75.01966667 C45.42328529 76.49350694 45.43481815 77.96734248 45.45348549 79.44107246 C45.57987228 90.08642338 44.53820572 99.19543303 37.75 107.8125 C36.96882812 108.84310547 36.96882812 108.84310547 36.171875 109.89453125 C24.47876704 121.23011613 18.74476872 117 0 117 C0 78.39 0 39.78 0 0 Z " fill="#FEFEFE" transform="translate(638,984)"/>
<path d="M0 0 C27.69123932 0 27.69123932 0 37.3125 9.078125 C43.04240063 15.60384516 45.23272736 24.15167446 45.29052734 32.69458008 C45.30328705 33.98314407 45.31604675 35.27170807 45.32919312 36.59931946 C45.33225147 37.98938851 45.33447885 39.3794596 45.3359375 40.76953125 C45.3423759 42.2153079 45.34910501 43.66108328 45.35610962 45.1068573 C45.36804593 48.13026954 45.37179425 51.15356784 45.37060547 54.17700195 C45.37040255 58.02676549 45.39769265 61.87578865 45.43214989 65.72537708 C45.454529 68.71021291 45.45843966 71.69487369 45.45738602 74.67978477 C45.45972591 76.09779089 45.46845724 77.51580305 45.48405075 78.93372536 C45.59485318 90.04965788 44.09312655 99.13359181 37 108 C32.41789564 112.65093425 29.36795352 114.87734883 23 117 C15.41 117 7.82 117 0 117 C0 78.39 0 39.78 0 0 Z " fill="#FEFEFE" transform="translate(444,984)"/>
<path d="M0 0 C30.03 0 60.06 0 91 0 C91 15.51 91 31.02 91 47 C60.97 47 30.94 47 0 47 C0 31.49 0 15.98 0 0 Z " fill="#FBFBFB" transform="translate(261,810)"/>
<path d="M0 0 C14.19 0 28.38 0 43 0 C43.495 7.425 43.495 7.425 44 15 C45.32 15 46.64 15 48 15 C48.33 10.05 48.66 5.1 49 0 C63.68518684 -0.16137568 78.32414227 0.45895455 93 1 C93 16.18 93 31.36 93 47 C62.31 47 31.62 47 0 47 C0 31.49 0 15.98 0 0 Z " fill="#FAFAFA" transform="translate(260,758)"/>
<path d="M0 0 C30.03 0 60.06 0 91 0 C91 15.18 91 30.36 91 46 C60.97 46 30.94 46 0 46 C0 30.82 0 15.64 0 0 Z " fill="#FBFBFB" transform="translate(1114,811)"/>
<path d="M0 0 C30.03 0 60.06 0 91 0 C91 15.18 91 30.36 91 46 C60.97 46 30.94 46 0 46 C0 30.82 0 15.64 0 0 Z " fill="#FEFEFE" transform="translate(1114,760)"/>
<path d="M0 0 C1.65 0 3.3 0 5 0 C14.58266041 22.86659712 24.1502014 45.73944186 33.6875 68.625 C34.1040686 69.62426514 34.52063721 70.62353027 34.9498291 71.65307617 C36.15837747 74.55239745 37.36638792 77.45194224 38.57421875 80.3515625 C38.91847397 81.17737823 39.26272919 82.00319397 39.61741638 82.85403442 C43.1030899 91.22598649 46.54703114 99.61421847 50 108 C50.33 72.36 50.66 36.72 51 0 C52.65 0 54.3 0 56 0 C57.2399375 2.479875 57.12582466 4.12198636 57.12698364 6.89660645 C57.12980347 7.9314064 57.13262329 8.96620636 57.13552856 10.03236389 C57.13350433 11.17217209 57.1314801 12.31198029 57.12939453 13.48632812 C57.13114685 14.68309677 57.13289917 15.87986542 57.13470459 17.11289978 C57.13835892 20.40002295 57.13749212 23.68708341 57.1343255 26.97420311 C57.13179845 30.40992697 57.13414041 33.84564811 57.13571167 37.28137207 C57.13753235 43.05168134 57.13512971 48.82197783 57.13037109 54.59228516 C57.12492867 61.26900714 57.12669139 67.94569859 57.1321975 74.62241983 C57.13673151 80.34898595 57.13737776 86.07554286 57.13475883 91.8021102 C57.13319765 95.22493586 57.13299797 98.64774715 57.13629532 102.0705719 C57.13971301 105.88495069 57.13497958 109.69929511 57.12939453 113.51367188 C57.13141876 114.65348007 57.13344299 115.79328827 57.13552856 116.96763611 C57.13270874 118.00243607 57.12988892 119.03723602 57.12698364 120.10339355 C57.12660662 121.00599663 57.12622959 121.9085997 57.12584114 122.83855438 C57 125 57 125 56 127 C54.35 127 52.7 127 51 127 C50.78940948 126.49413864 50.57881897 125.98827728 50.36184692 125.46708679 C47.61686437 118.87362749 44.87112318 112.28048432 42.125 105.6875 C41.6781485 104.61466766 41.231297 103.54183533 40.77090454 102.43649292 C33.53522453 85.0665006 26.28002439 67.70477284 19.00244141 50.35229492 C18.65032089 49.51215851 18.29820038 48.67202209 17.93540955 47.806427 C17.29960339 46.28945162 16.66340747 44.77263947 16.02662659 43.256073 C12.64519315 35.18653534 9.33155499 27.09091926 6 19 C5.67 54.64 5.34 90.28 5 127 C3.35 127 1.7 127 0 127 C-1.2399375 124.520125 -1.12582466 122.87801364 -1.12698364 120.10339355 C-1.12980347 119.0685936 -1.13262329 118.03379364 -1.13552856 116.96763611 C-1.13350433 115.82782791 -1.1314801 114.68801971 -1.12939453 113.51367188 C-1.13114685 112.31690323 -1.13289917 111.12013458 -1.13470459 109.88710022 C-1.13835892 106.59997705 -1.13749212 103.31291659 -1.1343255 100.02579689 C-1.13179845 96.59007303 -1.13414041 93.15435189 -1.13571167 89.71862793 C-1.13753235 83.94831866 -1.13512971 78.17802217 -1.13037109 72.40771484 C-1.12492867 65.73099286 -1.12669139 59.05430141 -1.1321975 52.37758017 C-1.13673151 46.65101405 -1.13737776 40.92445714 -1.13475883 35.1978898 C-1.13319765 31.77506414 -1.13299797 28.35225285 -1.13629532 24.9294281 C-1.13971301 21.11504931 -1.13497958 17.30070489 -1.12939453 13.48632812 C-1.13141876 12.34651993 -1.13344299 11.20671173 -1.13552856 10.03236389 C-1.13270874 8.99756393 -1.12988892 7.96276398 -1.12698364 6.89660645 C-1.12660662 5.99400337 -1.12622959 5.0914003 -1.12584114 4.16144562 C-1 2 -1 2 0 0 Z " fill="#111111" transform="translate(356,979)"/>
<path d="M0 0 C1.63678711 -0.03673828 1.63678711 -0.03673828 3.30664062 -0.07421875 C14.46661274 -0.11405208 23.29461981 2.76579348 31.83203125 10.02734375 C42.30846141 21.05419932 43.21692544 34.82336078 43.23046875 49.17578125 C43.23546135 51.02311104 43.23546135 51.02311104 43.24055481 52.90776062 C43.24560599 55.50743233 43.2479637 58.1071105 43.24780273 60.70678711 C43.24998667 64.66335853 43.26815509 68.61964981 43.28710938 72.57617188 C43.29004426 75.10937405 43.29202842 77.64257755 43.29296875 80.17578125 C43.30015427 81.34901443 43.30733978 82.52224762 43.31474304 83.73103333 C43.27478849 98.24774498 40.69761353 110.45280015 30.43359375 121.171875 C23.30310148 127.79724178 17.29263128 129.51895301 7.5703125 129.47265625 C6.37148438 129.46943359 5.17265625 129.46621094 3.9375 129.46289062 C2.7 129.45451172 1.4625 129.44613281 0.1875 129.4375 C-1.07320313 129.43298828 -2.33390625 129.42847656 -3.6328125 129.42382812 C-6.73442386 129.4120796 -9.83593725 129.39565167 -12.9375 129.375 C-14.18584651 126.87830697 -14.066108 125.19679846 -14.07121277 122.40246582 C-14.07547775 121.35083755 -14.07974274 120.29920929 -14.08413696 119.2157135 C-14.08368378 118.05720383 -14.08323059 116.89869415 -14.08276367 115.70507812 C-14.08612228 114.48880234 -14.0894809 113.27252655 -14.09294128 112.01939392 C-14.10082859 108.67855649 -14.1041197 105.33778119 -14.10475707 101.99693871 C-14.10570543 99.21097113 -14.10938278 96.42500956 -14.11292917 93.63904428 C-14.12107637 87.06876733 -14.12351312 80.49850408 -14.12280273 73.92822266 C-14.1222015 67.14241479 -14.13276173 60.3566863 -14.1485464 53.57089853 C-14.16160384 47.75091377 -14.16698741 41.93095502 -14.16634732 36.11095572 C-14.16609185 32.63221543 -14.16897 29.15354569 -14.17952538 25.67481995 C-14.19096689 21.7981554 -14.18647059 17.92160059 -14.18041992 14.04492188 C-14.18603943 12.8864122 -14.19165894 11.72790253 -14.19744873 10.5342865 C-14.19325424 9.48265823 -14.18905975 8.43102997 -14.18473816 7.34753418 C-14.18528293 6.43018242 -14.18582769 5.51283066 -14.18638897 4.56768036 C-13.4401724 -2.00639329 -4.9240805 0.00563718 0 0 Z M-7.9375 6.375 C-7.9375 44.985 -7.9375 83.595 -7.9375 123.375 C10.10372197 124.80553348 10.10372197 124.80553348 25.453125 118.61328125 C32.83768587 110.96498607 37.27959729 102.65520127 37.35302734 91.80981445 C37.36578705 90.52440262 37.37854675 89.23899078 37.39169312 87.91462708 C37.39475202 86.52251335 37.39697911 85.13039758 37.3984375 83.73828125 C37.4048746 82.29347098 37.41160362 80.84866199 37.41860962 79.40385437 C37.43055876 76.37866195 37.43429311 73.35358348 37.43310547 70.32836914 C37.43290291 66.47979517 37.46014956 62.63196483 37.49464989 58.78356647 C37.51705663 55.79868822 37.52093877 52.81398468 37.51988602 49.82903099 C37.52222346 48.41185137 37.53094046 46.99466553 37.54655075 45.57756996 C37.65690073 34.521345 36.40150184 24.14102997 29.0625 15.375 C17.79644234 5.16513525 8.03475952 6.375 -7.9375 6.375 Z " fill="#121212" transform="translate(451.9375,977.625)"/>
<path d="M0 0 C1.63678711 -0.03673828 1.63678711 -0.03673828 3.30664062 -0.07421875 C13.16960662 -0.10942267 22.26990064 2.03218657 30.0625 8.375 C42.13689356 20.54063583 43.20441414 34.6606397 43.265625 51.046875 C43.27132507 52.24628723 43.27702515 53.44569946 43.28289795 54.68145752 C43.29230536 57.20950449 43.29886489 59.73756349 43.30273438 62.265625 C43.31243466 66.09917949 43.34349776 69.93219611 43.375 73.765625 C43.38153203 76.23437185 43.38678172 78.7031225 43.390625 81.171875 C43.4029718 82.30147644 43.4153186 83.43107788 43.42803955 84.59490967 C43.38709689 99.48072697 39.70476663 111.77650768 29.625 122.90625 C21.49119571 130.55202604 11.19615004 129.5567572 0.75 129.5625 C-0.44173828 129.57474609 -1.63347656 129.58699219 -2.86132812 129.59960938 C-4.56385742 129.60250977 -4.56385742 129.60250977 -6.30078125 129.60546875 C-7.33501221 129.60957764 -8.36924316 129.61368652 -9.43481445 129.61791992 C-11.9375 129.375 -11.9375 129.375 -13.9375 127.375 C-14.18918228 125.18231964 -14.18918228 125.18231964 -14.19146729 122.40246582 C-14.19710693 121.35083755 -14.20274658 120.29920929 -14.20855713 119.2157135 C-14.20450867 118.05720383 -14.20046021 116.89869415 -14.19628906 115.70507812 C-14.1997937 114.48880234 -14.20329834 113.27252655 -14.20690918 112.01939392 C-14.21421823 108.67848871 -14.21248419 105.33783025 -14.20615101 101.99693871 C-14.2010971 98.50515784 -14.20578076 95.01338771 -14.20892334 91.52160645 C-14.21256477 85.65712586 -14.20775928 79.7926956 -14.19824219 73.92822266 C-14.18735727 67.14240692 -14.19088273 60.35671136 -14.201895 53.57089853 C-14.21096286 47.75090711 -14.21225562 41.93095192 -14.20701766 36.11095572 C-14.20389519 32.63222375 -14.20349617 29.15354831 -14.21009064 25.67481995 C-14.21692579 21.79813951 -14.2074595 17.92159433 -14.19628906 14.04492188 C-14.20033752 12.8864122 -14.20438599 11.72790253 -14.20855713 10.5342865 C-14.20291748 9.48265823 -14.19727783 8.43102997 -14.19146729 7.34753418 C-14.19071323 6.43018242 -14.18995918 5.51283066 -14.18918228 4.56768036 C-13.43465959 -2.00579421 -4.92787724 0.00564153 0 0 Z M-7.9375 6.375 C-7.9375 44.985 -7.9375 83.595 -7.9375 123.375 C13.67426788 125.49005806 13.67426788 125.49005806 28.234375 116.26953125 C29.01554688 115.23892578 29.01554688 115.23892578 29.8125 114.1875 C30.34359375 113.51332031 30.8746875 112.83914063 31.421875 112.14453125 C36.88126453 102.92856178 37.67466012 94.45685528 37.62890625 83.9453125 C37.63415537 82.4637717 37.6404365 80.98223424 37.64768982 79.5007019 C37.65804165 76.40932387 37.65360981 73.31840761 37.63891602 70.22705078 C37.62175258 66.29774144 37.64521883 62.36989798 37.68040562 58.44075203 C37.70254429 55.38457861 37.70089859 52.32874695 37.6926403 49.27251816 C37.69182942 47.82547271 37.69852473 46.37839992 37.71341133 44.93143082 C37.82637127 31.96592522 35.22837752 21.69627401 26.046875 12.15234375 C16.53670873 3.63437986 4.25923229 6.375 -7.9375 6.375 Z " fill="#111111" transform="translate(645.9375,977.625)"/>
<path d="M0 0 C1.36067049 0.01005022 2.72134817 0.01917246 4.08203125 0.02734375 C7.38820647 0.0507918 10.6940088 0.08361144 14 0.125 C14.38218767 1.78114657 14.71395102 3.44957024 15 5.125 C13.14555103 6.97944897 10.06833284 6.29981668 7.5859375 6.3359375 C5.60787109 6.37847656 5.60787109 6.37847656 3.58984375 6.421875 C1.4900788 6.4629223 -0.60947194 6.49980358 -2.70947266 6.52636719 C-4.73647069 6.55423301 -6.76246156 6.60013082 -8.7890625 6.6484375 C-10.00287598 6.66825684 -11.21668945 6.68807617 -12.46728516 6.70849609 C-18.56497983 7.42740882 -23.53752619 9.83948636 -28 14.125 C-29.82896833 16.87835167 -29.82896833 16.87835167 -31.25 19.9375 C-31.75015625 20.93394531 -32.2503125 21.93039062 -32.765625 22.95703125 C-35.78838051 30.71479936 -35.16100262 39.03441581 -35.16796875 47.23828125 C-35.17118843 48.6167962 -35.17455302 49.99531081 -35.17805481 51.37382507 C-35.18402126 54.25597932 -35.18589729 57.13810369 -35.18530273 60.02026367 C-35.18520129 63.68819967 -35.19884607 67.35594132 -35.21607494 71.02383137 C-35.22726984 73.86967322 -35.22921965 76.7154692 -35.22869301 79.5613308 C-35.23042522 81.56298131 -35.2412174 83.56461751 -35.25224304 85.5662384 C-35.22586785 96.17895091 -34.20213042 104.81806354 -29 114.125 C-28.66484375 114.8365625 -28.3296875 115.548125 -27.984375 116.28125 C-25.86291008 120.25478748 -21.03171167 120.78109611 -17 122.125 C-3.635 122.62 -3.635 122.62 10 123.125 C10 102.665 10 82.205 10 61.125 C5.05 61.125 0.1 61.125 -5 61.125 C-5.495 59.145 -5.495 59.145 -6 57.125 C-4 55.125 -4 55.125 -2.13647461 54.88208008 C-1.03057983 54.88824341 -1.03057983 54.88824341 0.09765625 54.89453125 C0.89880859 54.89646484 1.69996094 54.89839844 2.52539062 54.90039062 C3.36263672 54.91263672 4.19988281 54.92488281 5.0625 54.9375 C5.90361328 54.93814453 6.74472656 54.93878906 7.61132812 54.93945312 C13.85976816 54.98476816 13.85976816 54.98476816 15 56.125 C15.0996392 58.35887206 15.12799795 60.59593859 15.12939453 62.83203125 C15.13114685 63.53282806 15.13289917 64.23362488 15.13470459 64.95565796 C15.13912266 67.28296349 15.13618529 69.61019364 15.1328125 71.9375 C15.13348555 73.54793309 15.13445559 75.15836609 15.13571167 76.76879883 C15.13718858 80.14828455 15.13503431 83.5277439 15.13037109 86.90722656 C15.1246738 91.24876505 15.12795285 95.59024173 15.13394356 99.93177795 C15.13754936 103.25850901 15.1364105 106.5852253 15.13381577 109.91195679 C15.13314655 111.51321418 15.13397474 113.1144729 15.13629532 114.71572876 C15.13882216 116.94984511 15.13498085 119.18386 15.12939453 121.41796875 C15.12859894 122.6918042 15.12780334 123.96563965 15.12698364 125.27807617 C15 128.125 15 128.125 14 129.125 C10.01266013 129.34499882 6.02170704 129.31078672 2.02880859 129.31030273 C0.03609091 129.31246091 -1.95658786 129.33088535 -3.94921875 129.34960938 C-13.97903435 129.36482143 -23.3455575 129.35624015 -31 122.125 C-41.64652568 110.6339182 -42.15713959 97.469746 -42.1328125 82.5703125 C-42.13376923 81.27358612 -42.13472595 79.97685974 -42.13571167 78.64083862 C-42.1371789 75.9058919 -42.1350663 73.17097803 -42.13037109 70.43603516 C-42.12468577 66.95763075 -42.12795145 63.47930373 -42.13394356 60.00090218 C-42.13846024 56.64903303 -42.13528187 53.29718383 -42.1328125 49.9453125 C-42.13483673 48.70959503 -42.13686096 47.47387756 -42.13894653 46.20071411 C-42.09857439 31.15583673 -40.67812149 18.64062122 -30 7.125 C-21.35634993 -0.86629912 -11.16250918 -0.14212793 0 0 Z " fill="#0E0E0E" transform="translate(756,977.875)"/>
<path d="M0 0 C0.85428589 -0.00630432 1.70857178 -0.01260864 2.58874512 -0.019104 C3.51272095 -0.01505554 4.43669678 -0.01100708 5.38867188 -0.00683594 C6.80895691 -0.00970612 6.80895691 -0.00970612 8.25793457 -0.01263428 C10.26196559 -0.01399667 12.26600542 -0.0102965 14.27001953 -0.00195312 C17.34492741 0.00874559 20.41925101 -0.00184666 23.49414062 -0.01464844 C25.43815234 -0.01332685 27.38216368 -0.01076448 29.32617188 -0.00683594 C30.71213562 -0.01290863 30.71213562 -0.01290863 32.12609863 -0.019104 C33.40752747 -0.00964752 33.40752747 -0.00964752 34.71484375 0 C35.4682605 0.00159119 36.22167725 0.00318237 36.9979248 0.00482178 C38.85742188 0.25878906 38.85742188 0.25878906 40.85742188 2.25878906 C40.52742188 3.57878906 40.19742188 4.89878906 39.85742188 6.25878906 C26.65742188 6.25878906 13.45742188 6.25878906 -0.14257812 6.25878906 C-0.14257812 22.42878906 -0.14257812 38.59878906 -0.14257812 55.25878906 C9.31139362 55.17965732 9.31139362 55.17965732 18.76513672 55.07861328 C20.52398193 55.07112061 20.52398193 55.07112061 22.31835938 55.06347656 C24.12506104 55.04776611 24.12506104 55.04776611 25.96826172 55.03173828 C28.85742188 55.25878906 28.85742188 55.25878906 30.85742188 57.25878906 C30.52742188 58.57878906 30.19742188 59.89878906 29.85742188 61.25878906 C19.95742188 61.25878906 10.05742187 61.25878906 -0.14257812 61.25878906 C-0.14257812 81.71878906 -0.14257812 102.17878906 -0.14257812 123.25878906 C13.05742187 123.25878906 26.25742187 123.25878906 39.85742188 123.25878906 C40.18742187 124.57878906 40.51742187 125.89878906 40.85742188 127.25878906 C38.4689536 129.64725734 37.96521612 129.51071347 34.71484375 129.51757812 C33.86055786 129.52388245 33.00627197 129.53018677 32.12609863 129.53668213 C31.2021228 129.53263367 30.27814697 129.52858521 29.32617188 129.52441406 C28.37931519 129.52632751 27.4324585 129.52824097 26.45690918 129.5302124 C24.45287816 129.53157479 22.44883833 129.52787462 20.44482422 129.51953125 C17.36991634 129.50883254 14.29559274 129.51942478 11.22070312 129.53222656 C9.27669141 129.53090498 7.33268007 129.5283426 5.38867188 129.52441406 C4.00270813 129.53048676 4.00270813 129.53048676 2.58874512 129.53668213 C1.30731628 129.52722565 1.30731628 129.52722565 0 129.51757812 C-0.75341675 129.51598694 -1.5068335 129.51439575 -2.28308105 129.51275635 C-4.14257812 129.25878906 -4.14257812 129.25878906 -6.14257812 127.25878906 C-6.39426041 125.0661087 -6.39426041 125.0661087 -6.39654541 122.28625488 C-6.40218506 121.23462662 -6.40782471 120.18299835 -6.41363525 119.09950256 C-6.40958679 117.94099289 -6.40553833 116.78248322 -6.40136719 115.58886719 C-6.40487183 114.3725914 -6.40837646 113.15631561 -6.4119873 111.90318298 C-6.41929635 108.56227777 -6.41756231 105.22161931 -6.41122913 101.88072777 C-6.40617522 98.3889469 -6.41085889 94.89717678 -6.41400146 91.40539551 C-6.41764289 85.54091492 -6.4128374 79.67648467 -6.40332031 73.81201172 C-6.3924354 67.02619598 -6.39596085 60.24050042 -6.40697312 53.4546876 C-6.41604099 47.63469617 -6.41733374 41.81474098 -6.41209579 35.99474478 C-6.40897331 32.51601281 -6.40857429 29.03733737 -6.41516876 25.55860901 C-6.42200392 21.68192858 -6.41253763 17.80538339 -6.40136719 13.92871094 C-6.40541565 12.77020126 -6.40946411 11.61169159 -6.41363525 10.41807556 C-6.40799561 9.3664473 -6.40235596 8.31481903 -6.39654541 7.23132324 C-6.39579136 6.31397148 -6.39503731 5.39661972 -6.39426041 4.45146942 C-5.91444115 0.27123769 -3.67798778 0.00776777 0 0 Z " fill="#151515" transform="translate(290.142578125,977.7412109375)"/>
<path d="M0 0 C14.52 0 29.04 0 44 0 C44.495 2.475 44.495 2.475 45 5 C44 6 44 6 40.30639648 6.11352539 C38.66128709 6.11327427 37.01617243 6.10771184 35.37109375 6.09765625 C34.22259949 6.09614563 34.22259949 6.09614563 33.05090332 6.09460449 C30.17975373 6.08935663 27.30862542 6.07539547 24.4375 6.0625 C18.023125 6.041875 11.60875 6.02125 5 6 C5 22.17 5 38.34 5 55 C14.57 55 24.14 55 34 55 C34.495 57.475 34.495 57.475 35 60 C34.67 60.33 34.34 60.66 34 61 C24.43 61 14.86 61 5 61 C5 81.46 5 101.92 5 123 C17.87 123 30.74 123 44 123 C44.66 124.32 45.32 125.64 46 127 C44 129 44 129 42.08908081 129.24050903 C41.31186676 129.23606781 40.53465271 129.23162659 39.73388672 129.22705078 C38.85312469 129.22689972 37.97236267 129.22674866 37.06491089 129.22659302 C36.11278717 129.21627045 35.16066345 129.20594788 34.1796875 129.1953125 C33.20589142 129.1924826 32.23209534 129.18965271 31.22879028 129.18673706 C28.11073651 129.17551913 24.99296732 129.1504117 21.875 129.125 C19.76432706 129.11497228 17.65364962 129.10584607 15.54296875 129.09765625 C10.36188165 129.07557458 5.18096115 129.04208129 0 129 C-1.24903801 126.50192399 -1.12583457 124.8233 -1.12698364 122.02746582 C-1.13121338 120.45002342 -1.13121338 120.45002342 -1.13552856 118.8407135 C-1.13350433 117.68220383 -1.1314801 116.52369415 -1.12939453 115.33007812 C-1.13114685 114.11380234 -1.13289917 112.89752655 -1.13470459 111.64439392 C-1.13835904 108.30355381 -1.13749204 104.9627754 -1.1343255 101.62193871 C-1.13179855 98.13016042 -1.13414038 94.63838483 -1.13571167 91.14660645 C-1.13753238 85.28214035 -1.13512963 79.41768684 -1.13037109 73.55322266 C-1.12492866 66.76743769 -1.12669139 59.98168277 -1.1321975 53.19589853 C-1.13673143 47.37591497 -1.1373778 41.55594047 -1.13475883 35.73595572 C-1.1331976 32.25723878 -1.1329981 28.77853598 -1.13629532 25.29981995 C-1.13971286 21.42317532 -1.13497971 17.54656451 -1.12939453 13.66992188 C-1.13243088 11.93215736 -1.13243088 11.93215736 -1.13552856 10.1592865 C-1.13270874 9.10765823 -1.12988892 8.05602997 -1.12698364 6.97253418 C-1.12660662 6.05518242 -1.12622959 5.13783066 -1.12584114 4.19268036 C-1 2 -1 2 0 0 Z " fill="#141414" transform="translate(797,978)"/>
<path d="M0 0 C0.77943466 0.00222061 1.55886932 0.00444122 2.36192322 0.00672913 C3.68317955 0.00684242 3.68317955 0.00684242 5.03112793 0.00695801 C5.98841293 0.01211929 6.94569794 0.01728058 7.93199158 0.02259827 C9.39480812 0.02472069 9.39480812 0.02472069 10.88717651 0.02688599 C14.01542675 0.03250319 17.14360656 0.04505859 20.27183533 0.05775452 C22.38706867 0.0627673 24.50230313 0.06733059 26.61753845 0.07142639 C31.81482829 0.0824782 37.01207678 0.09923305 42.20933533 0.12025452 C42.591523 1.77640109 42.92328634 3.44482476 43.20933533 5.12025452 C42.20933533 6.12025452 42.20933533 6.12025452 38.42393494 6.23377991 C36.73650804 6.23352876 35.04907603 6.22796564 33.36167908 6.21791077 C32.18369751 6.21640015 32.18369751 6.21640015 30.98191833 6.21485901 C28.0368759 6.2096109 25.09185421 6.19564974 22.14683533 6.18275452 C15.56746033 6.16212952 8.98808533 6.14150452 2.20933533 6.12025452 C2.20933533 22.29025452 2.20933533 38.46025452 2.20933533 55.12025452 C12.10933533 55.12025452 22.00933533 55.12025452 32.20933533 55.12025452 C32.70433533 57.59525452 32.70433533 57.59525452 33.20933533 60.12025452 C32.87933533 60.45025452 32.54933533 60.78025452 32.20933533 61.12025452 C22.30933533 61.12025452 12.40933533 61.12025452 2.20933533 61.12025452 C2.20933533 81.58025452 2.20933533 102.04025452 2.20933533 123.12025452 C15.40933533 123.12025452 28.60933533 123.12025452 42.20933533 123.12025452 C42.53933533 124.77025452 42.86933533 126.42025452 43.20933533 128.12025452 C41.66432082 129.66526902 40.22273313 129.24744583 38.07261658 129.24964905 C36.75620178 129.25437729 36.75620178 129.25437729 35.41319275 129.25920105 C34.4590448 129.25717682 33.50489685 129.25515259 32.52183533 129.25306702 C31.06257629 129.25450211 31.06257629 129.25450211 29.57383728 129.25596619 C27.51255733 129.2566481 25.45127524 129.25479304 23.38999939 129.25062561 C20.22295844 129.24527752 17.05605933 129.25057024 13.88902283 129.25697327 C11.89162668 129.25631249 9.89423062 129.25503133 7.89683533 129.25306702 C6.94268738 129.25509125 5.98853943 129.25711548 5.00547791 129.25920105 C4.12786804 129.25604889 3.25025818 129.25289673 2.34605408 129.24964905 C1.56963562 129.24885345 0.79321716 129.24805786 -0.00672913 129.24723816 C-1.79066467 129.12025452 -1.79066467 129.12025452 -2.79066467 128.12025452 C-2.88892436 126.47766751 -2.9169843 124.83084119 -2.91764832 123.18531799 C-2.92046814 122.11679092 -2.92328796 121.04826385 -2.92619324 119.94735718 C-2.92416901 118.76497971 -2.92214478 117.58260223 -2.9200592 116.36439514 C-2.92181152 115.12715195 -2.92356384 113.88990875 -2.92536926 112.61517334 C-2.92902754 109.2123601 -2.9281543 105.80960732 -2.92499018 102.40679741 C-2.92246626 98.85315237 -2.9248042 95.29951 -2.92637634 91.74586487 C-2.92819795 85.77706944 -2.92579197 79.80828636 -2.92103577 73.8394928 C-2.91559316 66.92930883 -2.91735582 60.01915437 -2.92286217 53.10897112 C-2.92739357 47.18626416 -2.92804372 41.26356611 -2.9254235 35.34085798 C-2.92386087 31.7990009 -2.92366658 28.25715771 -2.92695999 24.71530151 C-2.93037296 20.76889389 -2.92564854 16.82251956 -2.9200592 12.87611389 C-2.92208344 11.69373642 -2.92410767 10.51135895 -2.92619324 9.29315186 C-2.92337341 8.22462479 -2.92055359 7.15609772 -2.91764832 6.05519104 C-2.91727129 5.12086998 -2.91689426 4.18654892 -2.91650581 3.2239151 C-2.759009 0.59107316 -2.6403541 0.17731656 0 0 Z " fill="#0B0B0B" transform="translate(563.7906646728516,977.8797454833984)"/>
<path d="M0 0 C65.01 0 130.02 0 197 0 C197.33 1.65 197.66 3.3 198 5 C194.93221852 6.53389074 191.72210869 6.13327518 188.35653687 6.12025452 C187.15953453 6.12153615 187.15953453 6.12153615 185.93835032 6.12284368 C183.24973063 6.12449799 180.56117259 6.11897791 177.87255859 6.11352539 C175.95110577 6.11324348 174.02965284 6.11340132 172.10820007 6.1139679 C166.87913706 6.11425573 161.65009681 6.10836129 156.4210391 6.10139394 C150.9610833 6.09515804 145.50112703 6.09455641 140.04116821 6.09336853 C129.69622571 6.09025591 119.35129374 6.08204346 109.00635588 6.07201904 C97.23144426 6.06085575 85.45653214 6.05534691 73.68161654 6.05032361 C49.45440519 6.03986079 25.22720318 6.02226269 1 6 C-0.0625 4.125 -0.0625 4.125 -1 2 C-0.67 1.34 -0.34 0.68 0 0 Z " fill="#151515" transform="translate(924,395)"/>
<path d="M0 0 C64.68 0 129.36 0 196 0 C196.99 1.98 196.99 1.98 198 4 C195.50902773 6.49097227 194.04648033 6.24149329 190.64740419 6.26748681 C189.8958592 6.26302537 189.1443142 6.25856392 188.36999512 6.25396729 C187.57340469 6.25708727 186.77681426 6.26020725 185.95608473 6.26342177 C183.2720814 6.27143429 180.58830211 6.26506555 177.90429688 6.25878906 C175.98608772 6.26149748 174.0678796 6.26505757 172.14967346 6.26940918 C166.92872395 6.27855318 161.70785318 6.27498066 156.48690224 6.26865101 C151.03321743 6.2636014 145.57953955 6.26827956 140.12585449 6.27142334 C130.96588933 6.27506603 121.80595637 6.27025597 112.64599609 6.26074219 C102.04298493 6.24985707 91.44005068 6.25338243 80.83704138 6.264395 C71.74744173 6.27345927 62.65786528 6.27475737 53.56826258 6.26951766 C48.1333404 6.26639322 42.69845442 6.26600158 37.26353455 6.27259064 C32.15495628 6.27835099 27.04647755 6.27439133 21.93791008 6.26280212 C20.05850833 6.2601485 18.17909827 6.26093252 16.29969978 6.26532745 C13.74302017 6.27075676 11.18666366 6.26398087 8.63000488 6.25396729 C7.87845989 6.25842873 7.12691489 6.26289017 6.35259581 6.26748681 C1.22830014 6.22830014 1.22830014 6.22830014 -1 4 C-0.67 2.68 -0.34 1.36 0 0 Z " fill="#151515" transform="translate(634,395)"/>
<path d="M0 0 C1.13956954 0.00436926 1.13956954 0.00436926 2.30216068 0.00882679 C3.50400671 0.00754515 3.50400671 0.00754515 4.73013246 0.00623763 C7.43567753 0.00458038 10.14116165 0.01010817 12.84670109 0.01555592 C14.7778585 0.01583776 16.70901602 0.01568011 18.64017338 0.01511341 C23.90028629 0.01482533 29.16037661 0.02072373 34.42048424 0.02768737 C39.91114241 0.03391919 45.40180104 0.03452457 50.89246219 0.03571278 C61.29764511 0.0388266 71.70281757 0.04704068 82.10799587 0.05706227 C93.95059766 0.06822182 105.79319993 0.07373346 117.63580567 0.0787577 C142.00420565 0.08922325 166.37259634 0.10682368 190.74098819 0.12908131 C191.12317587 1.78522788 191.45493921 3.45365155 191.74098819 5.12908131 C190.01128062 6.85878889 187.78769202 6.25145815 185.48197639 6.25816262 C184.72226337 6.25524978 183.96255034 6.25233693 183.17981571 6.24933583 C181.97796968 6.25061746 181.97796968 6.25061746 180.75184393 6.25192499 C178.04629886 6.25358224 175.34081474 6.24805445 172.6352753 6.2426067 C170.70411789 6.24232485 168.77296037 6.24248251 166.84180301 6.2430492 C161.5816901 6.24333728 156.32159978 6.23743888 151.06149215 6.23047525 C145.57083398 6.22424343 140.08017535 6.22363805 134.5895142 6.22244984 C124.18433128 6.21933601 113.77915882 6.21112194 103.37398052 6.20110035 C91.53137873 6.1899408 79.68877646 6.18442916 67.84617072 6.17940491 C43.47777074 6.16893936 19.10938005 6.15133893 -5.25901181 6.12908131 C-5.64119948 4.47293474 -5.97296282 2.80451107 -6.25901181 1.12908131 C-4.52930423 -0.60062627 -2.30571563 0.00670446 0 0 Z " fill="#151515" transform="translate(350.2590118050575,394.8709186911583)"/>
<path d="M0 0 C0.76360397 0.00291284 1.52720795 0.00582568 2.31395143 0.00882679 C3.11926567 0.00797237 3.92457991 0.00711794 4.75429761 0.00623763 C7.47366211 0.00458036 10.19296596 0.0101082 12.91232485 0.01555592 C14.85333435 0.01583776 16.79434397 0.01568011 18.73535341 0.01511341 C24.02232492 0.01482533 29.30927396 0.02072375 34.59624022 0.02768737 C40.11492561 0.03391917 45.63361146 0.03452457 51.15229982 0.03571278 C61.61060666 0.03882661 72.0689031 0.0470407 82.52720535 0.05706227 C94.43026549 0.0682218 106.33332611 0.07373345 118.23639017 0.0787577 C142.72920425 0.08922327 167.22200908 0.10682371 191.71481508 0.12908131 C192.27731508 2.06658131 192.27731508 2.06658131 192.71481508 4.12908131 C190.98036374 5.86353265 188.74141094 5.25147454 186.42963016 5.25816262 C185.66602619 5.25524978 184.90242221 5.25233693 184.11567873 5.24933583 C182.90770737 5.25061746 182.90770737 5.25061746 181.67533255 5.25192499 C178.95596805 5.25358225 176.2366642 5.24805442 173.51730531 5.2426067 C171.57629581 5.24232485 169.63528619 5.24248251 167.69427675 5.2430492 C162.40730524 5.24333729 157.1203562 5.23743886 151.83338994 5.23047525 C146.31470455 5.22424345 140.7960187 5.22363805 135.27733034 5.22244984 C124.8190235 5.21933601 114.36072706 5.21112192 103.90242481 5.20110035 C91.99936467 5.18994082 80.09630405 5.18442917 68.19323999 5.17940491 C43.70042591 5.16893935 19.20762108 5.15133891 -5.28518492 5.12908131 C-5.84768492 3.19158131 -5.84768492 3.19158131 -6.28518492 1.12908131 C-4.55073358 -0.60537003 -2.31178078 0.00668808 0 0 Z " fill="#000000" transform="translate(929.2851849198341,1221.8709186911583)"/>
<path d="M0 0 C0.76360397 0.00291284 1.52720795 0.00582568 2.31395143 0.00882679 C3.11926567 0.00797237 3.92457991 0.00711794 4.75429761 0.00623763 C7.47366211 0.00458036 10.19296596 0.0101082 12.91232485 0.01555592 C14.85333435 0.01583776 16.79434397 0.01568011 18.73535341 0.01511341 C24.02232492 0.01482533 29.30927396 0.02072375 34.59624022 0.02768737 C40.11492561 0.03391917 45.63361146 0.03452457 51.15229982 0.03571278 C61.61060666 0.03882661 72.0689031 0.0470407 82.52720535 0.05706227 C94.43026549 0.0682218 106.33332611 0.07373345 118.23639017 0.0787577 C142.72920425 0.08922327 167.22200908 0.10682371 191.71481508 0.12908131 C192.27731508 2.06658131 192.27731508 2.06658131 192.71481508 4.12908131 C190.98036374 5.86353265 188.74141094 5.25147454 186.42963016 5.25816262 C185.66602619 5.25524978 184.90242221 5.25233693 184.11567873 5.24933583 C182.90770737 5.25061746 182.90770737 5.25061746 181.67533255 5.25192499 C178.95596805 5.25358225 176.2366642 5.24805442 173.51730531 5.2426067 C171.57629581 5.24232485 169.63528619 5.24248251 167.69427675 5.2430492 C162.40730524 5.24333729 157.1203562 5.23743886 151.83338994 5.23047525 C146.31470455 5.22424345 140.7960187 5.22363805 135.27733034 5.22244984 C124.8190235 5.21933601 114.36072706 5.21112192 103.90242481 5.20110035 C91.99936467 5.18994082 80.09630405 5.18442917 68.19323999 5.17940491 C43.70042591 5.16893935 19.20762108 5.15133891 -5.28518492 5.12908131 C-5.84768492 3.19158131 -5.84768492 3.19158131 -6.28518492 1.12908131 C-4.55073358 -0.60537003 -2.31178078 0.00668808 0 0 Z " fill="#000000" transform="translate(639.2851849198341,1221.8709186911583)"/>
<path d="M0 0 C64.68 0 129.36 0 196 0 C196.33 1.65 196.66 3.3 197 5 C131.66 5 66.32 5 -1 5 C-0.67 3.35 -0.34 1.7 0 0 Z " fill="#000000" transform="translate(345,1222)"/>
<path d="M0 0 C2.46449334 0.85534541 3.70840399 1.54462516 5.12640381 3.75906372 C5.41952454 4.4652182 5.71264526 5.17137268 6.01464844 5.89892578 C6.3546991 6.6996048 6.69474976 7.50028381 7.04510498 8.32522583 C7.39631409 9.18985443 7.74752319 10.05448303 8.109375 10.9453125 C8.48104797 11.8303244 8.85272095 12.7153363 9.23565674 13.62716675 C10.41972872 16.45470221 11.58500628 19.28955794 12.75 22.125 C13.54955545 24.04348008 14.35032221 25.96145581 15.15234375 27.87890625 C17.11800954 32.57941139 19.05807713 37.28935305 21 42 C21.33 28.47 21.66 14.94 22 1 C23.32 0.67 24.64 0.34 26 0 C28 2 28 2 28.24723816 4.39099121 C28.24581314 5.39311646 28.24438812 6.3952417 28.24291992 7.42773438 C28.24599655 8.56231079 28.24907318 9.69688721 28.25224304 10.86584473 C28.24505753 12.09605347 28.23787201 13.32626221 28.23046875 14.59375 C28.22978142 16.48015198 28.22978142 16.48015198 28.2290802 18.40466309 C28.22605442 21.0679261 28.21922525 23.73084515 28.20581055 26.39404297 C28.18882064 29.81064219 28.18499621 33.22709364 28.18575573 36.64373016 C28.18541867 39.8979181 28.17658133 43.15207495 28.16796875 46.40625 C28.16685593 47.63645874 28.1657431 48.86666748 28.16459656 50.13415527 C28.15821671 51.26873169 28.15183685 52.40330811 28.14526367 53.57226562 C28.13954597 55.07545349 28.13954597 55.07545349 28.13371277 56.60900879 C28 59 28 59 27 61 C24.66772461 60.81713867 24.66772461 60.81713867 22 60 C20.51782227 57.8137207 20.51782227 57.8137207 19.31640625 54.92578125 C18.86330078 53.86423828 18.41019531 52.80269531 17.94335938 51.70898438 C17.48767578 50.58814453 17.03199219 49.46730469 16.5625 48.3125 C16.11068359 47.24193359 15.65886719 46.17136719 15.19335938 45.06835938 C13.78156745 41.71810705 12.39103112 38.35892534 11 35 C9.02 30.38 7.04 25.76 5 21 C4.67 33.87 4.34 46.74 4 60 C1.525 60.495 1.525 60.495 -1 61 C-2 60 -2 60 -2.12025452 57.63987732 C-2.11803391 56.59396927 -2.11581329 55.54806122 -2.11352539 54.47045898 C-2.11344986 53.28931015 -2.11337433 52.10816132 -2.11329651 50.89122009 C-2.10813522 49.6058284 -2.10297394 48.32043671 -2.09765625 46.99609375 C-2.0962413 45.68794205 -2.09482635 44.37979034 -2.09336853 43.03199768 C-2.0895441 39.54837141 -2.07971446 36.06478661 -2.06866455 32.58117676 C-2.05844882 29.02873292 -2.05387056 25.47628241 -2.04882812 21.92382812 C-2.03809212 14.94920168 -2.0210166 7.97460283 -2 1 C-1.34 0.67 -0.68 0.34 0 0 Z " fill="#111111" transform="translate(590,26)"/>
<path d="M0 0 C0.99 0 1.98 0 3 0 C6.48582673 11.79818278 9.76279751 23.64375663 12.8125 35.5625 C13.11422119 36.71395508 13.41594238 37.86541016 13.72680664 39.05175781 C15.57419767 46.37381808 16.6261489 53.45710485 17 61 C15.35 60.67 13.7 60.34 12 60 C11.49307308 58.4188708 10.99473557 56.83498617 10.5 55.25 C10.08234375 53.92742187 10.08234375 53.92742187 9.65625 52.578125 C9 50 9 50 9 46 C3.72 46 -1.56 46 -7 46 C-7.103125 47.175625 -7.20625 48.35125 -7.3125 49.5625 C-7.82914958 53.82485903 -9.1508361 57.14087534 -11 61 C-12.32 61 -13.64 61 -15 61 C-15.35516339 54.81846583 -14.03882052 49.61725225 -12.375 43.6875 C-9.65063326 33.69079876 -7.2641335 23.6497824 -5.09326172 13.51831055 C-4.86268066 12.47843994 -4.63209961 11.43856934 -4.39453125 10.3671875 C-4.09832886 8.99216064 -4.09832886 8.99216064 -3.79614258 7.58935547 C-2.90029243 4.67571345 -1.81297053 2.45214291 0 0 Z " fill="#0E0E0E" transform="translate(480,26)"/>
<path d="M0 0 C1.485 -0.03673828 1.485 -0.03673828 3 -0.07421875 C8.86677562 -0.0977486 12.84479177 0.09140795 17.25 4.375 C22.78630964 11.09422572 21.70403173 19.67908378 21.5 27.875 C21.47990166 29.28382874 21.46165678 30.69268521 21.4453125 32.1015625 C21.39839203 35.52675664 21.33274777 38.95051524 21.25 42.375 C19.59385343 42.75718767 17.92542976 43.08895102 16.25 43.375 C14.38212992 41.50712992 15.05263588 38.35249323 15.00390625 35.85546875 C14.97095538 34.50975942 14.93774395 33.16405646 14.90429688 31.81835938 C14.85695773 29.69202245 14.81255941 27.565709 14.77319336 25.43920898 C14.73336239 23.39018007 14.68183176 21.34169547 14.62890625 19.29296875 C14.6038501 18.06344482 14.57879395 16.8339209 14.55297852 15.56713867 C14.26288213 12.51072432 14.0979887 10.80199482 12.25 8.375 C10.6 7.715 8.95 7.055 7.25 6.375 C7.25 18.585 7.25 30.795 7.25 43.375 C5.6 43.375 3.95 43.375 2.25 43.375 C0.69022936 40.25545872 1.12895874 36.94540616 1.15234375 33.5234375 C1.1537587 32.74940582 1.15517365 31.97537415 1.15663147 31.17788696 C1.16223597 28.70188558 1.17478917 26.22597412 1.1875 23.75 C1.19251442 22.07291797 1.19707743 20.39583453 1.20117188 18.71875 C1.21220685 14.60413194 1.22947446 10.48958122 1.25 6.375 C-1.39 6.375 -4.03 6.375 -6.75 6.375 C-6.75 18.255 -6.75 30.135 -6.75 42.375 C-9.225 42.87 -9.225 42.87 -11.75 43.375 C-13.86834035 41.25665965 -12.91419113 36.52896626 -12.91796875 33.59765625 C-12.92129715 32.71597275 -12.92462555 31.83428925 -12.92805481 30.92588806 C-12.93312783 29.05712406 -12.93546302 27.18835096 -12.93530273 25.31958008 C-12.93748808 22.45313656 -12.95563655 19.5870784 -12.97460938 16.72070312 C-12.97754339 14.90885549 -12.97952813 13.09700602 -12.98046875 11.28515625 C-12.98765427 10.4236647 -12.99483978 9.56217316 -13.00224304 8.67457581 C-12.96406167 -1.22189814 -8.38948311 0.01075575 0 0 Z " fill="#131313" transform="translate(1047.75,43.625)"/>
<path d="M0 0 C1.05058594 -0.020625 2.10117187 -0.04125 3.18359375 -0.0625 C4.70919922 -0.07023437 4.70919922 -0.07023437 6.265625 -0.078125 C7.66216309 -0.09214355 7.66216309 -0.09214355 9.08691406 -0.10644531 C13.10606918 0.43150541 15.76161978 2.19102119 18.5 5.125 C21.10091339 9.54655276 20.86899537 14.28608807 20.84765625 19.30078125 C20.8462413 19.95958786 20.84482635 20.61839447 20.84336853 21.29716492 C20.837805 23.38565762 20.82525947 25.47404011 20.8125 27.5625 C20.80748028 28.98502449 20.8029182 30.40755066 20.79882812 31.83007812 C20.78784757 35.30342077 20.77060835 38.77669961 20.75 42.25 C19.09385343 42.63218767 17.42542976 42.96395102 15.75 43.25 C13.82580234 41.32580234 14.5274663 37.80916066 14.46875 35.2578125 C14.44113586 34.2051973 14.44113586 34.2051973 14.41296387 33.13131714 C14.35404833 30.87929899 14.30132816 28.6272031 14.25 26.375 C14.18231755 23.4191113 14.1085772 20.46346275 14.03125 17.5078125 C14.00095703 16.1892627 13.97066406 14.87071289 13.93945312 13.51220703 C13.89166631 10.24050959 13.89166631 10.24050959 12.75 7.25 C9.78 6.755 9.78 6.755 6.75 6.25 C6.75 18.13 6.75 30.01 6.75 42.25 C4.275 42.745 4.275 42.745 1.75 43.25 C0.75 42.25 0.75 42.25 0.63647461 38.83178711 C0.63663372 37.31363012 0.64232774 35.79546771 0.65234375 34.27734375 C0.6537587 33.47970108 0.65517365 32.68205841 0.65663147 31.86024475 C0.66224684 29.30262565 0.67480188 26.74509282 0.6875 24.1875 C0.69251302 22.45768355 0.69707627 20.72786574 0.70117188 18.99804688 C0.71222125 14.74866447 0.72949614 10.49934688 0.75 6.25 C-1.89 6.25 -4.53 6.25 -7.25 6.25 C-7.25 18.46 -7.25 30.67 -7.25 43.25 C-8.9 43.25 -10.55 43.25 -12.25 43.25 C-12.27464574 37.28686834 -12.292834 31.32376605 -12.30493164 25.3605957 C-12.30997278 23.33031702 -12.31680557 21.30004198 -12.32543945 19.26977539 C-12.33751467 16.35822653 -12.34323034 13.4467255 -12.34765625 10.53515625 C-12.35281754 9.6216188 -12.35797882 8.70808136 -12.36329651 7.76686096 C-12.36349168 5.59424573 -12.31211805 3.42172704 -12.25 1.25 C-9.78423437 -1.21576563 -3.31043814 0.01601179 0 0 Z " fill="#0E0E0E" transform="translate(1006.25,43.75)"/>
<path d="M0 0 C0.70189453 0.00451172 1.40378906 0.00902344 2.12695312 0.01367188 C3.85550538 0.02543073 5.58401365 0.04336546 7.3125 0.0625 C7.6425 1.7125 7.9725 3.3625 8.3125 5.0625 C4.541731 6.9478845 -0.04843195 6.47763572 -4.20703125 6.68359375 C-8.69734744 7.15605025 -8.69734744 7.15605025 -12.6875 9.0625 C-14.2320716 15.72175275 -13.91038115 22.57833826 -13.9375 29.375 C-13.958125 30.65568359 -13.97875 31.93636719 -14 33.25585938 C-14.19942358 43.56106768 -14.19942358 43.56106768 -10.6875 53.0625 C-6.07840008 55.65513776 -6.07840008 55.65513776 2.3125 56.0625 C2.3125 47.4825 2.3125 38.9025 2.3125 30.0625 C0.3325 30.0625 -1.6475 30.0625 -3.6875 30.0625 C-4.25 28.125 -4.25 28.125 -4.6875 26.0625 C-3.6875 25.0625 -3.6875 25.0625 -1.21875 24.9296875 C0.28171875 24.93355469 0.28171875 24.93355469 1.8125 24.9375 C2.8128125 24.93492188 3.813125 24.93234375 4.84375 24.9296875 C7.3125 25.0625 7.3125 25.0625 8.3125 26.0625 C8.42577366 28.56004141 8.47667191 31.0288999 8.48046875 33.52734375 C8.48379715 34.27585098 8.48712555 35.02435822 8.49055481 35.79554749 C8.49562693 37.38183984 8.49796305 38.9681429 8.49780273 40.55444336 C8.49998773 42.98634369 8.51813581 45.41778949 8.53710938 47.84960938 C8.54004349 49.38801928 8.54202817 50.92643134 8.54296875 52.46484375 C8.55015427 53.19509262 8.55733978 53.92534149 8.56474304 54.67771912 C8.54132307 59.83367693 8.54132307 59.83367693 6.3125 62.0625 C-1.28948014 63.01025343 -7.9536742 63.02112701 -14.234375 58.3515625 C-18.60915676 54.47070772 -19.55869894 50.92261635 -19.9621582 45.09594727 C-19.98193231 43.60703944 -19.99007543 42.1179443 -19.98828125 40.62890625 C-19.99256638 39.83274399 -19.9968515 39.03658173 -20.00126648 38.21629333 C-20.00698558 36.53963162 -20.00752797 34.86294511 -20.00317383 33.1862793 C-20.00001378 30.63612114 -20.02350255 28.08712443 -20.04882812 25.53710938 C-20.05110154 23.90104312 -20.05180442 22.26497377 -20.05078125 20.62890625 C-20.059991 19.87452774 -20.06920074 19.12014923 -20.07868958 18.34291077 C-20.03429154 13.20461899 -19.12216318 9.61513092 -16.6875 5.0625 C-11.13943119 0.67027886 -6.88207626 -0.08353594 0 0 Z " fill="#0D0D0D" transform="translate(645.6875,25.9375)"/>
<path d="M0 0 C3.62903224 3.35384496 4.57463715 7.76821394 5.03662109 12.49584961 C5.05616124 13.93069785 5.0588738 15.36585013 5.046875 16.80078125 C5.04974518 17.57096085 5.05261536 18.34114044 5.05557251 19.13465881 C5.05760245 20.75408672 5.05214793 22.37353974 5.03955078 23.99291992 C5.02350287 26.45092487 5.03942363 28.90728036 5.05859375 31.36523438 C5.0566107 32.94792024 5.05276574 34.5306051 5.046875 36.11328125 C5.05598404 37.19959084 5.05598404 37.19959084 5.0652771 38.30784607 C4.98079112 44.5398791 3.72609827 50.14023838 -0.4765625 54.9609375 C-4.40661172 57.09683382 -7.88054969 57.84730945 -12.3515625 57.5234375 C-17.22611813 55.22411881 -19.80772371 52.23425008 -22.3515625 47.5234375 C-23.78240069 40.80828051 -23.57429156 34.04571731 -23.6015625 27.2109375 C-23.6221875 25.93025391 -23.6428125 24.64957031 -23.6640625 23.33007812 C-23.69915115 14.8079217 -23.4856527 7.39981222 -17.9765625 0.5859375 C-11.31055678 -4.65163843 -7.32891731 -3.61471487 0 0 Z M-16.3515625 7.5234375 C-17.88239544 10.58510339 -17.55612392 13.80237672 -17.58984375 17.1640625 C-17.5979155 17.92386414 -17.60598724 18.68366577 -17.61430359 19.4664917 C-17.62814388 21.07708455 -17.63886629 22.68770672 -17.64672852 24.29833984 C-17.6639001 26.7502486 -17.70777884 29.2007941 -17.75195312 31.65234375 C-17.76208406 33.2187401 -17.77059891 34.78514791 -17.77734375 36.3515625 C-17.79485184 37.07990295 -17.81235992 37.80824341 -17.83039856 38.55865479 C-17.80874353 43.6942892 -16.58699626 46.57286529 -13.3515625 50.5234375 C-11.08662371 52.33016647 -11.08662371 52.33016647 -8.3515625 52.5234375 C-4.68078859 50.79601448 -2.79826608 49.57349198 -1.19238281 45.79858398 C-0.28900114 42.27974974 -0.09287234 39.25123281 -0.0859375 35.62109375 C-0.08335937 34.31849609 -0.08078125 33.01589844 -0.078125 31.67382812 C-0.08231445 31.00198486 -0.08650391 30.3301416 -0.09082031 29.63793945 C-0.10151552 27.59491154 -0.09090451 25.55276628 -0.078125 23.50976562 C-0.08070313 22.20587891 -0.08328125 20.90199219 -0.0859375 19.55859375 C-0.08819336 18.376604 -0.09044922 17.19461426 -0.09277344 15.97680664 C-0.37357755 12.2296612 -1.08889807 9.0603636 -2.3515625 5.5234375 C-8.33073992 0.77075801 -11.10463693 2.73276633 -16.3515625 7.5234375 Z " fill="#0A0A0A" transform="translate(418.3515625,29.4765625)"/>
<path d="M0 0 C1.98 0.495 1.98 0.495 4 1 C4 8.92 4 16.84 4 25 C9.94 25 15.88 25 22 25 C22 17.08 22 9.16 22 1 C23.32 0.67 24.64 0.34 26 0 C27 1 27 1 27.12025452 3.39808655 C27.1169236 4.99359596 27.1169236 4.99359596 27.11352539 6.62133789 C27.11344986 7.82250748 27.11337433 9.02367706 27.11329651 10.26124573 C27.10813522 11.5685112 27.10297394 12.87577667 27.09765625 14.22265625 C27.09579198 15.56644132 27.09436812 16.91022707 27.09336853 18.25401306 C27.08954402 21.79682277 27.07971432 25.3395917 27.06866455 28.88238525 C27.05844899 32.49515227 27.0538706 36.10792584 27.04882812 39.72070312 C27.03809198 46.8138188 27.02101636 53.90690674 27 61 C25.35 61 23.7 61 22 61 C22 50.77 22 40.54 22 30 C13.585 30.495 13.585 30.495 5 31 C4.67 40.9 4.34 50.8 4 61 C2.35 60.67 0.7 60.34 -1 60 C-1.02312821 52.32463373 -1.04091753 44.64927104 -1.05181217 36.97387791 C-1.05703995 33.41022578 -1.06413569 29.84659743 -1.07543945 26.28295898 C-1.08834176 22.18993903 -1.09322906 18.0969442 -1.09765625 14.00390625 C-1.10281754 12.71851456 -1.10797882 11.43312286 -1.11329651 10.10877991 C-1.11337204 8.92763107 -1.11344757 7.74648224 -1.11352539 6.52954102 C-1.115746 5.48363297 -1.11796661 4.43772491 -1.12025452 3.36012268 C-1 1 -1 1 0 0 Z " fill="#010101" transform="translate(700,26)"/>
<path d="M0 0 C0.91644287 0.00523682 1.83288574 0.01047363 2.77709961 0.01586914 C3.76645508 0.0190918 4.75581055 0.02231445 5.77514648 0.02563477 C6.81606445 0.03401367 7.85698242 0.04239258 8.92944336 0.05102539 C10.49662109 0.05779297 10.49662109 0.05779297 12.09545898 0.06469727 C14.68600996 0.07652627 17.27644895 0.0930085 19.86694336 0.11352539 C20.19694336 1.76352539 20.52694336 3.41352539 20.86694336 5.11352539 C17.68148047 6.70625684 14.23494988 6.21494372 10.74194336 6.17602539 C8.14319336 6.15540039 5.54444336 6.13477539 2.86694336 6.11352539 C2.86694336 12.38352539 2.86694336 18.65352539 2.86694336 25.11352539 C6.82694336 25.11352539 10.78694336 25.11352539 14.86694336 25.11352539 C15.19694336 26.76352539 15.52694336 28.41352539 15.86694336 30.11352539 C11.57694336 30.11352539 7.28694336 30.11352539 2.86694336 30.11352539 C2.86694336 38.69352539 2.86694336 47.27352539 2.86694336 56.11352539 C8.47694336 56.11352539 14.08694336 56.11352539 19.86694336 56.11352539 C20.19694336 57.43352539 20.52694336 58.75352539 20.86694336 60.11352539 C18.41707404 62.56339471 17.72986535 62.3698385 14.36694336 62.37915039 C13.48006836 62.38172852 12.59319336 62.38430664 11.67944336 62.38696289 C10.75131836 62.37922852 9.82319336 62.37149414 8.86694336 62.36352539 C7.93881836 62.37125977 7.01069336 62.37899414 6.05444336 62.38696289 C4.72413086 62.3830957 4.72413086 62.3830957 3.36694336 62.37915039 C2.55225586 62.37689453 1.73756836 62.37463867 0.89819336 62.37231445 C-1.13305664 62.11352539 -1.13305664 62.11352539 -3.13305664 60.11352539 C-3.3802948 57.63987732 -3.3802948 57.63987732 -3.37597656 54.48632812 C-3.37905319 53.30848251 -3.38212982 52.1306369 -3.38529968 50.917099 C-3.37811417 49.64000565 -3.37092865 48.36291229 -3.36352539 47.04711914 C-3.36306717 45.74275406 -3.36260895 44.43838898 -3.36213684 43.09449768 C-3.36057197 40.3329639 -3.35228131 37.57155976 -3.33886719 34.81005859 C-3.32186063 31.26332585 -3.31805331 27.71673543 -3.31881237 24.1699667 C-3.31847575 20.79566497 -3.30964202 17.42141032 -3.30102539 14.04711914 C-3.29991257 12.76800156 -3.29879974 11.48888397 -3.2976532 10.17100525 C-3.29127335 8.9963118 -3.28489349 7.82161835 -3.27832031 6.61132812 C-3.27450851 5.57145248 -3.27069672 4.53157684 -3.26676941 3.46018982 C-3.09438109 0.43476794 -3.02043135 0.16075319 0 0 Z " fill="#121212" transform="translate(559.133056640625,25.886474609375)"/>
<path d="M0 0 C1.03688965 0.01047363 2.0737793 0.02094727 3.14208984 0.03173828 C4.26357422 0.03818359 5.38505859 0.04462891 6.54052734 0.05126953 C7.71615234 0.06802734 8.89177734 0.08478516 10.10302734 0.10205078 C11.87806641 0.11558594 11.87806641 0.11558594 13.68896484 0.12939453 C16.61885257 0.15302266 19.54834075 0.18596564 22.47802734 0.22705078 C23.13802734 1.54705078 23.79802734 2.86705078 24.47802734 4.22705078 C23.81802734 4.88705078 23.15802734 5.54705078 22.47802734 6.22705078 C19.17802734 6.22705078 15.87802734 6.22705078 12.47802734 6.22705078 C12.47802734 24.04705078 12.47802734 41.86705078 12.47802734 60.22705078 C10.00302734 60.72205078 10.00302734 60.72205078 7.47802734 61.22705078 C6.47802734 60.22705078 6.47802734 60.22705078 6.35777283 58.05674744 C6.35999344 57.09966385 6.36221405 56.14258026 6.36450195 55.15649414 C6.36457748 54.07544907 6.36465302 52.99440399 6.36473083 51.88059998 C6.36989212 50.70457718 6.37505341 49.52855438 6.38037109 48.31689453 C6.38178604 47.11972305 6.38320099 45.92255157 6.38465881 44.68910217 C6.39027755 40.84756012 6.40283324 37.00607536 6.41552734 33.16455078 C6.42053993 30.56754641 6.42510325 27.97054113 6.42919922 25.37353516 C6.44025307 18.991354 6.45700942 12.60920648 6.47802734 6.22705078 C3.50802734 6.22705078 0.53802734 6.22705078 -2.52197266 6.22705078 C-3.18197266 4.90705078 -3.84197266 3.58705078 -4.52197266 2.22705078 C-2.52197266 0.22705078 -2.52197266 0.22705078 0 0 Z " fill="#141414" transform="translate(666.52197265625,25.77294921875)"/>
<path d="M0 0 C3.69230769 0.69230769 3.69230769 0.69230769 5 2 C5.09353163 3.68801985 5.11744791 5.37995207 5.11352539 7.07055664 C5.11344986 8.15160172 5.11337433 9.23264679 5.11329651 10.34645081 C5.10813522 11.5224736 5.10297394 12.6984964 5.09765625 13.91015625 C5.0962413 15.10732773 5.09482635 16.30449921 5.09336853 17.53794861 C5.08774979 21.37949066 5.07519411 25.22097543 5.0625 29.0625 C5.05748741 31.65950437 5.05292409 34.25650965 5.04882812 36.85351562 C5.03777427 43.23569932 5.02049708 49.61783993 5 56 C10.61 56 16.22 56 22 56 C22.33 57.32 22.66 58.64 23 60 C20.55013068 62.44986932 19.862922 62.25631311 16.5 62.265625 C15.613125 62.26820312 14.72625 62.27078125 13.8125 62.2734375 C12.884375 62.26570313 11.95625 62.25796875 11 62.25 C10.071875 62.25773437 9.14375 62.26546875 8.1875 62.2734375 C6.8571875 62.26957031 6.8571875 62.26957031 5.5 62.265625 C4.6853125 62.26336914 3.870625 62.26111328 3.03125 62.25878906 C1 62 1 62 -1 60 C-1.24723816 57.52635193 -1.24723816 57.52635193 -1.24291992 54.37280273 C-1.24599655 53.19495712 -1.24907318 52.01711151 -1.25224304 50.80357361 C-1.24505753 49.52648026 -1.23787201 48.2493869 -1.23046875 46.93359375 C-1.23001053 45.62922867 -1.22955231 44.32486359 -1.2290802 42.98097229 C-1.22751533 40.21943851 -1.21922467 37.45803437 -1.20581055 34.6965332 C-1.18880399 31.14980046 -1.18499667 27.60321004 -1.18575573 24.05644131 C-1.18541911 20.68213957 -1.17658538 17.30788493 -1.16796875 13.93359375 C-1.16685593 12.65447617 -1.1657431 11.37535858 -1.16459656 10.05747986 C-1.15821671 8.88278641 -1.15183685 7.70809296 -1.14526367 6.49780273 C-1.14145187 5.45792709 -1.13764008 4.41805145 -1.13371277 3.34666443 C-1 1 -1 1 0 0 Z " fill="#151515" transform="translate(525,26)"/>
<path d="M0 0 C1.32 0.33 2.64 0.66 4 1 C4.42841018 6.62083206 2.89538903 10.99521793 1.04296875 16.203125 C0.73933914 17.08095642 0.43570953 17.95878784 0.12287903 18.86322021 C-0.84692953 21.66191134 -1.82918603 24.45602869 -2.8125 27.25 C-3.78260439 30.03049857 -4.75006423 32.81189489 -5.71574402 35.59393311 C-6.31590599 37.3203219 -6.91898551 39.04570044 -7.52558899 40.76983643 C-9.27125585 45.76086367 -10.84394673 50.76848563 -12.2664032 55.86175537 C-13 58 -13 58 -15 61 C-16.32 61 -17.64 61 -19 61 C-18.46351355 53.74220519 -16.76819418 47.39657729 -14.47265625 40.5078125 C-13.94918861 38.90617752 -13.94918861 38.90617752 -13.41514587 37.27218628 C-12.6804259 35.03034814 -11.94146789 32.78989493 -11.19848633 30.55078125 C-10.06014234 27.11789003 -8.93629307 23.68050317 -7.81445312 20.2421875 C-7.09719856 18.05961816 -6.37912824 15.8773167 -5.66015625 13.6953125 C-5.32363541 12.66721466 -4.98711456 11.63911682 -4.64039612 10.5798645 C-4.32344284 9.62812347 -4.00648956 8.67638245 -3.67993164 7.69580078 C-3.40315079 6.85912872 -3.12636993 6.02245667 -2.84120178 5.16043091 C-2 3 -2 3 0 0 Z " fill="#0C0C0C" transform="translate(451,26)"/>
<path d="M0 0 C0 3.63 0 7.26 0 11 C-7.00215616 10.40071636 -13.7502223 9.3786571 -20.625 7.9375 C-21.53378906 7.75123047 -22.44257813 7.56496094 -23.37890625 7.37304688 C-25.5869003 6.91982704 -27.79385124 6.46210307 -30 6 C-30 5.67 -30 5.34 -30 5 C-25.75117602 4.16059383 -21.50076295 3.32952653 -17.25 2.5 C-16.0434375 2.26152344 -14.836875 2.02304688 -13.59375 1.77734375 C-12.43359375 1.55175781 -11.2734375 1.32617188 -10.078125 1.09375 C-9.00981445 0.88427734 -7.94150391 0.67480469 -6.84082031 0.45898438 C-4 0 -4 0 0 0 Z " fill="#E9E9E9" transform="translate(355,240)"/>
<path d="M0 0 C0 3.63 0 7.26 0 11 C-23.92383836 8.52602772 -23.92383836 8.52602772 -29 7 C-29.33 6.34 -29.66 5.68 -30 5 C-25.56331259 4.16230066 -21.12552409 3.3305862 -16.6875 2.5 C-15.42486328 2.26152344 -14.16222656 2.02304688 -12.86132812 1.77734375 C-11.65283203 1.55175781 -10.44433594 1.32617188 -9.19921875 1.09375 C-8.08377686 0.88427734 -6.96833496 0.67480469 -5.8190918 0.45898438 C-3 0 -3 0 0 0 Z " fill="#EDEDED" transform="translate(1207,238)"/>
<path d="M0 0 C0 3.3 0 6.6 0 10 C-6.72861035 9.44847456 -13.38818138 8.56355424 -20.0625 7.5625 C-21.34894409 7.37917114 -21.34894409 7.37917114 -22.66137695 7.19213867 C-24.78617455 6.86444416 -26.89564088 6.44025131 -29 6 C-29.33 5.34 -29.66 4.68 -30 4 C-26.50221037 3.32137828 -23.00147657 2.65931111 -19.5 2 C-18.51773438 1.80921875 -17.53546875 1.6184375 -16.5234375 1.421875 C-10.90985321 0.37400593 -5.7096591 -0.21751082 0 0 Z " fill="#EDEDED" transform="translate(98,239)"/>
<path d="M0 0 C9.24 1.65 18.48 3.3 28 5 C28 5.66 28 6.32 28 7 C24.45995797 7.6754914 20.91773831 8.33880798 17.375 9 C16.37597656 9.19078125 15.37695312 9.3815625 14.34765625 9.578125 C9.50947407 10.47527136 4.94607582 11.27009288 0 11 C0 7.37 0 3.74 0 0 Z " fill="#F0F0F0" transform="translate(1366,238)"/>
<path d="M0 0 C9.87956066 0.49059462 19.33360714 2.02701352 29 4 C29 4.66 29 5.32 29 6 C24.91749118 6.67178263 20.83386883 7.33653942 16.75 8 C15.01169922 8.28617188 15.01169922 8.28617188 13.23828125 8.578125 C12.12324219 8.75859375 11.00820313 8.9390625 9.859375 9.125 C8.31975098 9.37636719 8.31975098 9.37636719 6.74902344 9.6328125 C4 10 4 10 0 10 C0 6.7 0 3.4 0 0 Z " fill="#F0F0F0" transform="translate(258,239)"/>
<path d="M0 0 C2.125 0.9375 2.125 0.9375 4 2 C4.60495083 7.97145015 2.47335225 12.41135839 0.125 17.75 C-0.23980469 18.61238281 -0.60460937 19.47476563 -0.98046875 20.36328125 C-3.71323403 26.71323403 -3.71323403 26.71323403 -6 29 C-8.125 28.625 -8.125 28.625 -10 28 C-9.42984529 23.67579292 -8.35301328 20.15638255 -6.5625 16.1875 C-4.91999874 12.40219536 -3.61444862 8.86104708 -2.8125 4.8125 C-2.544375 3.554375 -2.27625 2.29625 -2 1 C-1.34 0.67 -0.68 0.34 0 0 Z " fill="#111111" transform="translate(375,816)"/>
<path d="M0 0 C2.0625 0.4375 2.0625 0.4375 4 1 C4.30946049 6.45072449 3.36252079 10.60112304 1.25 15.5625 C0.99734375 16.19607422 0.7446875 16.82964844 0.484375 17.48242188 C-1.24988167 21.69232994 -3.36774534 25.28623201 -6 29 C-7.32 28.34 -8.64 27.68 -10 27 C-9.05106188 22.37246225 -7.06140482 18.09605152 -5.25976562 13.75195312 C-3.95594325 10.55872066 -2.78772193 7.40958694 -1.87109375 4.08203125 C-1 1 -1 1 0 0 Z " fill="#121212" transform="translate(1227,818)"/>
<path d="M0 0 C0 1.32 0 2.64 0 4 C-9.94033653 7.50931421 -18.46826538 9.19071552 -29 9 C-29.33 7.68 -29.66 6.36 -30 5 C-24.76455242 3.10766955 -19.71581202 2.2954416 -14.21875 1.5625 C-10.95720997 1.07603587 -10.95720997 1.07603587 -7.7734375 -0.0859375 C-4.69274187 -1.10126536 -3.07053676 -0.90309905 0 0 Z " fill="#0D0D0D" transform="translate(1186,873)"/>
<path d="M0 0 C1.65 0.33 3.3 0.66 5 1 C4.36729317 3.76027465 3.54086784 6.29023274 2.44140625 8.8984375 C2.13783203 9.62546875 1.83425781 10.3525 1.52148438 11.1015625 C1.20501953 11.85179687 0.88855469 12.60203125 0.5625 13.375 C-1.47106609 18.20524358 -3.41957134 22.99663287 -5 28 C-6.65 27.67 -8.3 27.34 -10 27 C-9.42345329 22.03916403 -8.36878009 17.63779696 -6.6875 12.9375 C-6.27886719 11.77089844 -5.87023438 10.60429688 -5.44921875 9.40234375 C-3.94203028 5.86390396 -2.22502288 3.1169297 0 0 Z " fill="#0F0F0F" transform="translate(1096,771)"/>
<path d="M0 0 C9.68019925 1.59294418 19.34116022 3.28338156 29 5 C25.73469745 7.17686837 23.85716819 7.50870709 20.01953125 8.0703125 C18.85615234 8.24433594 17.69277344 8.41835937 16.49414062 8.59765625 C15.27919922 8.77167969 14.06425781 8.94570312 12.8125 9.125 C11.58595703 9.30675781 10.35941406 9.48851562 9.09570312 9.67578125 C6.06472797 10.123941 3.03289507 10.56505607 0 11 C0 7.37 0 3.74 0 0 Z " fill="#F6F6F6" transform="translate(1111,240)"/>
<path d="M0 0 C1.41539063 0.20302734 1.41539063 0.20302734 2.859375 0.41015625 C5.0403321 0.72258439 7.22172424 1.03057489 9.40429688 1.33154297 C12.02060457 1.6929142 14.63528572 2.06478853 17.25 2.4375 C18.1471875 2.55931641 19.044375 2.68113281 19.96875 2.80664062 C20.82984375 2.93103516 21.6909375 3.05542969 22.578125 3.18359375 C23.35575195 3.29243896 24.13337891 3.40128418 24.93457031 3.51342773 C27 4 27 4 30 6 C25.9385397 6.67310593 21.87567904 7.33735482 17.8125 8 C16.66201172 8.19078125 15.51152344 8.3815625 14.32617188 8.578125 C13.21435547 8.75859375 12.10253906 8.9390625 10.95703125 9.125 C9.42526245 9.37636719 9.42526245 9.37636719 7.86254883 9.6328125 C5 10 5 10 0 10 C0 6.7 0 3.4 0 0 Z " fill="#E9E9E9" transform="translate(1366,95)"/>
<path d="M0 0 C0 2.3125 0 2.3125 -1 5 C-9.97222578 9.40740916 -19.20814355 9.14687785 -29 9 C-28.67 7.35 -28.34 5.7 -28 4 C-26.73542969 3.79503906 -25.47085937 3.59007812 -24.16796875 3.37890625 C-22.50779137 3.10689979 -20.84763627 2.83475728 -19.1875 2.5625 C-18.35412109 2.42779297 -17.52074219 2.29308594 -16.66210938 2.15429688 C-15.85966797 2.02216797 -15.05722656 1.89003906 -14.23046875 1.75390625 C-13.49207764 1.63345947 -12.75368652 1.5130127 -11.99291992 1.38891602 C-7.76458158 0.56376068 -4.39618245 -0.08294684 0 0 Z " fill="#0D0D0D" transform="translate(333,871)"/>
<path d="M0 0 C9.77336419 0.76653837 19.98063156 2.78007817 27 10 C26.67 11.32 26.34 12.64 26 14 C23.1162845 13.57592419 20.94667255 12.9723952 18.34375 11.625 C14.51701024 9.76527601 10.69095605 8.5293458 6.625 7.3125 C5.88894531 7.08755859 5.15289063 6.86261719 4.39453125 6.63085938 C2.5977926 6.08250407 0.79909253 5.54058243 -1 5 C-0.67 3.35 -0.34 1.7 0 0 Z " fill="#0C0C0C" transform="translate(1170,736)"/>
<path d="M0 0 C0.1875 2.3125 0.1875 2.3125 0 5 C-0.70298218 5.68908447 -0.70298218 5.68908447 -1.42016602 6.39208984 C-3.32931216 8.33516456 -3.75480156 9.79977914 -4.46484375 12.4140625 C-4.70783203 13.25710938 -4.95082031 14.10015625 -5.20117188 14.96875 C-5.69379215 16.74584172 -6.18073652 18.52451619 -6.66210938 20.3046875 C-6.90638672 21.14515625 -7.15066406 21.985625 -7.40234375 22.8515625 C-7.61366943 23.62322754 -7.82499512 24.39489258 -8.04272461 25.18994141 C-9 27 -9 27 -11.03735352 27.82177734 C-11.68502686 27.88059082 -12.3327002 27.9394043 -13 28 C-13.33 27.67 -13.66 27.34 -14 27 C-13.52096305 18.69669287 -11.65884312 8.89081158 -6.5 2.1875 C-4 0 -4 0 0 0 Z " fill="#0A0A0A" transform="translate(248,769)"/>
<path d="M0 0 C5.97373858 -0.2917253 10.21478321 0.40535512 15.6875 2.75 C16.32494141 3.00265625 16.96238281 3.2553125 17.61914062 3.515625 C21.61253699 5.16408583 24.76165392 7.1517415 28 10 C27.34 11.32 26.68 12.64 26 14 C21.96634675 12.70325518 18.07944241 11.23494112 14.1875 9.5625 C9.18437654 7.45131931 4.17559185 5.63893742 -1 4 C-0.67 2.68 -0.34 1.36 0 0 Z " fill="#0D0D0D" transform="translate(317,735)"/>
<path d="M0 0 C0.66 0 1.32 0 2 0 C2.84109099 3.24804287 3.67150656 6.49872304 4.5 9.75 C4.73847656 10.67039062 4.97695313 11.59078125 5.22265625 12.5390625 C5.44824219 13.42851563 5.67382812 14.31796875 5.90625 15.234375 C6.11572266 16.05131836 6.32519531 16.86826172 6.54101562 17.70996094 C7 20 7 20 7 24 C3.04 24 -0.92 24 -5 24 C-4.35534934 20.74976133 -3.70932768 17.49980549 -3.0625 14.25 C-2.88009766 13.32960938 -2.69769531 12.40921875 -2.50976562 11.4609375 C-2.33251953 10.57148437 -2.15527344 9.68203125 -1.97265625 8.765625 C-1.81031494 7.94868164 -1.64797363 7.13173828 -1.48071289 6.29003906 C-1.03730797 4.17772917 -0.53920019 2.089663 0 0 Z " fill="#F3F3F3" transform="translate(480,42)"/>
<path d="M0 0 C3.442162 0.59599271 6.42147679 1.49287795 9.625 2.875 C14.96658046 5.0792064 20.40197985 6.59517365 26 8 C26.5625 9.9375 26.5625 9.9375 27 12 C26 13 26 13 22.9140625 13.20703125 C18.7634752 12.98748921 15.25414141 12.06333369 11.375 10.6875 C10.73304688 10.47416016 10.09109375 10.26082031 9.4296875 10.04101562 C5.65402553 8.74506607 2.34031925 7.18208594 -1 5 C-0.67 3.35 -0.34 1.7 0 0 Z " fill="#0B0B0B" transform="translate(270,866)"/>
<path d="M0 0 C4.39280084 0.68164151 8.29970924 2.23127887 12.375 3.9375 C17.1983387 5.95212622 21.94652236 7.64848854 27 9 C27 10.32 27 11.64 27 13 C20.72500947 13.66052532 16.00577391 12.54081618 10.1875 10.1875 C9.54159912 9.92694824 8.89569824 9.66639648 8.23022461 9.39794922 C4.80830446 7.95146494 1.85001093 6.39056333 -1 4 C-0.67 2.68 -0.34 1.36 0 0 Z " fill="#080808" transform="translate(1122,867)"/>
<path d="M0 0 C0 2.97 0 5.94 0 9 C-9.73428976 7.99337378 -19.40558907 6.98650799 -29 5 C-26.0842142 3.0561428 -24.87347041 2.63786483 -21.54296875 2.1484375 C-20.67736328 2.01953125 -19.81175781 1.890625 -18.91992188 1.7578125 C-18.01822266 1.63148437 -17.11652344 1.50515625 -16.1875 1.375 C-14.85235352 1.17390625 -14.85235352 1.17390625 -13.49023438 0.96875 C-8.95535068 0.30986401 -4.59622296 -0.16713538 0 0 Z " fill="#F0F0F0" transform="translate(98,96)"/>
</svg>
