<?xml version="1.0" encoding="UTF-8"?>
<svg version="1.1" xmlns="http://www.w3.org/2000/svg" width="886" height="1520">
<path d="M0 0 C292.38 0 584.76 0 886 0 C886 501.6 886 1003.2 886 1520 C593.62 1520 301.24 1520 0 1520 C0 1018.4 0 516.8 0 0 Z " fill="#FEFEFE" transform="translate(0,0)"/>
<path d="M0 0 C2.52623177 -0.36914349 2.52623177 -0.36914349 5.78323364 -0.36076355 C7.63005737 -0.36694954 7.63005737 -0.36694954 9.51419067 -0.3732605 C10.88592746 -0.36264237 12.25766206 -0.35173794 13.62939453 -0.34057617 C15.06809471 -0.33973032 16.50679618 -0.34020422 17.94549561 -0.34190369 C21.85858822 -0.34276671 25.77140664 -0.32509156 29.68443537 -0.30418181 C33.77104469 -0.28546598 37.85765985 -0.28366861 41.94430542 -0.28010559 C49.68623009 -0.2707701 57.42802813 -0.24613607 65.16989696 -0.21605712 C73.98233339 -0.1825598 82.79477577 -0.16603887 91.60725999 -0.15097082 C109.7382452 -0.11958775 127.86911243 -0.06679814 146 0 C146.94551284 55.03788671 147.66441382 110.07492987 148.09367851 165.11938872 C148.14493659 171.66814731 148.19800582 178.21689006 148.25219727 184.765625 C148.26295199 186.06895789 148.27370672 187.37229078 148.28478735 188.7151186 C148.46154909 209.6170324 148.78384387 230.51416013 149.16326464 251.41326647 C149.55137223 272.97625803 149.77537062 294.53680559 149.85762829 316.10314429 C149.90808015 328.16937918 150.02674835 340.2257009 150.33493233 352.28834152 C152.32030563 432.25277329 152.32030563 432.25277329 136.59957886 467.74932861 C136.19804718 468.65613612 135.79651551 469.56294362 135.38281621 470.49723014 C126.77550811 489.49600588 115.56350598 507.03250068 105 525 C48.9 525 -7.2 525 -65 525 C-65 362.97 -65 200.94 -65 34 C-51.8 33.67 -38.6 33.34 -25 33 C-16.49230446 21.94339709 -16.49230446 21.94339709 -8 10.875 C-7.44183594 10.14796875 -6.88367188 9.4209375 -6.30859375 8.671875 C-5.77363281 7.97320313 -5.23867187 7.27453125 -4.6875 6.5546875 C-4.21699219 5.94093262 -3.74648437 5.32717773 -3.26171875 4.69482422 C-2.12381958 3.16632267 -1.05701052 1.58551578 0 0 Z " fill="#FEFEFE" transform="translate(229,836)"/>
<path d="M0 0 C56.1 0 112.2 0 170 0 C212.43094375 84.8618875 212.43094375 84.8618875 212.16173178 96.81167668 C212.14302913 98.01427809 212.14302913 98.01427809 212.12394864 99.24117448 C212.1102015 100.07276778 212.09645437 100.90436108 212.08229065 101.76115417 C212.08622739 103.56772799 212.09412968 105.37429667 212.10559314 107.18083841 C212.12550006 112.08687156 212.09002759 116.99110066 212.04459059 121.89690435 C212.00541498 127.20881614 212.01889842 132.52064108 212.02571106 137.83265686 C212.0304109 147.01664674 212.00237777 156.20005739 211.95157051 165.3839016 C211.87816213 178.66179489 211.85496057 191.93941054 211.84367859 205.21748475 C211.82402224 226.76453301 211.76424049 248.31127315 211.67895508 269.8581543 C211.59623656 290.77838611 211.53258341 311.69853397 211.49438477 332.61889648 C211.49202025 333.91026082 211.48965574 335.20162515 211.48721958 336.53212174 C211.47547352 343.01106609 211.46410032 349.49001102 211.45291245 355.96895635 C211.35974071 409.64618374 211.20133544 463.32307678 211 517 C192.21547426 517.21035485 173.4311879 517.36900388 154.64572811 517.46630955 C145.92300454 517.51269396 137.20101326 517.57591639 128.47875977 517.67895508 C120.87530082 517.76873419 113.27237223 517.82674088 105.66839796 517.84679645 C101.6427704 517.85851853 97.61865986 517.88600948 93.59351921 517.95157051 C89.80177111 518.01282762 86.01215901 518.03147357 82.21996307 518.01796913 C80.83114811 518.02043804 79.44225917 518.03824996 78.05387306 518.07284927 C67.58965692 518.3207535 67.58965692 518.3207535 63.67617989 515.06927299 C61.87696115 512.79020443 60.42559782 510.52546395 59 508 C58.06419448 506.64908163 57.11823604 505.30505832 56.15625 503.97265625 C55.26792126 502.67125383 54.38251606 501.36785115 53.5 500.0625 C52.55647472 498.67545111 51.61246419 497.2887322 50.66796875 495.90234375 C50.21599121 495.23831543 49.76401367 494.57428711 49.29833984 493.89013672 C46.96687991 490.49597297 44.55866318 487.1559983 42.14453125 483.8203125 C41 482 41 482 41 480 C20.705 479.505 20.705 479.505 0 479 C0 320.93 0 162.86 0 0 Z " fill="#FEFEFE" transform="translate(164,173)"/>
<path d="M0 0 C1.32 0 2.64 0 4 0 C5.43509221 2.87018441 5.11158506 5.33543723 5.09765625 8.5390625 C5.09443359 9.84101562 5.09121094 11.14296875 5.08789062 12.484375 C5.07953466 13.86458399 5.07106971 15.24479232 5.0625 16.625 C5.05748501 18.01301926 5.0529221 19.40104022 5.04882812 20.7890625 C5.03700976 24.19275132 5.02053434 27.59635439 5 31 C5.95551758 30.83395264 6.91103516 30.66790527 7.89550781 30.49682617 C39.81993268 24.95593562 39.81993268 24.95593562 51.6875 23.125 C52.43741211 23.00535889 53.18732422 22.88571777 53.95996094 22.76245117 C58.7050115 22.05069359 63.21722006 21.82071167 68 22 C69 23 69 23 69 32 C96.06 32 123.12 32 151 32 C151 29.69 151 27.38 151 25 C151.66 24.01 152.32 23.02 153 22 C159.34050579 21.34408561 165.14240895 22.48185597 171.36425781 23.72119141 C176.84803172 24.81015888 182.34281266 25.69463759 187.875 26.5 C197.27355462 27.87352967 206.63481821 29.41396115 216 31 C216 21.1 216 11.2 216 1 C217.65 0.67 219.3 0.34 221 0 C223.59375861 2.59375861 223.24308065 4.36841371 223.26748681 7.90223122 C223.26302537 8.73548613 223.25856392 9.56874104 223.25396729 10.42724609 C223.25708727 11.30959112 223.26020725 12.19193615 223.26342177 13.10101891 C223.271437 16.0752252 223.26506446 19.04922947 223.25878906 22.0234375 C223.26149736 24.14854045 223.26505738 26.27364246 223.26940918 28.39874268 C223.27855463 34.18372127 223.27498006 39.96862881 223.26865101 45.7536087 C223.26360214 51.79586484 223.26827935 57.83811473 223.27142334 63.88037109 C223.27506624 74.02898251 223.27025539 84.17756486 223.26074219 94.32617188 C223.24985703 106.07434354 223.25338238 117.82244579 223.264395 129.57061577 C223.27345865 139.64109836 223.27475768 149.71156001 223.26951766 159.78204536 C223.26639287 165.80382551 223.26600251 171.825573 223.27259064 177.84735107 C223.27835009 183.50748712 223.27439298 189.16753331 223.26280212 194.82765961 C223.26014801 196.91024374 223.26093334 198.99283538 223.26532745 201.07541656 C223.27075483 203.90796592 223.26398314 206.74022339 223.25396729 209.57275391 C223.25842873 210.40600882 223.26289017 211.23926373 223.26748681 212.09776878 C223.22830005 217.77169995 223.22830005 217.77169995 221 220 C220.01 220 219.02 220 218 220 C218.35352136 220.55232971 218.70704272 221.10465941 219.07127684 221.67372638 C224.39164312 231.34317923 223.69967635 241.12085613 223.63923645 251.83622742 C223.64555245 253.96587577 223.65405796 256.09551856 223.66455668 258.22515041 C223.68701883 264.06083458 223.67851325 269.8961223 223.6648711 275.73181856 C223.65559866 282.03096893 223.67515893 288.33003807 223.69119263 294.62916565 C223.71502364 305.53739401 223.72081782 316.44548754 223.71384621 327.35373497 C223.70661249 338.79091987 223.70972264 350.22802541 223.72656822 361.66520119 C223.72761087 362.3770273 223.72865352 363.0888534 223.72972776 363.82225 C223.73507671 367.43743477 223.7406097 371.05261924 223.74621352 374.66780362 C223.78554746 400.25664597 223.80180899 425.84545593 223.80444336 451.43432617 C223.80705514 476.28948801 223.82015424 501.14460829 223.84741211 525.99975586 C223.84824853 526.76625381 223.84908496 527.53275176 223.84994673 528.32247692 C223.85835822 536.02014889 223.86698249 543.7178206 223.87576263 551.41549215 C223.89364306 567.09574452 223.91010351 582.77599826 223.92570496 598.45625305 C223.926424 599.17716417 223.92714303 599.89807529 223.92788386 600.64083219 C223.97571588 648.76054135 223.99034578 696.88026964 224 745 C224.33 744.67 224.66 744.34 225 744 C227.14705027 743.90086916 229.29742466 743.87367626 231.44676208 743.87301636 C232.12815862 743.87145637 232.80955516 743.86989638 233.51160008 743.86828911 C235.81170999 743.864277 238.11175475 743.86746957 240.41186523 743.87060547 C242.05406737 743.86925151 243.69626921 743.86747161 245.33847046 743.86529541 C249.8115509 743.86072009 254.28460838 743.86251113 258.75768924 743.8656745 C263.42928554 743.86819802 268.10087982 743.86586054 272.7724762 743.86428833 C280.62021235 743.86246643 288.4679391 743.86487329 296.31567383 743.86962891 C305.39914594 743.87506967 314.4825956 743.8733103 323.56606716 743.8678025 C331.35204334 743.86326969 339.13801276 743.86262171 346.92398983 743.86524117 C351.57979231 743.86680326 356.23558423 743.86699959 360.89138603 743.86370468 C365.26861373 743.86082361 369.6458124 743.86280605 374.02303696 743.86859894 C375.63314198 743.86992534 377.24324943 743.86953443 378.8533535 743.86733627 C381.04435382 743.86462005 383.23526001 743.86801175 385.42625427 743.87301636 C387.26881381 743.8735819 387.26881381 743.8735819 389.14859676 743.87415886 C392 744 392 744 394 745 C393.125 749.875 393.125 749.875 392 751 C389.86561466 751.09911401 387.72788705 751.12632366 385.59120178 751.12698364 C384.9138888 751.12854363 384.23657581 751.13010362 383.53873819 751.13171089 C381.25244769 751.13572295 378.96622273 751.13253045 376.67993164 751.12939453 C375.04758159 751.13074849 373.41523185 751.1325284 371.78288269 751.13470459 C367.33666086 751.13927988 362.89046212 751.13748888 358.44423985 751.1343255 C353.80067076 751.13180197 349.15710371 751.13413946 344.51353455 751.13571167 C336.71287682 751.13753357 328.91222855 751.13512672 321.11157227 751.13037109 C312.08263169 751.12493034 303.05371369 751.12668969 294.02477366 751.1321975 C286.2855062 751.13673033 278.54624556 751.13737828 270.80697721 751.13475883 C266.17912039 751.13319675 261.55127419 751.13300037 256.92341805 751.13629532 C252.57245511 751.13917643 248.22152137 751.13719389 243.8705616 751.13140106 C242.27013192 751.13007468 240.6696998 751.13046554 239.06927109 751.13266373 C236.89140775 751.13538002 234.7136391 751.13198817 232.53578186 751.12698364 C231.31478318 751.12660662 230.0937845 751.12622959 228.83578587 751.12584114 C226 751 226 751 224 750 C224 910.71 224 1071.42 224 1237 C253.205 1178.59 253.205 1178.59 283 1119 C286 1117 286 1117 288.1875 1117.375 C289.0846875 1117.684375 289.0846875 1117.684375 290 1118 C291.25348607 1120.95106435 291.01044806 1121.97406463 289.78515625 1125.015625 C288.93244141 1126.61664062 288.93244141 1126.61664062 288.0625 1128.25 C287.49660156 1129.32765625 286.93070312 1130.4053125 286.34765625 1131.515625 C285.90292969 1132.33546875 285.45820313 1133.1553125 285 1134 C284.34 1134 283.68 1134 283 1134 C282.71125 1134.9075 282.4225 1135.815 282.125 1136.75 C281 1140 281 1140 279.875 1142.125 C278.71807636 1144.25926907 278.71807636 1144.25926907 279 1148 C279.60303955 1148.23259521 280.2060791 1148.46519043 280.82739258 1148.70483398 C291.02060094 1152.78916395 300.82120568 1157.6720693 310.64916992 1162.55688477 C313.71243732 1164.07485745 316.78476282 1165.57341351 319.85742188 1167.07226562 C321.8052747 1168.0378789 323.75256197 1169.00463404 325.69921875 1169.97265625 C326.6188591 1170.41754898 327.53849945 1170.86244171 328.48600769 1171.32081604 C329.74916557 1171.95683998 329.74916557 1171.95683998 331.0378418 1172.60571289 C331.781082 1172.97257706 332.5243222 1173.33944122 333.29008484 1173.71742249 C335 1175 335 1175 335.80989075 1177.01585388 C336.07505496 1179.78333913 335.1106978 1180.98434469 333.5625 1183.25 C333.08941406 1183.95640625 332.61632812 1184.6628125 332.12890625 1185.390625 C331.75636719 1185.92171875 331.38382812 1186.4528125 331 1187 C331.90621094 1187.94359375 332.81242187 1188.8871875 333.74609375 1189.859375 C341.08291314 1197.56364104 347.90014738 1205.26510076 354 1214 C354.763125 1215.05574219 355.52625 1216.11148437 356.3125 1217.19921875 C384 1256.35269336 384 1256.35269336 384 1274 C384.78246094 1273.91621094 385.56492187 1273.83242187 386.37109375 1273.74609375 C387.38300781 1273.64425781 388.39492188 1273.54242187 389.4375 1273.4375 C390.44683594 1273.33308594 391.45617187 1273.22867187 392.49609375 1273.12109375 C393.32238281 1273.08113281 394.14867187 1273.04117187 395 1273 C396.73450133 1274.73450133 396.12757233 1277.0892216 396.12939453 1279.45019531 C396.13412277 1281.19771088 396.13412277 1281.19771088 396.13894653 1282.98052979 C396.1369223 1284.25023621 396.13489807 1285.51994263 396.1328125 1286.828125 C396.13376923 1288.12441833 396.13472595 1289.42071167 396.13571167 1290.75628662 C396.13718903 1293.50697006 396.13503428 1296.2576211 396.13037109 1299.00830078 C396.1246962 1302.52663402 396.12793827 1306.0448906 396.13394356 1309.56322098 C396.13843947 1312.92236169 396.13528441 1316.28148212 396.1328125 1319.640625 C396.13483673 1320.9022345 396.13686096 1322.16384399 396.13894653 1323.46368408 C396.13579437 1324.6413031 396.13264221 1325.81892212 396.12939453 1327.03222656 C396.12820114 1328.58324066 396.12820114 1328.58324066 396.12698364 1330.16558838 C396.00531949 1332.88126323 395.6115603 1335.35563435 395 1338 C395.93384521 1337.99476318 396.86769043 1337.98952637 397.82983398 1337.98413086 C401.28312796 1337.9671238 404.73637767 1337.95456698 408.18969727 1337.94506836 C409.68644918 1337.94002879 411.18319616 1337.93319713 412.67993164 1337.92456055 C414.82699807 1337.91247841 416.97399962 1337.90676809 419.12109375 1337.90234375 C420.4145874 1337.89710693 421.70808105 1337.89187012 423.04077148 1337.88647461 C426 1338 426 1338 427 1339 C427.04063832 1340.66617115 427.042721 1342.33388095 427 1344 C423.57847469 1345.71076266 419.65428327 1345.14016727 415.8894043 1345.13371277 C414.93355533 1345.13597833 413.97770636 1345.13824388 412.99289227 1345.14057809 C409.76998902 1345.14693985 406.5471276 1345.14608734 403.32421875 1345.14526367 C401.02177882 1345.14825377 398.71933939 1345.15165595 396.41690063 1345.15544128 C390.14848697 1345.1642998 383.88008695 1345.16662015 377.61166763 1345.16725707 C372.38759433 1345.1682045 367.16352424 1345.1718808 361.93945217 1345.17542917 C350.3251103 1345.1831144 338.71077511 1345.18609715 327.0964309 1345.18542381 C326.39913019 1345.18538386 325.70182947 1345.1853439 324.98339844 1345.18530273 C323.93617609 1345.18524141 323.93617609 1345.18524141 322.86779773 1345.18517885 C311.54637391 1345.18477217 300.22498331 1345.19434686 288.9035691 1345.2084411 C277.28922578 1345.2227864 265.6749002 1345.22952895 254.06054783 1345.22884732 C247.53574195 1345.22859165 241.01097367 1345.23148122 234.48617554 1345.24202538 C228.35328204 1345.25166519 222.22046239 1345.25181401 216.08756638 1345.24450874 C213.83082345 1345.24345781 211.57407601 1345.24585565 209.31734085 1345.2518692 C206.24833728 1345.2595205 203.17959319 1345.25499026 200.1105957 1345.24723816 C199.20730372 1345.25238172 198.30401175 1345.25752529 197.37334728 1345.26282471 C191.22827132 1345.22827132 191.22827132 1345.22827132 189 1343 C189.53571429 1339.46428571 189.53571429 1339.46428571 191 1338 C193.52935252 1337.90225308 196.03137417 1337.8700459 198.56117249 1337.87974548 C199.36240317 1337.87889106 200.16363386 1337.87803663 200.98914427 1337.87715632 C203.69468934 1337.87549907 206.40017346 1337.88102686 209.10571289 1337.88647461 C211.03687031 1337.88675645 212.96802783 1337.8865988 214.89918518 1337.8860321 C220.15929809 1337.88574402 225.41938841 1337.89164243 230.67949605 1337.89860606 C236.17015422 1337.90483788 241.66081284 1337.90544326 247.151474 1337.90663147 C257.55665691 1337.9097453 267.96182937 1337.91795937 278.36700767 1337.92798096 C290.20960946 1337.93914051 302.05221174 1337.94465215 313.89481747 1337.94967639 C338.26321745 1337.96014195 362.63160814 1337.97774237 387 1338 C386.80431427 1337.41376106 386.60862854 1336.82752213 386.40701294 1336.22351837 C385.50285465 1333.5143327 384.5990818 1330.80501859 383.6953125 1328.09570312 C383.38762939 1327.17396301 383.07994629 1326.2522229 382.76293945 1325.30255127 C380.03665288 1317.12818147 377.33694084 1308.94603378 374.71728516 1300.73681641 C374.22942785 1299.21545881 373.73672951 1297.69564695 373.23974609 1296.17724609 C372.50277704 1293.92368478 371.78106548 1291.66573642 371.0625 1289.40625 C370.72677979 1288.39540344 370.72677979 1288.39540344 370.38427734 1287.36413574 C369.19302097 1283.55274643 368.73851827 1280.83077079 370 1277 C371 1276 371 1276 374.0625 1275.9375 C375.031875 1275.958125 376.00125 1275.97875 377 1276 C366.86348876 1248.88993471 354.31860846 1224.70163645 335 1203 C334.22011719 1202.0925 333.44023437 1201.185 332.63671875 1200.25 C331.99347656 1199.5075 331.35023438 1198.765 330.6875 1198 C330.03136719 1197.236875 329.37523437 1196.47375 328.69921875 1195.6875 C327.1626146 1193.76511472 327.1626146 1193.76511472 325 1194 C324.566875 1194.66 324.13375 1195.32 323.6875 1196 C322 1198 322 1198 319.8449707 1198.54711914 C315.28485687 1197.67015912 312.92776636 1194.52068156 309.79296875 1191.24609375 C309.10874344 1190.55242203 308.42451813 1189.85875031 307.71955872 1189.14405823 C305.53012485 1186.92002211 303.35840052 1184.67961703 301.1875 1182.4375 C299.024053 1180.2238133 296.85704813 1178.01370541 294.68757629 1175.80592346 C293.33979934 1174.43211015 291.99600663 1173.05437195 290.6570282 1171.67198181 C285.13243342 1166.0038181 279.37836425 1160.69874102 273 1156 C272.45986771 1157.10025009 271.91973541 1158.20050018 271.36323547 1159.33409119 C266.27711025 1169.68858111 261.17212435 1180.03357561 256.04839802 1190.36951351 C253.41467465 1195.68398038 250.78776919 1201.0015969 248.17602539 1206.3269043 C245.65652036 1211.4635169 243.11965968 1216.59120186 240.57039452 1221.71310616 C239.59964567 1223.67126656 238.6352523 1225.63259062 237.67727089 1227.59702873 C236.33696972 1230.34271874 234.97475042 1233.07641007 233.60668945 1235.80834961 C233.01650528 1237.03725418 233.01650528 1237.03725418 232.41439819 1238.29098511 C229.62819926 1243.77197181 229.62819926 1243.77197181 226.21208191 1245.01197815 C225.48209488 1245.00802536 224.75210785 1245.00407257 224 1245 C224.03431122 1245.71175385 224.06862244 1246.42350769 224.10397339 1247.15682983 C223.99224686 1258.69036689 218.98643516 1267.48622713 213.8203125 1277.5390625 C212.88552337 1279.39571377 211.95251849 1281.25326434 211.02120972 1283.11166382 C209.07572949 1286.98284473 207.11629549 1290.84648219 205.14501953 1294.70458984 C202.61822353 1299.65021484 200.11614725 1304.60781411 197.62294197 1309.57044411 C195.23856748 1314.31411929 192.84255034 1319.05187835 190.4453125 1323.7890625 C189.98976109 1324.69149311 189.53420967 1325.59392372 189.06485367 1326.52370071 C187.77634733 1329.07070842 186.47968277 1331.61337611 185.18017578 1334.15478516 C184.79980164 1334.90903778 184.41942749 1335.66329041 184.02752686 1336.44039917 C180.6815288 1342.94426156 180.6815288 1342.94426156 178 1345 C175.63441408 1345.37374616 175.63441408 1345.37374616 172.77664757 1345.3719368 C171.6879551 1345.37852664 170.59926263 1345.38511649 169.47757947 1345.39190602 C167.67658306 1345.37982142 167.67658306 1345.37982142 165.83920288 1345.36749268 C164.56736039 1345.37076152 163.2955179 1345.37403036 161.98513472 1345.37739825 C158.44785922 1345.38606883 154.91084514 1345.37596022 151.37359238 1345.36285591 C147.56172372 1345.35198142 143.74987985 1345.35836707 139.93800354 1345.36264038 C132.46833771 1345.36828133 124.99877429 1345.35794502 117.52912591 1345.34235242 C108.83834609 1345.32484255 100.14758631 1345.3233938 91.45679159 1345.32273683 C75.95619825 1345.32104777 60.45565168 1345.30521973 44.95507812 1345.28125 C29.89810803 1345.25798301 14.84116761 1345.2438243 -0.21582031 1345.24023438 C-1.14342236 1345.24001161 -2.07102441 1345.23978884 -3.02673562 1345.23955932 C-4.89528064 1345.23911674 -6.76382565 1345.23867471 -8.63237067 1345.23823325 C-9.55400797 1345.23801369 -10.47564526 1345.23779412 -11.42521095 1345.2375679 C-12.34445287 1345.23735192 -13.26369479 1345.23713593 -14.21079252 1345.2369134 C-28.53892858 1345.23321649 -42.86705983 1345.22185722 -57.19519062 1345.2094375 C-62.39669678 1345.20499598 -67.59820249 1345.20156031 -72.79970981 1345.19881538 C-81.04776396 1345.19439085 -89.29580035 1345.1866454 -97.54384328 1345.17204097 C-101.31503744 1345.16541563 -105.08621586 1345.16036511 -108.85741615 1345.15958023 C-112.93602277 1345.15865375 -117.01457465 1345.14999324 -121.09317017 1345.14044189 C-122.29829589 1345.14130838 -123.5034216 1345.14217486 -124.74506629 1345.1430676 C-125.82854326 1345.13922645 -126.91202024 1345.13538531 -128.02832985 1345.13142776 C-128.97106809 1345.13018127 -129.91380634 1345.12893477 -130.8851124 1345.1276505 C-133 1345 -133 1345 -134 1344 C-134.125 1341.5 -134.125 1341.5 -134 1339 C-133 1338 -133 1338 -130.13256836 1337.88647461 C-128.25516968 1337.89432983 -128.25516968 1337.89432983 -126.33984375 1337.90234375 C-125.67537735 1337.9037587 -125.01091095 1337.90517365 -124.3263092 1337.90663147 C-122.19666101 1337.91224482 -120.06711661 1337.92479946 -117.9375 1337.9375 C-116.49674631 1337.94251329 -115.05599097 1337.94707649 -113.61523438 1337.95117188 C-110.07678898 1337.96221855 -106.53840461 1337.97949208 -103 1338 C-103.3108252 1336.95827637 -103.62165039 1335.91655273 -103.94189453 1334.84326172 C-104.8071843 1331.7003472 -105.45584516 1328.72379264 -105.9296875 1325.5078125 C-106.1603894 1323.97290161 -106.1603894 1323.97290161 -106.39575195 1322.40698242 C-106.55390381 1321.32392822 -106.71205566 1320.24087402 -106.875 1319.125 C-107.21901341 1316.81104326 -107.56409522 1314.49724515 -107.91015625 1312.18359375 C-108.08691895 1311.0013623 -108.26368164 1309.81913086 -108.44580078 1308.60107422 C-108.99510448 1305.03181009 -109.58180925 1301.47092056 -110.18359375 1297.91015625 C-110.46710693 1296.21705322 -110.46710693 1296.21705322 -110.75634766 1294.48974609 C-111.1202939 1292.32875535 -111.49080548 1290.16885753 -111.86865234 1288.01025391 C-112.03187988 1287.0310498 -112.19510742 1286.0518457 -112.36328125 1285.04296875 C-112.51063721 1284.18727295 -112.65799316 1283.33157715 -112.80981445 1282.44995117 C-113.01929967 1279.75138365 -112.69889625 1277.60775839 -112 1275 C-111 1274 -111 1274 -109.15234375 1273.90234375 C-107.1015625 1273.93489583 -105.05078125 1273.96744792 -103 1274 C-103.00184359 1273.15147776 -103.00368717 1272.30295551 -103.00558662 1271.42872047 C-103.0497054 1250.80703625 -103.08282717 1230.18536013 -103.10362434 1209.56363869 C-103.11394835 1199.5912367 -103.12803008 1189.61886617 -103.15087891 1179.64648438 C-103.17077845 1170.95719424 -103.18370825 1162.26792688 -103.18817699 1153.57861459 C-103.19079021 1148.97531019 -103.19695561 1144.37207095 -103.21146011 1139.76878738 C-103.22498983 1135.43998505 -103.22923204 1131.111275 -103.22621536 1126.78245354 C-103.2267676 1125.19008191 -103.23077243 1123.59770733 -103.23841095 1122.00535393 C-103.24830025 1119.83830328 -103.2459912 1117.67160521 -103.24050903 1115.50454712 C-103.24235262 1114.28962397 -103.24419621 1113.07470081 -103.24609566 1111.82296181 C-103 1109 -103 1109 -101 1107 C-98.4375 1107.25 -98.4375 1107.25 -96 1108 C-94.57212817 1110.85574366 -94.87730762 1113.27297711 -94.87974548 1116.46658325 C-94.87889106 1117.13799469 -94.87803663 1117.80940613 -94.87715632 1118.50116336 C-94.87550312 1120.76138175 -94.88102028 1123.02152668 -94.88647461 1125.28173828 C-94.88675654 1126.89777627 -94.88659863 1128.51381438 -94.8860321 1130.12985229 C-94.88574436 1134.52629901 -94.89163731 1138.92271863 -94.89860606 1143.31915903 C-94.9048435 1147.9102709 -94.90544371 1152.50138333 -94.90663147 1157.09249878 C-94.90974363 1165.79059976 -94.91795548 1174.48868821 -94.92798096 1183.18678367 C-94.93914566 1193.0874864 -94.94465345 1202.98818972 -94.94967639 1212.88889718 C-94.96013818 1233.25927178 -94.9777354 1253.6296351 -95 1274 C-93.081875 1273.938125 -93.081875 1273.938125 -91.125 1273.875 C-88.9453125 1273.8046875 -88.9453125 1273.8046875 -87 1274 C-85 1276 -85 1276 -84.92016602 1277.76098633 C-85.96370243 1286.45023506 -87.45531107 1295.0645802 -88.9375 1303.6875 C-89.34000493 1306.0335357 -89.74137022 1308.37974139 -90.13954163 1310.72651672 C-90.38521724 1312.17420972 -90.63317503 1313.62151883 -90.88426208 1315.06828308 C-92.12332042 1322.36320226 -93.01962184 1329.64716383 -94 1337 C-63.64 1337.33 -33.28 1337.66 -2 1338 C-2 945.96 -2 553.92 -2 150 C-32.69 150 -63.38 150 -95 150 C-94.34 153.3 -93.68 156.6 -93 160 C-90.71342454 171.99010996 -88.61248317 184.00896187 -86.6875 196.0625 C-86.50396973 197.17431641 -86.32043945 198.28613281 -86.13134766 199.43164062 C-85.96812012 200.47642578 -85.80489258 201.52121094 -85.63671875 202.59765625 C-85.48936279 203.52070557 -85.34200684 204.44375488 -85.19018555 205.39477539 C-84.98849426 208.15760949 -85.27799225 210.33293207 -86 213 C-87 214 -87 214 -88.84765625 214.09765625 C-90.8984375 214.06510417 -92.94921875 214.03255208 -95 214 C-94.99815641 214.85367598 -94.99631283 215.70735195 -94.99441338 216.5868969 C-94.95029475 237.3337592 -94.91717291 258.08061345 -94.89637566 278.82751274 C-94.88605162 288.86044878 -94.87196982 298.89335356 -94.84912109 308.92626953 C-94.82922165 317.66829738 -94.81629177 326.41030259 -94.81182301 335.15235245 C-94.80920977 339.78360236 -94.80304427 344.41478749 -94.78853989 349.04601669 C-94.77501034 353.4010837 -94.77076793 357.75605899 -94.77378464 362.11114502 C-94.77323239 363.71319196 -94.76922747 365.31524183 -94.76158905 366.91727066 C-94.75170001 369.0974578 -94.75400871 371.27729448 -94.75949097 373.45748901 C-94.75764738 374.67978651 -94.75580379 375.90208401 -94.75390434 377.16142082 C-95 380 -95 380 -97 382 C-101.55555556 381.44444444 -101.55555556 381.44444444 -103 380 C-103.09692063 377.86106733 -103.12186803 375.71887033 -103.12025452 373.57774353 C-103.12110894 372.89901941 -103.12196337 372.2202953 -103.12284368 371.52100378 C-103.12450041 369.23004074 -103.118974 366.93914974 -103.11352539 364.64819336 C-103.11324353 363.01259869 -103.11340122 361.3770039 -103.1139679 359.7414093 C-103.11425593 355.28705414 -103.10835824 350.83272566 -103.10139394 346.37837672 C-103.09516139 341.72853526 -103.09455668 337.07869326 -103.09336853 332.42884827 C-103.09025492 323.61738298 -103.08204113 314.80593003 -103.07201904 305.99447018 C-103.06085882 295.96561892 -103.05534768 285.93676709 -103.05032361 275.90791118 C-103.03985854 255.27193389 -103.02225853 234.63596772 -103 214 C-104.27875 214.04125 -105.5575 214.0825 -106.875 214.125 C-109.0546875 214.1953125 -109.0546875 214.1953125 -111 214 C-113 212 -113 212 -113.06005859 210.12255859 C-112.1402428 202.58382981 -110.91324465 195.10899737 -109.625 187.625 C-107.93197182 177.68787369 -106.30293332 167.74717978 -104.90087891 157.76416016 C-104.10308788 152.20617575 -104.10308788 152.20617575 -103 150 C-104.35532837 150.00785522 -104.35532837 150.00785522 -105.73803711 150.01586914 C-109.07951489 150.03287686 -112.42094692 150.04543333 -115.76245117 150.05493164 C-117.21070073 150.05997101 -118.65894517 150.06680253 -120.10717773 150.07543945 C-122.18474588 150.08752247 -124.26224697 150.09323211 -126.33984375 150.09765625 C-127.59144287 150.10289307 -128.84304199 150.10812988 -130.13256836 150.11352539 C-133 150 -133 150 -134 149 C-134.125 146.5 -134.125 146.5 -134 144 C-133 143 -133 143 -130.87524837 142.8758015 C-129.45414504 142.87637108 -129.45414504 142.87637108 -128.00433254 142.87695217 C-126.91552207 142.87496112 -125.82671161 142.87297007 -124.70490688 142.87091869 C-122.88831234 142.87528795 -122.88831234 142.87528795 -121.03501892 142.87974548 C-119.12263478 142.87846385 -119.12263478 142.87846385 -117.17161661 142.87715632 C-113.61657372 142.87490896 -110.06156067 142.87893591 -106.50652158 142.88393438 C-102.67896419 142.88823526 -98.85140861 142.88679271 -95.02384949 142.8860321 C-88.38694291 142.88550664 -81.75004613 142.8886558 -75.11314201 142.89426994 C-65.51718141 142.90238189 -55.92122556 142.90499985 -46.3252619 142.90625793 C-30.75809834 142.90844894 -15.19094001 142.91511032 0.3762207 142.92456055 C15.502197 142.93373342 30.62817188 142.94081486 45.75415039 142.94506836 C47.15167024 142.94546244 47.15167024 142.94546244 48.57742281 142.94586449 C53.25118239 142.94716949 57.92494199 142.94843321 62.5987016 142.94967639 C101.39913806 142.96005051 140.19956868 142.97767013 179 143 C180.60326487 146.03778789 182.20514729 149.07630272 183.80679321 152.11494446 C184.25784455 152.96953389 184.70889589 153.82412332 185.17361546 154.70460939 C188.43474475 160.89390921 191.59899019 167.12140089 194.6484375 173.41796875 C195.11311432 174.37093338 195.57779114 175.32389801 196.05654907 176.30574036 C197.49882988 179.26497505 198.93707976 182.22614445 200.375 185.1875 C201.83527513 188.18767082 203.29639113 191.18743079 204.75772095 194.18708801 C205.65564505 196.03100375 206.55281474 197.87528714 207.44906616 199.72001648 C207.85694366 200.55901993 208.26482117 201.39802338 208.68505859 202.26245117 C209.03684174 202.98679855 209.38862488 203.71114594 209.75106812 204.45744324 C211.4818555 207.98095418 213.24439444 211.48878889 215 215 C215.33 157.25 215.66 99.5 216 40 C208.41 41.32 200.82 42.64 193 44 C188.29279218 44.74661151 183.58840064 45.48493651 178.875 46.1875 C176.70557486 46.51329706 174.53629749 46.84008003 172.3671875 47.16796875 C171.45050293 47.30485107 170.53381836 47.4417334 169.58935547 47.58276367 C167.8248985 47.86707981 166.06597328 48.18751841 164.3137207 48.53930664 C161.94279427 49.01139044 159.72790958 49.20078962 157.3125 49.25 C156.54550781 49.27578125 155.77851563 49.3015625 154.98828125 49.328125 C154.33214844 49.21984375 153.67601562 49.1115625 153 49 C151 46 151 46 151 39 C123.94 39 96.88 39 69 39 C69 41.97 69 44.94 69 48 C68 49 68 49 64.45263672 49.13793945 C60.13711897 49.08116737 56.0051529 48.52017484 51.7578125 47.79296875 C50.99056854 47.6669075 50.22332458 47.54084625 49.43283081 47.41096497 C46.99585121 47.00912308 44.56044985 46.59850035 42.125 46.1875 C40.53134692 45.92324299 38.93759735 45.65956717 37.34375 45.39648438 C33.55833082 44.77016488 29.77413037 44.13687767 25.99029541 43.50106812 C18.9944073 42.32880384 11.99702444 41.16545917 5 40 C5.00222061 41.14814178 5.00444122 42.29628357 5.00672913 43.47921753 C5.02696897 54.28024377 5.04197622 65.08126618 5.05181217 75.88230705 C5.05703885 81.43570621 5.06413261 86.9890901 5.07543945 92.54248047 C5.08627595 97.89815547 5.09227846 103.25381577 5.09487724 108.60950089 C5.09673011 110.65650794 5.10034809 112.70351416 5.10573006 114.75051498 C5.11295057 117.6095735 5.11399051 120.4685706 5.11352539 123.32763672 C5.11712067 124.18071411 5.12071594 125.0337915 5.12442017 125.91271973 C5.11405216 131.77189568 5.11405216 131.77189568 4 134 C-0.875 133.125 -0.875 133.125 -2 132 C-2.10051826 130.32171694 -2.13076288 128.63918897 -2.13371277 126.957901 C-2.14011024 125.31941444 -2.14011024 125.31941444 -2.14663696 123.64782715 C-2.14618378 122.43896851 -2.14573059 121.23010986 -2.14526367 119.98461914 C-2.14862228 118.71972153 -2.1519809 117.45482391 -2.15544128 116.15159607 C-2.16430157 112.67228831 -2.16662025 109.19300513 -2.16725707 105.71368718 C-2.16820452 102.81344479 -2.17188092 99.91320818 -2.17542917 97.012968 C-2.18358146 90.17278626 -2.1860127 83.33261768 -2.18530273 76.49243164 C-2.18470175 69.42660357 -2.19525589 62.3608518 -2.2110464 55.29504305 C-2.2241038 49.23728864 -2.22948739 43.17955921 -2.22884732 37.12179083 C-2.2285918 33.49995492 -2.23147266 29.87818677 -2.24202538 26.25636482 C-2.25346661 22.21911493 -2.24897062 18.18203693 -2.24291992 14.14477539 C-2.24853943 12.93794098 -2.25415894 11.73110657 -2.25994873 10.48770142 C-2.25575424 9.39255722 -2.25155975 8.29741302 -2.24723816 7.16908264 C-2.24778293 6.21356034 -2.24832769 5.25803804 -2.24888897 4.27356052 C-2 2 -2 2 0 0 Z M5 150 C5 308.07 5 466.14 5 629 C25.295 629.495 25.295 629.495 46 630 C46.66 631.65 47.32 633.3 48 635 C49.14667228 636.91954476 49.14667228 636.91954476 50.46875 638.71484375 C50.95303467 639.39482422 51.43731934 640.07480469 51.9362793 640.77539062 C52.45230713 641.48888672 52.96833496 642.20238281 53.5 642.9375 C54.02956299 643.67806641 54.55912598 644.41863281 55.10473633 645.18164062 C56.19613 646.70707981 57.28964707 648.23100195 58.38525391 649.75341797 C59.92412537 651.89443629 61.45413803 654.04143554 62.98046875 656.19140625 C66.70976697 661.83336009 66.70976697 661.83336009 71 667 C72.87294784 667.09652596 74.74958244 667.12187266 76.62501526 667.12025452 C78.45715576 667.12231651 78.45715576 667.12231651 80.3263092 667.12442017 C81.69223047 667.12088056 83.05815148 667.11724574 84.42407227 667.11352539 C85.85277301 667.11324352 87.2814739 667.11340124 88.71017456 667.1139679 C92.60049972 667.11425589 96.49079431 667.10835887 100.38111234 667.10139394 C104.44238205 667.0951607 108.50365239 667.09455663 112.56492615 667.09336853 C120.26078933 667.09025512 127.95663838 667.08204161 135.65249532 667.07201904 C144.41172114 667.06085819 153.17094761 667.05534753 161.93017876 667.05032361 C179.95346053 667.03985901 197.97672913 667.02225939 216 667 C216.52846939 612.51158964 216.93274032 558.02344211 217.17450258 503.53296518 C217.2032628 497.07430009 217.2330328 490.61564002 217.26342773 484.15698242 C217.26946087 482.8713842 217.27549401 481.58578598 217.28170998 480.26123024 C217.38131465 459.54757294 217.56238769 438.83541019 217.77451431 418.12263434 C217.99094193 396.80933697 218.11763115 375.49681264 218.16403538 354.1824618 C218.19254126 342.23500822 218.26071244 330.29067797 218.43179131 318.34434319 C221.30653713 254.64960958 221.30653713 254.64960958 199.71009827 196.29786682 C190.16006747 181.64160675 182.82315854 165.64631708 175 150 C118.9 150 62.8 150 5 150 Z M58.08351135 827.4241333 C55 833 55 833 45 846 C31.8 846.33 18.6 846.66 5 847 C5 1009.03 5 1171.06 5 1338 C61.1 1338 117.2 1338 175 1338 C191.92155562 1309.93781876 191.92155562 1309.93781876 206.59957886 1280.74932861 C207.24908035 1279.28278917 207.24908035 1279.28278917 207.91170309 1277.78662267 C223.77233108 1241.13649877 221.24527142 1200.91995779 220.24504865 1161.77020099 C219.94379046 1149.64034265 219.88970223 1137.51230085 219.84342467 1125.37923642 C219.75487063 1103.76411754 219.48537343 1082.15553655 219.09301758 1060.54394531 C218.71352047 1039.61815886 218.42489369 1018.69418241 218.25219727 997.765625 C218.2414256 996.46392929 218.23065394 995.16223357 218.21955586 993.82109253 C218.16602843 987.28735193 218.11422142 980.75359904 218.06326783 974.2198379 C217.64193714 920.47538698 216.92318204 866.73802058 216 813 C197.2241755 812.53135659 178.44954777 812.17943362 159.66907406 811.96375656 C150.94722666 811.86091652 142.22902616 811.72092702 133.50952148 811.49121094 C125.90303492 811.29091415 118.2991893 811.16262509 110.69013888 811.1182301 C106.664948 811.092296 102.64730603 811.03210295 98.62455559 810.88539886 C80.76499715 810.25970664 67.59068254 810.19783002 58.08351135 827.4241333 Z " fill="#0C0C0C" transform="translate(159,23)"/>
<path d="M0 0 C47.19 0 94.38 0 143 0 C143 43.56 143 87.12 143 132 C95.81 132 48.62 132 0 132 C0 88.44 0 44.88 0 0 Z " fill="#FDFDFD" transform="translate(232,697)"/>
<path d="M0 0 C11.22 0 22.44 0 34 0 C34 67.32 34 134.64 34 204 C22.78 204 11.56 204 0 204 C0 136.68 0 69.36 0 0 Z " fill="#FEFEFE" transform="translate(164,659)"/>
<path d="M0 0 C3.53571429 0.53571429 3.53571429 0.53571429 5 2 C5.09530981 5.04402422 5.12551639 8.06531708 5.11352539 11.10961914 C5.11367142 12.06561508 5.11381744 13.02161102 5.1139679 14.00657654 C5.11326835 17.18279245 5.10547403 20.35895052 5.09765625 23.53515625 C5.09579222 25.73091093 5.09436825 27.92666602 5.09336853 30.12242126 C5.08954219 35.91420633 5.07971091 41.7059665 5.06866455 47.4977417 C5.05845293 53.40278791 5.05387145 59.30783813 5.04882812 65.21289062 C5.03808875 76.80860472 5.02101093 88.40430029 5 100 C6.23613037 99.68393799 7.47226074 99.36787598 8.74584961 99.04223633 C12.98778902 97.95762912 17.22972851 97.29109738 21.5625 96.6875 C28.07487783 95.75534608 34.57081186 94.75071009 41.05859375 93.66015625 C42.46605205 93.42546271 43.87352279 93.19084379 45.28100586 92.95629883 C47.38479025 92.605491 49.48795823 92.25207299 51.58987427 91.89022827 C53.56911135 91.54984654 55.55015827 91.22004068 57.53125 90.890625 C59.25698242 90.59720215 59.25698242 90.59720215 61.01757812 90.29785156 C63.75318342 90.02464933 65.45079252 90.04967707 68 91 C69 92 69 92 69 101 C82.2 101 95.4 101 109 101 C109 98.03 109 95.06 109 92 C110 91 110 91 111.76977539 90.85839844 C117.11880938 90.8607043 122.17379314 91.32969428 127.4375 92.25 C129.08968371 92.52570038 130.74203802 92.80037972 132.39453125 93.07421875 C133.28350098 93.22294434 134.1724707 93.37166992 135.08837891 93.52490234 C138.288643 94.04709871 141.49282083 94.53645039 144.69921875 95.01953125 C145.84656494 95.19258789 146.99391113 95.36564453 148.17602539 95.54394531 C150.42625362 95.88226801 152.67673173 96.21893411 154.92749023 96.55371094 C155.97493408 96.71258789 157.02237793 96.87146484 158.1015625 97.03515625 C159.02275879 97.1731665 159.94395508 97.31117676 160.89306641 97.45336914 C163.51680257 97.91498672 166.09577036 98.45131572 168.69418335 99.03416443 C169.50146063 99.21485694 170.30873791 99.39554945 171.14047813 99.58171749 C171.75412035 99.71975072 172.36776257 99.85778395 173 100 C172.99555878 98.77668976 172.99111755 97.55337952 172.98654175 96.29299927 C172.94606448 84.78560783 172.91604876 73.27823076 172.89637566 61.77078438 C172.88592166 55.85415819 172.87173306 49.9375893 172.84912109 44.02099609 C172.82745025 38.31518869 172.81544356 32.60943653 172.81024551 26.90359116 C172.80653938 24.72260544 172.79930263 22.54162287 172.78853989 20.36066055 C172.77410148 17.3147545 172.77201884 14.26907909 172.77294922 11.22314453 C172.76575867 10.31396271 172.75856812 9.40478088 172.75115967 8.4680481 C172.77189568 2.22810432 172.77189568 2.22810432 175 0 C177.625 0.375 177.625 0.375 180 1 C180.02332826 18.8453085 180.04097882 36.69061306 180.05181217 54.53593349 C180.05697528 62.82124274 180.06401827 71.10654253 180.07543945 79.3918457 C180.08538583 86.61069608 180.09185332 93.82953961 180.09408849 101.04839665 C180.09539568 104.87308255 180.09848203 108.69774887 180.10573006 112.52242851 C180.11248954 116.11825787 180.11461711 119.71405946 180.11310768 123.30989456 C180.11351636 125.26706037 180.11891193 127.22422312 180.12442017 129.18138123 C180.1230455 130.335495 180.12167084 131.48960876 180.12025452 132.67869568 C180.12163721 134.19274065 180.12163721 134.19274065 180.12304783 135.7373724 C180 138 180 138 179 139 C176.5 139.125 176.5 139.125 174 139 C173 138 173 138 172.88647461 135.22436523 C172.89171143 134.01466064 172.89694824 132.80495605 172.90234375 131.55859375 C172.90556641 130.25341797 172.90878906 128.94824219 172.91210938 127.60351562 C172.92046599 126.2148431 172.92893095 124.82617123 172.9375 123.4375 C172.94251334 122.04492344 172.94707653 120.65234519 172.95117188 119.25976562 C172.96300566 115.8398013 172.9794912 112.41992156 173 109 C167.9176389 109.79850177 162.83545589 110.59812558 157.75341797 111.39868164 C156.03341154 111.66947961 154.31336115 111.93999852 152.59326172 112.21020508 C150.0854884 112.60419989 147.57787575 112.99920184 145.0703125 113.39453125 C143.8216037 113.59080612 143.8216037 113.59080612 142.54766846 113.79104614 C138.3389437 114.45639339 134.13522263 115.14255309 129.93652344 115.86865234 C129.12561249 116.00800705 128.31470154 116.14736176 127.47921753 116.29093933 C125.95332334 116.55469178 124.42813246 116.82256119 122.90383911 117.09541321 C118.89584367 117.78723574 115.06599963 118.32044112 111 118 C110.34 117.34 109.68 116.68 109 116 C109 113.36 109 110.72 109 108 C95.8 108 82.6 108 69 108 C69 110.64 69 113.28 69 116 C67 118 67 118 65.14111328 118.09960938 C54.9824711 117.03689656 44.9370923 115.22853173 34.875 113.5 C32.04597513 113.01583965 29.21675004 112.53296634 26.38699341 112.05310059 C24.63790839 111.75633204 22.88923763 111.45710675 21.14108276 111.15490723 C15.77249457 110.24194556 10.41745592 109.55689029 5 109 C5.01047363 109.86802246 5.02094727 110.73604492 5.03173828 111.63037109 C5.06579716 114.84699528 5.09088767 118.06352767 5.10986328 121.28027344 C5.11992877 122.67320781 5.13358234 124.06612102 5.15087891 125.45898438 C5.1751022 127.4595436 5.18540814 129.46025615 5.1953125 131.4609375 C5.20578613 132.66540527 5.21625977 133.86987305 5.22705078 135.11083984 C5 138 5 138 3 140 C-0.53571429 139.46428571 -0.53571429 139.46428571 -2 138 C-2.10067897 136.24569383 -2.1307662 134.48730809 -2.13371277 132.7301178 C-2.13797775 131.5873085 -2.14224274 130.44449921 -2.14663696 129.26705933 C-2.14618378 128.00209625 -2.14573059 126.73713318 -2.14526367 125.43383789 C-2.14825364 124.09705002 -2.15165579 122.76026302 -2.15544128 121.42347717 C-2.16430203 117.78301774 -2.16662027 114.14258179 -2.16725707 110.50211263 C-2.16820447 107.46766263 -2.17188081 104.43321815 -2.17542917 101.39877027 C-2.18358162 94.24216238 -2.18601268 87.08556708 -2.18530273 79.92895508 C-2.18470174 72.53593898 -2.19525609 65.14299579 -2.2110464 57.74999815 C-2.22410316 51.41199144 -2.22948742 45.07400862 -2.22884732 38.73598856 C-2.22859178 34.94647979 -2.23147361 31.15703578 -2.24202538 27.36754036 C-2.25167511 23.8044921 -2.2518072 20.24157092 -2.24450874 16.6785183 C-2.242957 14.74182906 -2.25133142 12.80513992 -2.25994873 10.86846924 C-2.25575424 9.72284012 -2.25155975 8.577211 -2.24723816 7.39686584 C-2.24778293 6.39709748 -2.24832769 5.39732912 -2.24888897 4.36726475 C-2 2 -2 2 0 0 Z " fill="#0A0A0A" transform="translate(159,1377)"/>
<path d="M0 0 C2.66538964 2.66538964 4.62143908 5.17201633 6.7578125 8.25390625 C7.46550781 9.27291016 8.17320312 10.29191406 8.90234375 11.34179688 C10.00255859 12.93604492 10.00255859 12.93604492 11.125 14.5625 C11.86621094 15.62919922 12.60742188 16.69589844 13.37109375 17.79492188 C20.11183766 27.52402118 20.11183766 27.52402118 20.22119141 33.26901245 C20.24424347 34.38718353 20.26729553 35.50535461 20.29104614 36.65740967 C20.31101654 37.89049866 20.33098694 39.12358765 20.3515625 40.39404297 C20.37580292 41.68869476 20.40004333 42.98334656 20.42501831 44.31723022 C20.64252164 56.31863944 20.76310876 68.32168705 20.85931396 80.32461357 C20.92535009 88.38289094 21.01933979 96.43873386 21.18652344 104.49560547 C21.33256765 111.53416544 21.42395514 118.5710339 21.45199776 125.61108887 C21.46852235 129.32932345 21.50986459 133.04305151 21.61651611 136.75988388 C22.09539217 154.17250667 20.88819697 166.82045867 8.71679688 180.24880981 C7.49054841 181.51164785 6.25091322 182.7615892 5 184 C3.35 185.65 1.7 187.3 0 189 C0 126.63 0 64.26 0 0 Z " fill="#F8F8F8" transform="translate(205,667)"/>
<path d="M0 0 C2.56339779 0.00851466 5.12456523 -0.02032139 7.68774414 -0.05200195 C18.58523164 -0.09823079 28.35722572 0.41910282 36.63500977 8.44604492 C41.17283307 13.47006358 40.79520184 19.15233823 40.76000977 25.63354492 C40.76387695 26.35735352 40.76774414 27.08116211 40.77172852 27.8269043 C40.76174588 33.1925727 40.76174588 33.1925727 39.63500977 35.44604492 C15.21500977 35.44604492 -9.20499023 35.44604492 -34.36499023 35.44604492 C-37.14871252 29.87860036 -36.18245564 19.70656409 -34.68139648 13.71948242 C-31.97191165 7.89577642 -27.64579546 4.48783179 -21.84155273 1.83666992 C-14.78658494 -0.41762674 -7.32990054 -0.03712938 0 0 Z " fill="#0C0C0C" transform="translate(57.364990234375,1003.553955078125)"/>
<path d="M0 0 C1.55074219 -0.0309375 1.55074219 -0.0309375 3.1328125 -0.0625 C9.16112965 -0.09325672 13.62944857 0.16763381 18.875 3.25 C24.85313891 9.28876913 26.45840067 16.58408749 27.1875 24.75 C26.37937888 33.80095655 22.30257605 41.82242395 15.875 48.25 C11.26420534 49.33770972 6.71112051 49.37184551 2 49.3125 C1.31164062 49.30798828 0.62328125 49.30347656 -0.0859375 49.29882812 C-1.76566335 49.28716336 -3.44534375 49.26923271 -5.125 49.25 C-5.11976318 50.24443115 -5.11452637 51.2388623 -5.10913086 52.26342773 C-5.09107959 55.94033921 -5.07956754 59.61724675 -5.07006836 63.29418945 C-5.06502843 64.88794614 -5.0581965 66.48169819 -5.04956055 68.07543945 C-5.03748001 70.36150253 -5.03176845 72.64750467 -5.02734375 74.93359375 C-5.02218246 75.65026718 -5.01702118 76.36694061 -5.01170349 77.10533142 C-5.01150737 78.82063672 -5.06307993 80.53581266 -5.125 82.25 C-6.125 83.25 -6.125 83.25 -8.625 83.375 C-11.125 83.25 -11.125 83.25 -12.125 82.25 C-12.22535816 79.72997549 -12.26117712 77.237338 -12.25439453 74.71679688 C-12.25614685 73.92821793 -12.25789917 73.13963898 -12.25970459 72.3271637 C-12.26412358 69.7076704 -12.26118496 67.08824404 -12.2578125 64.46875 C-12.25848553 62.6565347 -12.25945554 60.84431948 -12.26071167 59.03210449 C-12.26218871 55.22891381 -12.2600339 51.42574656 -12.25537109 47.62255859 C-12.2496738 42.73621505 -12.25295278 37.84992643 -12.25894356 32.9635849 C-12.26254901 29.21994611 -12.26141066 25.47632045 -12.25881577 21.73268127 C-12.25814645 19.93046563 -12.25897507 18.12824882 -12.26129532 16.32603455 C-12.26382159 13.81172509 -12.25998162 11.29750583 -12.25439453 8.78320312 C-12.25641876 8.03095963 -12.25844299 7.27871613 -12.26052856 6.50367737 C-12.22486502 -2.11524607 -7.4405433 0.03629533 0 0 Z " fill="#040404" transform="translate(660.125,685.75)"/>
<path d="M0 0 C6.24024764 0.08466424 12.34787057 1.24819557 18.48876953 2.2746582 C19.80813036 2.4919552 21.1275384 2.7089657 22.44699097 2.92570496 C25.1994615 3.37950054 27.95105086 3.83824998 30.70214844 4.30029297 C34.21501282 4.88964163 37.73012095 5.46416546 41.2460804 6.03471851 C43.96680761 6.47832274 46.68597421 6.93096472 49.40478134 7.38617516 C51.32588885 7.70585471 53.24840146 8.01705335 55.17092896 8.32807922 C56.93338455 8.62805061 56.93338455 8.62805061 58.73144531 8.93408203 C60.27410568 9.19056267 60.27410568 9.19056267 61.84793091 9.45222473 C65.12515166 10.27600338 67.83034156 11.58583654 70.79345703 13.19262695 C70.5625 15.06469727 70.5625 15.06469727 69.79345703 17.19262695 C63.34559809 21.18633627 54.95306218 22.62610964 47.66845703 24.44262695 C46.61658203 24.71075195 45.56470703 24.97887695 44.48095703 25.25512695 C41.91992594 25.90702578 39.35750954 26.55273588 36.79345703 27.19262695 C37.71682861 27.42449707 38.6402002 27.65636719 39.59155273 27.89526367 C43.02000302 28.75912176 46.44705329 29.62815811 49.87329102 30.50073242 C51.35583658 30.87716444 52.83890825 31.25153078 54.32250977 31.6237793 C56.4561742 32.15951693 58.58782999 32.70267964 60.71923828 33.24731445 C61.38184158 33.41198212 62.04444489 33.57664978 62.72712708 33.74630737 C65.89043345 34.56217243 68.03914771 35.35642074 70.79345703 37.19262695 C70.60595703 39.06762695 70.60595703 39.06762695 69.79345703 41.19262695 C66.23907019 42.92294868 62.74191451 43.68349816 58.86083984 44.33764648 C57.10311249 44.63773117 57.10311249 44.63773117 55.30987549 44.94387817 C54.05148865 45.1522934 52.79310181 45.36070862 51.49658203 45.57543945 C50.18002646 45.79650015 48.86351923 46.01784895 47.54705811 46.23947144 C44.79061586 46.7020965 42.03350635 47.16046175 39.27587891 47.6159668 C35.76326797 48.19663737 32.25274335 48.78897702 28.74266434 49.38473701 C26.02383538 49.84463548 23.30388807 50.29762476 20.58358002 50.74868393 C18.66596343 51.06804808 16.74937826 51.39358591 14.83282471 51.7192688 C8.39077857 52.77307822 2.32099571 53.4301992 -4.20654297 53.19262695 C-4.53654297 51.54262695 -4.86654297 49.89262695 -5.20654297 48.19262695 C-2.28590115 46.57970159 0.27710212 45.77868611 3.56201172 45.23120117 C4.50268494 45.07118622 5.44335815 44.91117126 6.41253662 44.74630737 C7.41995911 44.58163971 8.42738159 44.41697205 9.46533203 44.24731445 C10.50288635 44.07257599 11.54044067 43.89783752 12.60943604 43.71780396 C15.91979983 43.16171493 19.23157045 42.61456603 22.54345703 42.06762695 C24.78964927 41.6919132 27.03574434 41.31561807 29.28173828 40.9387207 C34.78453537 40.01660992 40.2885138 39.10183258 45.79345703 38.19262695 C44.6277417 37.89026123 44.6277417 37.89026123 43.43847656 37.58178711 C39.92991073 36.66749088 36.42419571 35.74270145 32.91845703 34.81762695 C31.08347656 34.34196289 31.08347656 34.34196289 29.21142578 33.85668945 C28.04482422 33.54731445 26.87822266 33.23793945 25.67626953 32.91918945 C24.59748535 32.63640137 23.51870117 32.35361328 22.40722656 32.06225586 C19.79345703 31.19262695 19.79345703 31.19262695 17.79345703 29.19262695 C18.12345703 27.54262695 18.45345703 25.89262695 18.79345703 24.19262695 C28.03345703 21.55262695 37.27345703 18.91262695 46.79345703 16.19262695 C46.79345703 15.86262695 46.79345703 15.53262695 46.79345703 15.19262695 C45.53017578 15.03407227 44.26689453 14.87551758 42.96533203 14.7121582 C31.78017404 13.26894622 20.65369812 11.56947585 9.54345703 9.63012695 C8.31208008 9.4204126 7.08070312 9.21069824 5.81201172 8.99462891 C4.66635742 8.7905542 3.52070313 8.58647949 2.34033203 8.3762207 C1.3177832 8.19631592 0.29523437 8.01641113 -0.75830078 7.83105469 C-3.20654297 7.19262695 -3.20654297 7.19262695 -5.20654297 5.19262695 C-4.58618512 1.09826513 -4.28262021 0.25727024 0 0 Z " fill="#0D0D0D" transform="translate(27.20654296875,1066.807373046875)"/>
<path d="M0 0 C9.97406897 0.18640216 9.97406897 0.18640216 14.42431641 4.09375 C16.15087891 6.0625 16.15087891 6.0625 17.79931641 8.59375 C18.20648895 9.12479843 18.6136615 9.65584686 19.03317261 10.20298767 C23.15226241 15.95234016 23.50841703 20.68693163 23.39306641 27.62890625 C23.39310669 28.66639511 23.39314697 29.70388397 23.39318848 30.77281189 C23.38785116 32.95545546 23.37034564 35.1380997 23.34130859 37.32055664 C23.29939695 40.64985224 23.30025126 43.97712512 23.30712891 47.30664062 C23.29663688 49.4349098 23.28369872 51.56316862 23.26806641 53.69140625 C23.26786499 54.68012222 23.26766357 55.6688382 23.26745605 56.68751526 C23.10930377 65.97721022 20.31032974 73.20465595 13.48681641 79.84375 C7.46713284 83.76354395 1.38964034 83.88849567 -5.57568359 83.78125 C-6.39423828 83.78060547 -7.21279297 83.77996094 -8.05615234 83.77929688 C-14.05994111 83.73449248 -14.05994111 83.73449248 -15.20068359 82.59375 C-15.30104175 80.07372549 -15.33686071 77.581088 -15.33007812 75.06054688 C-15.33183044 74.27196793 -15.33358276 73.48338898 -15.33538818 72.6709137 C-15.33980718 70.0514204 -15.33686855 67.43199404 -15.33349609 64.8125 C-15.33416912 63.0002847 -15.33513913 61.18806948 -15.33639526 59.37585449 C-15.3378723 55.57266381 -15.3357175 51.76949656 -15.33105469 47.96630859 C-15.3253574 43.07996505 -15.32863637 38.19367643 -15.33462715 33.3073349 C-15.33823261 29.56369611 -15.33709425 25.82007045 -15.33449936 22.07643127 C-15.33383005 20.27421563 -15.33465866 18.47199882 -15.33697891 16.66978455 C-15.33950519 14.15547509 -15.33566521 11.64125583 -15.33007812 9.12695312 C-15.33210236 8.37470963 -15.33412659 7.62246613 -15.33621216 6.84742737 C-15.29762465 -2.47813992 -7.80921271 0.07624556 0 0 Z M-8.20068359 7.59375 C-8.20068359 30.36375 -8.20068359 53.13375 -8.20068359 76.59375 C2.30357862 77.12609865 2.30357862 77.12609865 10.42431641 72.28125 C16.46864674 65.44161304 16.95093155 59.28162789 17.00244141 50.37890625 C17.01099152 49.21795692 17.01099152 49.21795692 17.01971436 48.03355408 C17.02911757 46.4039749 17.03567961 44.7743771 17.03955078 43.14477539 C17.04927367 40.66714112 17.08034748 38.19033134 17.11181641 35.71289062 C17.11834626 34.12240071 17.1235968 32.53190492 17.12744141 30.94140625 C17.13978821 30.20890152 17.15213501 29.47639679 17.16485596 28.72169495 C17.13621319 22.032695 15.00500776 16.61127598 11.04931641 11.15625 C5.8076602 5.98775297 5.8076602 5.98775297 -8.20068359 7.59375 Z " fill="#0B0B0B" transform="translate(811.20068359375,685.40625)"/>
<path d="M0 0 C5.53797303 2.16703292 8.72813854 6.91051332 11.75 11.875 C14.27019502 18.17548755 14.16554453 25.03460873 14.203125 31.7421875 C14.20882507 32.55060089 14.21452515 33.35901428 14.22039795 34.19192505 C14.22978249 35.89112058 14.23635562 37.59033377 14.24023438 39.28955078 C14.24994837 41.86133067 14.28103719 44.43231287 14.3125 47.00390625 C14.38324927 57.99322672 14.24949564 68.04474068 7 77 C3.5952346 80.22556722 0.59407045 81.9893045 -4 83 C-9.46369904 82.80486789 -12.8302544 81.53521909 -17 78 C-23.2006509 70.12071985 -24.31281416 62.35802599 -24.3359375 52.60546875 C-24.3425943 51.61807205 -24.3492511 50.63067535 -24.35610962 49.61335754 C-24.36619861 47.53156384 -24.37092781 45.44973805 -24.37060547 43.36791992 C-24.3749722 40.2076198 -24.41131485 37.04872484 -24.44921875 33.88867188 C-24.45508923 31.85677556 -24.45905707 29.82487268 -24.4609375 27.79296875 C-24.47530853 26.86034714 -24.48967957 25.92772552 -24.50448608 24.96684265 C-24.45506159 17.75705512 -23.22937896 10.47760506 -18.16195679 5.02067566 C-12.30117151 -0.17175689 -7.75897796 -0.60810567 0 0 Z M-12.9375 9.75 C-15.61463619 13.96851764 -17.24098851 16.69429109 -17.30639648 21.73339844 C-17.32238388 22.66827087 -17.33837128 23.60314331 -17.35484314 24.56634521 C-17.36020584 25.57054504 -17.36556854 26.57474487 -17.37109375 27.609375 C-17.38012222 28.65015198 -17.3891507 29.69092896 -17.39845276 30.76324463 C-17.41295516 32.96550624 -17.42184196 35.16781093 -17.42553711 37.37011719 C-17.43740817 40.72405552 -17.48657442 44.07613873 -17.53710938 47.4296875 C-17.54657696 49.57290772 -17.55381039 51.71613921 -17.55859375 53.859375 C-17.57812607 54.85547791 -17.59765839 55.85158081 -17.61778259 56.87786865 C-17.57534896 63.49301562 -16.29794762 67.89102362 -12 73 C-9.10505036 75.44957278 -7.7800739 75.98374846 -4 76.0625 C0.59051897 74.4366912 2.6985369 71.20415019 5.1204834 67.10235596 C6.14236554 64.65969597 6.27915573 62.81856022 6.32226562 60.17480469 C6.34148071 59.2199115 6.3606958 58.26501831 6.38049316 57.28118896 C6.3932428 55.74207855 6.3932428 55.74207855 6.40625 54.171875 C6.41765015 53.10890198 6.42905029 52.04592896 6.4407959 50.95074463 C6.45968015 48.70141572 6.47275764 46.45203168 6.48046875 44.20263672 C6.49985278 40.77602508 6.5618925 37.35182836 6.625 33.92578125 C6.63806404 31.73699337 6.64856343 29.54818837 6.65625 27.359375 C6.6809436 26.34139832 6.70563721 25.32342163 6.7310791 24.27459717 C6.68328689 16.57090899 4.39070807 12.39070807 -1 7 C-5.69770506 6.23322583 -9.69965194 5.88986283 -12.9375 9.75 Z " fill="#0E0E0E" transform="translate(622,686)"/>
<path d="M0 0 C0.78582458 -0.0033284 1.57164917 -0.0066568 2.38128662 -0.01008606 C4.03185443 -0.01512391 5.68243232 -0.01749536 7.33300781 -0.01733398 C9.86540138 -0.01953649 12.39736994 -0.03776834 14.9296875 -0.05664062 C16.53645685 -0.05957196 18.14322826 -0.06155849 19.75 -0.0625 C20.50831116 -0.06968552 21.26662231 -0.07687103 22.0479126 -0.08427429 C27.38052869 -0.06087756 27.38052869 -0.06087756 29.609375 2.16796875 C29.07366071 5.70368304 29.07366071 5.70368304 27.609375 7.16796875 C25.09953854 7.30346562 22.61337422 7.37855726 20.1015625 7.4140625 C18.54166167 7.44703011 16.98176597 7.48024121 15.421875 7.51367188 C12.96000076 7.56088389 10.4981428 7.60524771 8.03613281 7.64477539 C5.66187455 7.68479367 3.28806704 7.73629538 0.9140625 7.7890625 C0.18774628 7.79747665 -0.53856995 7.80589081 -1.28689575 7.81455994 C-5.91304079 7.92502137 -10.12091855 8.22441663 -14.390625 10.16796875 C-15.93148822 13.68197543 -15.93148822 13.68197543 -16.390625 17.16796875 C-15.84383087 17.16352753 -15.29703674 17.1590863 -14.7336731 17.1545105 C-9.05636196 17.11035519 -3.37909939 17.08013496 2.29833984 17.05810547 C4.4188027 17.04803124 6.53925161 17.03437142 8.65966797 17.01708984 C11.70283443 16.99290386 14.74581766 16.98150006 17.7890625 16.97265625 C18.74118622 16.96233368 19.69330994 16.95201111 20.67428589 16.94137573 C21.55504791 16.94122467 22.43580994 16.94107361 23.34326172 16.94091797 C24.12047577 16.93647675 24.89768982 16.93203552 25.69845581 16.92745972 C27.609375 17.16796875 27.609375 17.16796875 29.609375 19.16796875 C29.609375 20.48796875 29.609375 21.80796875 29.609375 23.16796875 C27.2792752 24.33301865 25.93690423 24.28890455 23.34326172 24.28149414 C22.02211868 24.28138084 22.02211868 24.28138084 20.67428589 24.28126526 C19.72216217 24.27610397 18.77003845 24.27094269 17.7890625 24.265625 C16.81526642 24.26421005 15.84147034 24.2627951 14.83816528 24.26133728 C11.72020427 24.25572848 8.6023144 24.24317448 5.484375 24.23046875 C3.37369895 24.22545488 1.26302178 24.22089178 -0.84765625 24.21679688 C-6.02867335 24.20575619 -11.2096371 24.18848564 -16.390625 24.16796875 C-16.390625 27.46796875 -16.390625 30.76796875 -16.390625 34.16796875 C-14.46029419 34.1522583 -14.46029419 34.1522583 -12.4909668 34.13623047 C-7.72195206 34.10006331 -2.95294948 34.07708021 1.81616211 34.05810547 C3.881287 34.0480404 5.94639763 34.03438721 8.01147461 34.01708984 C10.97773764 33.99286382 13.94381244 33.98149078 16.91015625 33.97265625 C17.8352449 33.96233368 18.76033356 33.95201111 19.7134552 33.94137573 C20.57412094 33.94122467 21.43478668 33.94107361 22.3215332 33.94091797 C23.07876175 33.93647675 23.8359903 33.93203552 24.61616516 33.92745972 C26.609375 34.16796875 26.609375 34.16796875 29.609375 36.16796875 C29.234375 38.60546875 29.234375 38.60546875 28.609375 41.16796875 C26.23245067 42.35643091 24.76751489 42.30092625 22.11547852 42.31323242 C20.71876671 42.3228022 20.71876671 42.3228022 19.2938385 42.33256531 C17.78133766 42.33423454 17.78133766 42.33423454 16.23828125 42.3359375 C14.68837746 42.3409301 14.68837746 42.3409301 13.10716248 42.34602356 C10.91902106 42.35109255 8.73087189 42.35343189 6.54272461 42.35327148 C3.18916124 42.35545748 -0.16407303 42.37361229 -3.51757812 42.39257812 C-5.64062387 42.3955121 -7.76367118 42.39749687 -9.88671875 42.3984375 C-11.39618324 42.40921577 -11.39618324 42.40921577 -12.93614197 42.42021179 C-13.87043533 42.41713516 -14.8047287 42.41405853 -15.76733398 42.41088867 C-16.58958969 42.41231369 -17.4118454 42.41373871 -18.25901794 42.41520691 C-20.390625 42.16796875 -20.390625 42.16796875 -23.390625 40.16796875 C-23.76293945 37.3581543 -23.76293945 37.3581543 -23.75390625 33.8046875 C-23.75326172 32.52529297 -23.75261719 31.24589844 -23.75195312 29.92773438 C-23.73950562 28.92480347 -23.73950562 28.92480347 -23.72680664 27.90161133 C-23.70333314 25.87345221 -23.70622927 23.84661873 -23.71289062 21.81835938 C-23.63910304 8.46280717 -23.63910304 8.46280717 -19.875 4.62109375 C-19.30265625 4.2240625 -18.7303125 3.82703125 -18.140625 3.41796875 C-17.57859375 3.010625 -17.0165625 2.60328125 -16.4375 2.18359375 C-11.37139408 -0.33012293 -5.5372882 0.00821369 0 0 Z " fill="#111111" transform="translate(68.390625,467.83203125)"/>
<path d="M0 0 C0.81457169 -0.00145523 1.62914337 -0.00291046 2.46839905 -0.00440979 C4.18201289 -0.00275837 5.89564274 0.00871766 7.60913086 0.02954102 C10.2120765 0.05847614 12.8129783 0.05013808 15.41601562 0.03710938 C17.08985352 0.04334887 18.76368505 0.05174147 20.4375 0.0625 C21.58943092 0.05809654 21.58943092 0.05809654 22.76463318 0.05360413 C29.19883794 0.16425166 35.06408256 1.21806946 39.72265625 5.99609375 C43.22107293 11.59356044 42.28515625 13.8750827 42.28515625 21.49609375 C21.82515625 21.49609375 1.36515625 21.49609375 -19.71484375 21.49609375 C-19.71484375 8.70122196 -19.71484375 8.70122196 -15.71484375 4.49609375 C-10.30290192 0.78821845 -6.48934822 -0.09467956 0 0 Z " fill="#FDFDFD" transform="translate(48.71484375,1010.50390625)"/>
<path d="M0 0 C0.69919052 -0.00335861 1.39838104 -0.00671722 2.11875916 -0.01017761 C4.44125115 -0.01971426 6.76367126 -0.02163208 9.08618164 -0.02270508 C10.69421926 -0.0259158 12.30225659 -0.02927972 13.91029358 -0.03279114 C17.28558022 -0.03878922 20.66084122 -0.04063035 24.03613281 -0.04003906 C28.36865089 -0.03993741 32.70100522 -0.05359016 37.03348446 -0.07081127 C40.35596985 -0.08191084 43.6784154 -0.0839589 47.00091743 -0.08342934 C48.5985629 -0.08461252 50.19620929 -0.08905315 51.79383659 -0.0967617 C54.02543595 -0.10652055 56.25667655 -0.10370005 58.48828125 -0.09765625 C60.39570351 -0.09979378 60.39570351 -0.09979378 62.34165955 -0.10197449 C65.30883789 0.14526367 65.30883789 0.14526367 67.30883789 2.14526367 C66.7731236 5.68097796 66.7731236 5.68097796 65.30883789 7.14526367 C62.64257759 7.23381528 60.00236675 7.2605104 57.33618164 7.24291992 C56.53853897 7.24150497 55.7408963 7.24009003 54.91908264 7.2386322 C52.36146354 7.23301684 49.80393071 7.22046179 47.24633789 7.20776367 C45.51652144 7.20275065 43.78670363 7.1981874 42.05688477 7.1940918 C37.8074755 7.18389158 33.55825373 7.16431935 29.30883789 7.14526367 C29.30883789 14.40526367 29.30883789 21.66526367 29.30883789 29.14526367 C31.88438477 29.12206055 34.45993164 29.09885742 37.11352539 29.07495117 C39.60228991 29.05936295 42.09104903 29.0472135 44.57983398 29.03540039 C46.31228054 29.02532992 48.04471005 29.01167278 49.77709961 28.99438477 C52.26428428 28.97018205 54.75124464 28.95879129 57.23852539 28.94995117 C58.01565887 28.9396286 58.79279236 28.92930603 59.59347534 28.91867065 C61.50009282 28.91827096 63.40614825 29.02294227 65.30883789 29.14526367 C66.29883789 30.13526367 66.29883789 30.13526367 67.30883789 31.14526367 C66.7731236 34.68097796 66.7731236 34.68097796 65.30883789 36.14526367 C63.08039318 36.25017603 60.84857866 36.28383579 58.61767578 36.29052734 C57.91848526 36.29388596 57.21929474 36.29724457 56.49891663 36.30070496 C54.17642463 36.31024161 51.85400452 36.31215942 49.53149414 36.31323242 C47.92345652 36.31644314 46.3154192 36.31980707 44.7073822 36.32331848 C41.33209557 36.32931656 37.95683456 36.33115769 34.58154297 36.33056641 C30.24902489 36.33046475 25.91667057 36.34411751 21.58419132 36.36133862 C18.26170593 36.37243819 14.93926038 36.37448625 11.61675835 36.37395668 C10.01911288 36.37513987 8.42146649 36.37958049 6.82383919 36.38728905 C4.59223983 36.3970479 2.36099923 36.39422739 0.12939453 36.38818359 C-1.77802773 36.39032112 -1.77802773 36.39032112 -3.72398376 36.39250183 C-6.69116211 36.14526367 -6.69116211 36.14526367 -8.69116211 34.14526367 C-8.15544782 30.60954939 -8.15544782 30.60954939 -6.69116211 29.14526367 C-4.54557384 29.05750762 -2.3971179 29.03831148 -0.24975586 29.04760742 C1.05541992 29.05083008 2.3605957 29.05405273 3.70532227 29.05737305 C5.09399479 29.06572966 6.48266666 29.07419462 7.87133789 29.08276367 C9.26391445 29.08777701 10.65649271 29.09234021 12.04907227 29.09643555 C15.4690124 29.10826925 18.88893039 29.12620536 22.30883789 29.14526367 C22.30883789 21.88526367 22.30883789 14.62526367 22.30883789 7.14526367 C20.23860352 7.1684668 18.16836914 7.19166992 16.03540039 7.21557617 C14.03312662 7.22948085 12.03085166 7.24331544 10.02856445 7.25512695 C8.63563008 7.26519245 7.24271687 7.27884601 5.84985352 7.29614258 C3.8492943 7.32036587 1.84858174 7.33067181 -0.15209961 7.34057617 C-1.35656738 7.3510498 -2.56103516 7.36152344 -3.80200195 7.37231445 C-6.69116211 7.14526367 -6.69116211 7.14526367 -8.69116211 5.14526367 C-7.80350898 -0.71324697 -5.52560431 0.01657394 0 0 Z " fill="#080808" transform="translate(30.691162109375,911.854736328125)"/>
<path d="M0 0 C1.24744743 -0.0049926 1.24744743 -0.0049926 2.52009583 -0.01008606 C4.27079721 -0.01513267 6.02150815 -0.01749509 7.7722168 -0.01733398 C10.45832896 -0.01953231 13.1440379 -0.03774386 15.83007812 -0.05664062 C17.53255068 -0.05957259 19.23502518 -0.0615587 20.9375 -0.0625 C21.74269577 -0.06968552 22.54789154 -0.07687103 23.37748718 -0.08427429 C29.0406913 -0.0608712 29.0406913 -0.0608712 31.26953125 2.16796875 C30.89453125 4.29296875 30.89453125 4.29296875 30.26953125 6.16796875 C28.85643677 6.19769775 28.85643677 6.19769775 27.41479492 6.22802734 C23.867854 6.30684341 20.3212781 6.39355404 16.7746582 6.48535156 C15.24934125 6.52327159 13.72394605 6.55818358 12.19848633 6.58984375 C3.37659735 6.77514106 -5.08878086 7.17526413 -13.73046875 9.16796875 C-14.06046875 11.80796875 -14.39046875 14.44796875 -14.73046875 17.16796875 C-13.40805176 17.15749512 -12.08563477 17.14702148 -10.72314453 17.13623047 C-5.82929173 17.10010328 -0.93545077 17.07709486 3.95849609 17.05810547 C6.07895895 17.04803124 8.19940786 17.03437142 10.31982422 17.01708984 C13.36299068 16.99290386 16.40597391 16.98150006 19.44921875 16.97265625 C20.40134247 16.96233368 21.35346619 16.95201111 22.33444214 16.94137573 C23.21520416 16.94122467 24.09596619 16.94107361 25.00341797 16.94091797 C25.78063202 16.93647675 26.55784607 16.93203552 27.35861206 16.92745972 C29.26953125 17.16796875 29.26953125 17.16796875 31.26953125 19.16796875 C30.73381696 22.70368304 30.73381696 22.70368304 29.26953125 24.16796875 C27.8879301 24.26075205 26.50165087 24.28543918 25.11694336 24.28149414 C24.2361058 24.28141861 23.35526825 24.28134308 22.44773865 24.28126526 C21.49045364 24.27610397 20.53316864 24.27094269 19.546875 24.265625 C18.57166397 24.26421005 17.59645294 24.2627951 16.59169006 24.26133728 C13.46343982 24.25572008 10.33526002 24.24316468 7.20703125 24.23046875 C5.09179791 24.22545597 2.97656344 24.22089268 0.86132812 24.21679688 C-4.33596482 24.20574506 -9.53320483 24.18846891 -14.73046875 24.16796875 C-14.73046875 27.46796875 -14.73046875 30.76796875 -14.73046875 34.16796875 C-13.40805176 34.15749512 -12.08563477 34.14702148 -10.72314453 34.13623047 C-5.82929173 34.10010328 -0.93545077 34.07709486 3.95849609 34.05810547 C6.07895895 34.04803124 8.19940786 34.03437142 10.31982422 34.01708984 C13.36299068 33.99290386 16.40597391 33.98150006 19.44921875 33.97265625 C20.40134247 33.96233368 21.35346619 33.95201111 22.33444214 33.94137573 C23.21520416 33.94122467 24.09596619 33.94107361 25.00341797 33.94091797 C25.78063202 33.93647675 26.55784607 33.93203552 27.35861206 33.92745972 C29.26953125 34.16796875 29.26953125 34.16796875 31.26953125 36.16796875 C30.73381696 39.70368304 30.73381696 39.70368304 29.26953125 41.16796875 C27.74566894 41.27155654 26.21706139 41.30648013 24.68969727 41.31323242 C23.22796837 41.3228022 23.22796837 41.3228022 21.73670959 41.33256531 C20.14613991 41.33423454 20.14613991 41.33423454 18.5234375 41.3359375 C17.44198959 41.3392659 16.36054169 41.3425943 15.24632263 41.34602356 C12.95385159 41.35109752 10.66137313 41.35343174 8.36889648 41.35327148 C4.85062558 41.3554572 1.33266844 41.37360603 -2.18554688 41.39257812 C-4.407551 41.39551203 -6.62955663 41.39749684 -8.8515625 41.3984375 C-9.90991806 41.40562302 -10.96827362 41.41280853 -12.05870056 41.42021179 C-13.5251577 41.41559685 -13.5251577 41.41559685 -15.02124023 41.41088867 C-16.3157737 41.4130262 -16.3157737 41.4130262 -17.63645935 41.41520691 C-19.73046875 41.16796875 -19.73046875 41.16796875 -21.73046875 39.16796875 C-21.98925781 36.3581543 -21.98925781 36.3581543 -21.99609375 32.8046875 C-21.99867187 31.52529297 -22.00125 30.24589844 -22.00390625 28.92773438 C-21.9997168 28.25911377 -21.99552734 27.59049316 -21.99121094 26.90161133 C-21.98056369 24.87355228 -21.99107842 22.84638984 -22.00390625 20.81835938 C-22.00003906 18.8934668 -22.00003906 18.8934668 -21.99609375 16.9296875 C-21.99383789 15.75365967 -21.99158203 14.57763184 -21.98925781 13.3659668 C-21.73034128 10.1663935 -21.21183285 8.00246598 -19.73046875 5.16796875 C-13.40473261 0.10737983 -7.74271761 0.01078217 0 0 Z " fill="#040404" transform="translate(66.73046875,416.83203125)"/>
<path d="M0 0 C0 1.65 0 3.3 0 5 C-3.67327079 5.93465787 -6.20429412 5.95965335 -9.875 5.0625 C-14.03119757 4.17188624 -17.73620788 3.4030691 -22 4 C-25.69752531 7.69752531 -27.16273999 10.54048485 -27.3125 15.6875 C-27.34988281 16.51636719 -27.38726563 17.34523438 -27.42578125 18.19921875 C-26.70093579 22.96723888 -24.92619901 26.53972524 -21.09643555 29.44311523 C-18.82830012 30.82819536 -16.52540736 32.11147078 -14.1875 33.375 C-7.27240356 37.33276585 -2.09574296 40.97872636 2 48 C2.66 48.99 3.32 49.98 4 51 C4.90794684 58.51726573 3.86347993 65.70785212 0.125 72.3125 C-2.65370397 75.82674326 -4.75823624 77.58607875 -9 79 C-18.59700577 79.78342904 -25.87259381 76.60519708 -33.3828125 70.9140625 C-35 69 -35 69 -35.2421875 66.2734375 C-35.16226563 65.52320313 -35.08234375 64.77296875 -35 64 C-32.7578125 63.2890625 -32.7578125 63.2890625 -30 63 C-27.9296875 64.3984375 -27.9296875 64.3984375 -25.875 66.375 C-21.48537015 70.05140691 -18.11878027 70.91350792 -12.48046875 71.3203125 C-9.46824038 70.93133183 -8.17244859 70.09503394 -6 68 C-4.12078423 63.20799978 -2.90777248 58.11204345 -4 53 C-7.60620111 46.19125131 -13.10106878 42.59865921 -19.625 38.875 C-27.19945887 34.52199544 -32.27844697 30.7034437 -35 22 C-35.8534171 14.48549619 -35.10101033 8.32577912 -30.60546875 2.0546875 C-22.88211193 -7.60439672 -10.41755731 -4.06108166 0 0 Z " fill="#090909" transform="translate(760,690)"/>
<path d="M0 0 C9.9 0 19.8 0 30 0 C30.33 1.65 30.66 3.3 31 5 C30 6 30 6 27.68334961 6.11352539 C26.68311768 6.10828857 25.68288574 6.10305176 24.65234375 6.09765625 C23.68031006 6.09515869 22.70827637 6.09266113 21.70678711 6.09008789 C20.46292236 6.08098389 19.21905762 6.07187988 17.9375 6.0625 C13.998125 6.041875 10.05875 6.02125 6 6 C6 15.24 6 24.48 6 34 C11.54973121 33.96042519 11.54973121 33.96042519 17.09936523 33.90991211 C19.06645974 33.90276909 21.03353621 33.94968107 23 34 C24 35 24 35 24.0625 37.5625 C24.041875 38.366875 24.02125 39.17125 24 40 C18.6251615 42.68741925 12.00925213 41 6 41 C6 52.88 6 64.76 6 77 C13.92 77 21.84 77 30 77 C30.33 78.65 30.66 80.3 31 82 C28.66283991 84.33716009 22.81167112 83.17162619 19.70117188 83.18554688 C19.0223999 83.18546631 18.34362793 83.18538574 17.64428711 83.18530273 C15.57449736 83.18748734 13.50524207 83.20563491 11.43554688 83.22460938 C10.13810547 83.22654297 8.84066406 83.22847656 7.50390625 83.23046875 C6.30580322 83.23457764 5.1077002 83.23868652 3.87329102 83.24291992 C1 83 1 83 -1 81 C-1.1930448 78.48096967 -1.2623593 76.07238063 -1.24291992 73.55273438 C-1.24481827 72.78512283 -1.24671661 72.01751129 -1.24867249 71.22663879 C-1.25238557 68.68223955 -1.24166853 66.138124 -1.23046875 63.59375 C-1.22927712 61.83020054 -1.22882375 60.06665043 -1.2290802 58.30310059 C-1.22751441 54.60420772 -1.21921753 50.90541152 -1.20581055 47.20654297 C-1.18882058 42.45820257 -1.18499616 37.70996849 -1.18575573 32.96160126 C-1.18548418 29.31914245 -1.18000531 25.67670702 -1.17275429 22.03425598 C-1.16956549 20.28310829 -1.16759972 18.53195794 -1.16686058 16.7808075 C-1.16469925 14.33624736 -1.15595951 11.89180135 -1.14526367 9.44726562 C-1.14571686 8.71888992 -1.14617004 7.99051422 -1.14663696 7.24006653 C-1.1144777 2.22895541 -1.1144777 2.22895541 0 0 Z " fill="#050505" transform="translate(848,686)"/>
<path d="M0 0 C5.61 0 11.22 0 17 0 C22.32028578 5.32028578 24.6548657 8.43361224 25.375 15.875 C25.08367322 22.69469505 22.87212324 29.12787676 18 34 C12.29912287 35.90029238 6.00925213 35 0 35 C0 23.45 0 11.9 0 0 Z " fill="#FDFDFD" transform="translate(655,693)"/>
<path d="M0 0 C1.56047445 0.00015913 3.12095416 0.00585397 4.68139648 0.01586914 C5.91115456 0.01799156 5.91115456 0.01799156 7.16575623 0.02015686 C9.79470406 0.0257725 12.42356797 0.0383276 15.05249023 0.05102539 C16.8304838 0.05603838 18.60847869 0.06060163 20.38647461 0.06469727 C24.75434569 0.07574701 29.12215371 0.09302208 33.48999023 0.11352539 C33.87217791 1.76967196 34.20394125 3.43809563 34.48999023 5.11352539 C34.15999023 5.44352539 33.82999023 5.77352539 33.48999023 6.11352539 C28.53999023 6.11352539 23.58999023 6.11352539 18.48999023 6.11352539 C18.48999023 31.19352539 18.48999023 56.27352539 18.48999023 82.11352539 C16.01499023 82.60852539 16.01499023 82.60852539 13.48999023 83.11352539 C11.06039993 80.68393509 11.25552767 79.41963626 11.2411499 76.10508728 C11.24834045 75.41097244 11.25553101 74.7168576 11.26293945 74.00170898 C11.2626474 73.26989914 11.26235535 72.53808929 11.26205444 71.78410339 C11.26345022 69.35993685 11.27902283 66.93607588 11.29467773 64.51196289 C11.29840699 62.83330452 11.30125437 61.15464398 11.30325317 59.47598267 C11.31089655 55.05360932 11.33055102 50.63136694 11.35266113 46.20904541 C11.37310444 41.69805676 11.38225164 37.18704699 11.39233398 32.67602539 C11.41379632 23.82179187 11.44898413 14.96769 11.48999023 6.11352539 C6.53999023 6.11352539 1.58999023 6.11352539 -3.51000977 6.11352539 C-3.84000977 4.46352539 -4.17000977 2.81352539 -4.51000977 1.11352539 C-3.51000977 0.11352539 -3.51000977 0.11352539 0 0 Z " fill="#070707" transform="translate(550.510009765625,685.886474609375)"/>
<path d="M0 0 C3.53571429 0.53571429 3.53571429 0.53571429 5 2 C5.07244053 4.01964199 5.08377188 6.04167124 5.0625 8.0625 C5.05347656 9.16722656 5.04445313 10.27195312 5.03515625 11.41015625 C5.02355469 12.26480469 5.01195312 13.11945312 5 14 C5.83493988 13.99555878 6.66987976 13.99111755 7.53012085 13.98654175 C15.38790625 13.94651408 23.24565755 13.91604063 31.10352135 13.89637566 C35.14360264 13.88592593 39.18359989 13.8717452 43.22363281 13.84912109 C47.12044733 13.82743488 51.01718087 13.81544033 54.91405106 13.81024551 C56.40285136 13.80654214 57.8916471 13.79931062 59.38041306 13.78853989 C61.46122667 13.77408081 63.54170306 13.77201967 65.62255859 13.77294922 C66.80836517 13.768508 67.99417175 13.76406677 69.21591187 13.75949097 C72 14 72 14 74 16 C73.46428571 19.53571429 73.46428571 19.53571429 72 21 C69.91380978 21.09417773 67.82439523 21.11742878 65.73608398 21.11352539 C64.7556311 21.11374443 64.7556311 21.11374443 63.75537109 21.1139679 C61.58557872 21.11326883 59.41587121 21.10547678 57.24609375 21.09765625 C55.74536689 21.09579205 54.24463943 21.09436816 52.74391174 21.09336853 C48.78681774 21.08954352 44.82976022 21.0797134 40.87268066 21.06866455 C36.83765151 21.05845006 32.80261647 21.05387083 28.76757812 21.04882812 C20.84503531 21.03809111 12.92252219 21.0210149 5 21 C5.01160156 21.92683594 5.02320313 22.85367188 5.03515625 23.80859375 C5.04417969 25.00613281 5.05320312 26.20367188 5.0625 27.4375 C5.07410156 28.63246094 5.08570313 29.82742188 5.09765625 31.05859375 C5 34 5 34 4 35 C1.5 35.125 1.5 35.125 -1 35 C-2.91289618 33.08710382 -2.16375827 29.57775917 -2.16796875 26.97265625 C-2.17129715 26.26854111 -2.17462555 25.56442596 -2.17805481 24.838974 C-2.18312655 23.34683894 -2.18546306 21.8546925 -2.18530273 20.36254883 C-2.18748759 18.07549393 -2.20563549 15.78892247 -2.22460938 13.50195312 C-2.22754354 12.05468916 -2.22952818 10.60742289 -2.23046875 9.16015625 C-2.23765427 8.47365494 -2.24483978 7.78715363 -2.25224304 7.07984924 C-2.22882369 2.22882369 -2.22882369 2.22882369 0 0 Z " fill="#0A0A0A" transform="translate(24,958)"/>
<path d="M0 0 C1.65 0.33 3.3 0.66 5 1 C5 27.73 5 54.46 5 82 C2.525 82.495 2.525 82.495 0 83 C-2.46887218 80.53112782 -2.24246204 79.12958413 -2.27105713 75.75993347 C-2.26700867 75.03155777 -2.26296021 74.30318207 -2.25878906 73.55273438 C-2.2622937 72.78512283 -2.26579834 72.01751129 -2.26940918 71.22663879 C-2.27823168 68.68225128 -2.2723756 66.13814047 -2.265625 63.59375 C-2.2669715 61.83019965 -2.26891191 60.06664966 -2.27142334 58.30310059 C-2.2743753 54.60421215 -2.27007466 50.9054202 -2.26074219 47.20654297 C-2.24934759 42.45815094 -2.25590668 37.70998498 -2.26788712 32.96160126 C-2.27510378 29.31913541 -2.27281868 25.67672342 -2.26763153 22.03425598 C-2.2662945 20.28310622 -2.26794463 18.53195161 -2.27259064 16.7808075 C-2.27765273 14.33616119 -2.26995031 11.89188432 -2.25878906 9.44726562 C-2.26283752 8.71888992 -2.26688599 7.99051422 -2.27105713 7.24006653 C-2.22852887 2.22852887 -2.22852887 2.22852887 0 0 Z " fill="#090909" transform="translate(778,686)"/>
<path d="M0 0 C1.31238144 0.00222061 2.62476288 0.00444122 3.97691345 0.00672913 C4.6988237 0.0065831 5.42073395 0.00643707 6.16452026 0.00628662 C8.56156879 0.00698583 10.95854054 0.01477857 13.35557556 0.02259827 C15.0132442 0.02446242 16.67091338 0.02588633 18.32858276 0.02688599 C22.69996145 0.03071139 27.07130712 0.04054186 31.44267273 0.05158997 C35.89996392 0.0618036 40.35726043 0.0663835 44.81455994 0.07142639 C53.56652824 0.08216412 62.31846968 0.0992408 71.07041931 0.12025452 C71.45260698 1.77640109 71.78437033 3.44482476 72.07041931 5.12025452 C71.07041931 6.12025452 71.07041931 6.12025452 68.14083862 6.24050903 C66.82845718 6.23828842 65.51607574 6.23606781 64.16392517 6.23377991 C63.44201492 6.23392593 62.72010468 6.23407196 61.97631836 6.23422241 C59.57926984 6.2335232 57.18229808 6.22573047 54.78526306 6.21791077 C53.12759443 6.21604661 51.46992524 6.2146227 49.81225586 6.21362305 C45.44087717 6.20979764 41.0695315 6.19996717 36.69816589 6.18891907 C32.2408747 6.17870543 27.7835782 6.17412553 23.32627869 6.16908264 C14.57431038 6.15834492 5.82236895 6.14126823 -2.92958069 6.12025452 C-3.31176836 4.46410794 -3.64353171 2.79568427 -3.92958069 1.12025452 C-2.92958069 0.12025452 -2.92958069 0.12025452 0 0 Z " fill="#020202" transform="translate(25.929580688476563,1049.8797454833984)"/>
<path d="M0 0 C4.04453114 1.5537935 7.93837066 3.36444912 11.83203125 5.2578125 C12.46864182 5.56572723 13.10525238 5.87364197 13.76115417 6.19088745 C15.77904067 7.16734163 17.79578314 8.14613277 19.8125 9.125 C21.18677386 9.79051968 22.56112206 10.45588588 23.93554688 11.12109375 C27.29122663 12.74562068 30.64588498 14.3722444 34 16 C34 19.60573896 33.18292538 20.41336566 31 23.1875 C30.443125 23.90292969 29.88625 24.61835937 29.3125 25.35546875 C28.879375 25.89816406 28.44625 26.44085937 28 27 C24.00746337 25.39600374 21.32549792 22.59822732 18.359375 19.58984375 C17.83232971 19.06234024 17.30528442 18.53483673 16.76226807 17.99134827 C15.65391275 16.87998078 14.54797989 15.76619274 13.44433594 14.65014648 C11.74729143 12.93476216 10.04229672 11.22759829 8.3359375 9.52148438 C7.25994197 8.44057649 6.18440473 7.35921217 5.109375 6.27734375 C4.59695251 5.76380844 4.08453003 5.25027313 3.55657959 4.72117615 C0 1.11606989 0 1.11606989 0 0 Z " fill="#F3F3F3" transform="translate(451,1185)"/>
<path d="M0 0 C8.46062007 0.55260807 16.47646116 1.73925718 24.75 3.5625 C25.84054687 3.79646484 26.93109375 4.03042969 28.0546875 4.27148438 C30.70464448 4.84099267 33.3529357 5.41722202 36 6 C36 6.33 36 6.66 36 7 C23.9862771 9.34824059 12.24821462 11.45563491 0 12 C0 8.04 0 4.08 0 0 Z " fill="#F0F0F0" transform="translate(275,1475)"/>
<path d="M0 0 C0 3.96 0 7.92 0 12 C-8.35725942 11.40394922 -16.49945908 10.3787982 -24.75 8.9375 C-25.84054688 8.75123047 -26.93109375 8.56496094 -28.0546875 8.37304688 C-30.70393786 7.91988563 -33.35230703 7.46215796 -36 7 C-35.67 6.34 -35.34 5.68 -35 5 C-32.10424805 4.31396484 -32.10424805 4.31396484 -28.26171875 3.7109375 C-27.24595512 3.54871201 -27.24595512 3.54871201 -26.20967102 3.38320923 C-24.77365803 3.15557949 -23.33695599 2.93226175 -21.8996582 2.71289062 C-19.70562999 2.37776922 -17.51392102 2.02995769 -15.32226562 1.6796875 C-4.64685878 0 -4.64685878 0 0 0 Z " fill="#F1F1F1" transform="translate(221,1475)"/>
<path d="M0 0 C0.66 0 1.32 0 2 0 C2.71733942 4.18002835 3.429246 8.3609355 4.13623047 12.54272461 C4.37726778 13.96387413 4.61976289 15.38477722 4.86376953 16.80541992 C5.21514412 18.85271473 5.56118932 20.90085151 5.90625 22.94921875 C6.11572266 24.17987061 6.32519531 25.41052246 6.54101562 26.6784668 C7 30 7 30 7 35 C3.04 35 -0.92 35 -5 35 C-3.90865389 23.18778333 -2.40393396 11.61901414 0 0 Z " fill="#F3F3F3" transform="translate(59,195)"/>
<path d="M0 0 C3.96 0 7.92 0 12 0 C11.30973291 7.77458727 10.20442922 15.42493551 8.9375 23.125 C8.75123047 24.27226563 8.56496094 25.41953125 8.37304688 26.6015625 C7.91805826 29.40149245 7.46032487 32.20094331 7 35 C6.34 35 5.68 35 5 35 C2.59606604 23.38098586 1.09134611 11.81221667 0 0 Z " fill="#F3F3F3" transform="translate(54,1304)"/>
<path d="M0 0 C0 3.63 0 7.26 0 11 C-7.10031374 11.26008475 -13.81409685 10.26908678 -20.8125 9.125 C-21.94365234 8.95097656 -23.07480469 8.77695312 -24.24023438 8.59765625 C-25.86348633 8.33662109 -25.86348633 8.33662109 -27.51953125 8.0703125 C-28.50026611 7.91320801 -29.48100098 7.75610352 -30.49145508 7.59423828 C-33 7 -33 7 -36 5 C-11.9668784 -0.47867514 -11.9668784 -0.47867514 0 0 Z " fill="#F3F3F3" transform="translate(221,53)"/>
<path d="M0 0 C0 12.54 0 25.08 0 38 C-2.49685253 35.50314747 -2.88790598 33.56466539 -3.875 30.1796875 C-4.22046875 29.0040625 -4.5659375 27.8284375 -4.921875 26.6171875 C-5.27765625 25.38226562 -5.6334375 24.14734375 -6 22.875 C-6.35578125 21.66328125 -6.7115625 20.4515625 -7.078125 19.203125 C-8.84182599 13.161791 -10.53468753 7.12073228 -12 1 C-7.89864774 0.35665063 -4.17263102 0 0 0 Z " fill="#F9F9F9" transform="translate(548,1304)"/>
<path d="M0 0 C7.10031374 -0.26008475 13.81409685 0.73091322 20.8125 1.875 C22.50922852 2.13603516 22.50922852 2.13603516 24.24023438 2.40234375 C25.32240234 2.57636719 26.40457031 2.75039063 27.51953125 2.9296875 C28.99063354 3.16534424 28.99063354 3.16534424 30.49145508 3.40576172 C33 4 33 4 36 6 C34.90042969 6.19335938 33.80085938 6.38671875 32.66796875 6.5859375 C31.95697021 6.71121826 31.24597168 6.83649902 30.51342773 6.96557617 C28.9544887 7.23999002 27.39540473 7.51358172 25.83618164 7.78637695 C21.52685947 8.54284574 17.23089011 9.34458866 12.9375 10.1875 C8.54716052 10.99977993 4.45833125 11.16823891 0 11 C0 7.37 0 3.74 0 0 Z " fill="#F5F5F5" transform="translate(318,53)"/>
</svg>
