<?xml version="1.0" encoding="UTF-8" standalone="no"?>
<svg
   xmlns:dc="http://purl.org/dc/elements/1.1/"
   xmlns:cc="http://creativecommons.org/ns#"
   xmlns:rdf="http://www.w3.org/1999/02/22-rdf-syntax-ns#"
   xmlns:svg="http://www.w3.org/2000/svg"
   xmlns="http://www.w3.org/2000/svg"
   viewBox="0 0 342.88 75.58667"
   height="75.58667"
   width="342.88"
   xml:space="preserve"
   id="svg2"
   version="1.1"><metadata
     id="metadata8"><rdf:RDF><cc:Work
         rdf:about=""><dc:format>image/svg+xml</dc:format><dc:type
           rdf:resource="http://purl.org/dc/dcmitype/StillImage" /></cc:Work></rdf:RDF></metadata><defs
     id="defs6" /><g
     transform="matrix(1.3333333,0,0,-1.3333333,0,75.586667)"
     id="g10"><g
       transform="scale(0.1)"
       id="g12"><path
         id="path14"
         style="fill:#4692d5;fill-opacity:1;fill-rule:nonzero;stroke:none"
         d="m 265.957,566.922 c -92.812,0 -175.207,-44.567 -226.9843,-113.457 0.332,0.305 0.625,0.617 0.9609,0.922 90.2114,81.687 199.5974,98.734 297.6214,61.09 C 106.613,548.965 -9.25391,413.18 0.578125,275.398 18.0195,393.742 126.012,484.879 256.711,484.879 c 142.852,0 258.66,-108.852 258.66,-243.129 C 515.371,116.207 414.137,12.9141 284.223,0 c 148.211,9.42188 265.519,132.547 265.519,283.137 0,156.73 -127.054,283.785 -283.785,283.785" /><path
         id="path16"
         style="fill:#4692d5;fill-opacity:1;fill-rule:nonzero;stroke:none"
         d="m 76.1758,376.18 h 35.0702 v -19.348 h 0.426 c 5.312,14.031 17.641,21.473 33.16,21.473 2.762,0 5.738,-0.211 8.5,-0.852 v -32.945 c -4.672,1.277 -8.926,2.125 -13.812,2.125 -17.86,0 -27.207,-12.328 -27.207,-26.141 V 265.863 H 76.1758 V 376.18" /><path
         id="path18"
         style="fill:#4692d5;fill-opacity:1;fill-rule:nonzero;stroke:none"
         d="m 196.879,322.191 c 0,-19.347 5.527,-31.886 21.894,-31.886 16.153,0 21.68,16.793 21.68,31.886 0,14.028 -5.527,29.543 -21.465,29.543 -9.781,0 -22.109,-6.8 -22.109,-29.543 z M 162.02,376.18 h 34.433 v -12.754 h 0.426 c 7.016,10.414 17.644,15.941 30.394,15.941 34.649,0 49.317,-29.762 49.317,-60.793 0,-28.695 -15.309,-55.902 -46.555,-55.902 -13.601,0 -24.015,5.105 -31.453,15.094 h -0.426 V 228.879 H 162.02 V 376.18" /><path
         id="path20"
         style="fill:#4692d5;fill-opacity:1;fill-rule:nonzero;stroke:none"
         d="m 343.285,351.734 c -15.945,0 -21.043,-14.027 -21.043,-27.629 0,-12.968 5.953,-25.933 20.832,-25.933 15.301,0 21.891,11.902 21.891,25.719 0,14.027 -5.524,27.843 -21.68,27.843 z m 55.903,-72.484 c 0,-18.066 -3.403,-52.074 -55.055,-52.074 -25.719,0 -49.945,5.742 -54.199,35.281 h 36.132 c 0.852,-4.887 2.762,-7.859 6.168,-9.559 3.188,-1.703 7.653,-2.339 13.176,-2.339 17.219,0 18.918,12.113 18.918,25.718 v 10.414 h -0.426 c -6.589,-10.199 -17.64,-16.152 -29.336,-16.152 -33.367,0 -48.461,23.805 -48.461,54.84 0,29.332 17.219,53.988 48.461,53.988 13.18,0 23.172,-5.742 29.547,-17.008 h 0.426 v 13.821 h 34.649 v -96.93" /><path
         id="path22"
         style="fill:#4692d5;fill-opacity:1;fill-rule:nonzero;stroke:none"
         d="m 697.176,389.039 h 15.945 c 4.953,0 8.895,0.691 11.828,2.063 2.93,1.375 5.176,3.343 6.735,5.914 1.554,2.566 2.609,5.726 3.164,9.484 0.55,3.758 0.824,8.117 0.824,13.063 0,4.953 -0.274,9.3 -0.824,13.062 -0.555,3.754 -1.696,6.969 -3.438,9.621 -1.746,2.66 -4.172,4.633 -7.289,5.914 -3.117,1.285 -7.242,1.93 -12.375,1.93 h -14.57 z m -28.055,87.449 h 45.102 c 32.996,0 49.496,-19.16 49.496,-57.472 0,-11.371 -1.789,-21.133 -5.364,-29.286 -3.574,-8.16 -9.851,-14.714 -18.835,-19.664 l 30.25,-89.371 h -29.7 l -26.121,83.594 h -16.773 v -83.594 h -28.055 v 195.793" /><path
         id="path24"
         style="fill:#4692d5;fill-opacity:1;fill-rule:nonzero;stroke:none"
         d="m 863.266,383.543 h 13.468 c 5.68,0 10.086,0.824 13.2,2.477 3.117,1.644 5.406,3.89 6.875,6.73 1.464,2.844 2.339,6.281 2.613,10.313 0.277,4.035 0.414,8.527 0.414,13.476 0,4.582 -0.137,8.938 -0.414,13.063 -0.274,4.125 -1.098,7.699 -2.477,10.722 -1.371,3.028 -3.531,5.406 -6.461,7.149 -2.933,1.742 -7.148,2.617 -12.648,2.617 h -14.57 z m -28.055,92.945 h 42.078 c 7.699,0 14.477,-1.011 20.344,-3.027 5.863,-2.02 11.183,-5.594 15.953,-10.723 4.766,-5.133 8.062,-11.14 9.898,-18.015 1.832,-6.875 2.75,-16.18 2.75,-27.91 0,-8.618 -0.507,-15.997 -1.511,-22.133 -1.008,-6.149 -3.164,-11.875 -6.465,-17.188 -3.848,-6.422 -8.985,-11.41 -15.399,-14.988 -6.418,-3.574 -14.847,-5.363 -25.296,-5.363 h -14.297 v -76.446 h -28.055 v 195.793" /><path
         id="path26"
         style="fill:#4692d5;fill-opacity:1;fill-rule:nonzero;stroke:none"
         d="m 994.43,430.289 c 0,7.883 1.379,14.852 4.129,20.899 2.751,6.05 6.361,11.042 10.861,14.988 4.49,3.937 9.53,6.918 15.12,8.933 5.59,2.016 11.23,3.028 16.92,3.028 5.68,0 11.31,-1.012 16.91,-3.028 5.59,-2.015 10.63,-4.996 15.12,-8.933 4.49,-3.946 8.11,-8.938 10.86,-14.988 2.75,-6.047 4.13,-13.016 4.13,-20.899 v -9.902 h -28.05 v 9.902 c 0,6.777 -1.88,11.777 -5.64,14.988 -3.76,3.203 -8.21,4.813 -13.33,4.813 -5.14,0 -9.59,-1.61 -13.34,-4.813 -3.76,-3.211 -5.64,-8.211 -5.64,-14.988 V 326.891 c 0,-6.782 1.88,-11.782 5.64,-14.985 3.75,-3.207 8.2,-4.812 13.34,-4.812 5.12,0 9.57,1.605 13.33,4.812 3.76,3.203 5.64,8.203 5.64,14.985 v 36.851 h -22.27 v 24.746 h 50.32 v -61.597 c 0,-8.067 -1.38,-15.078 -4.13,-21.036 -2.75,-5.957 -6.37,-10.906 -10.86,-14.847 -4.49,-3.945 -9.53,-6.922 -15.12,-8.934 -5.6,-2.019 -11.23,-3.027 -16.91,-3.027 -5.69,0 -11.33,1.008 -16.92,3.027 -5.59,2.012 -10.63,4.989 -15.12,8.934 -4.5,3.941 -8.11,8.89 -10.861,14.847 -2.75,5.958 -4.129,12.969 -4.129,21.036 v 103.398" /><path
         id="path28"
         style="fill:#4692d5;fill-opacity:1;fill-rule:nonzero;stroke:none"
         d="m 1305.16,420.113 h -0.55 l -13.75,-70.945 h 28.05 z m -11.82,56.375 h 23.37 l 43.73,-195.793 h -28.05 l -8.25,42.075 h -38.22 l -8.26,-42.075 h -28.04 l 43.72,195.793" /><path
         id="path30"
         style="fill:#4692d5;fill-opacity:1;fill-rule:nonzero;stroke:none"
         d="m 1513.88,324.695 c 0,-6.422 -1.2,-12.375 -3.57,-17.875 -2.39,-5.5 -5.64,-10.312 -9.77,-14.441 -4.12,-4.121 -8.94,-7.375 -14.43,-9.762 -5.5,-2.375 -11.37,-3.57 -17.6,-3.57 -6.24,0 -12.1,1.195 -17.6,3.57 -5.5,2.387 -10.32,5.641 -14.44,9.762 -4.12,4.129 -7.38,8.941 -9.76,14.441 -2.39,5.5 -3.58,11.453 -3.58,17.875 v 151.793 h 28.05 V 327.445 c 0,-6.968 1.65,-12.101 4.95,-15.402 3.3,-3.301 7.43,-4.949 12.38,-4.949 4.94,0 9.07,1.648 12.37,4.949 3.3,3.301 4.95,8.434 4.95,15.402 v 149.043 h 28.05 V 324.695" /><path
         id="path32"
         style="fill:#4692d5;fill-opacity:1;fill-rule:nonzero;stroke:none"
         d="m 1679.97,420.113 h -28.05 v 6.325 c 0,6.417 -1.51,11.964 -4.54,16.636 -3.02,4.676 -8.11,7.016 -15.26,7.016 -3.85,0 -7.01,-0.738 -9.49,-2.203 -2.47,-1.469 -4.4,-3.348 -5.77,-5.641 -1.37,-2.289 -2.34,-4.945 -2.89,-7.973 -0.55,-3.019 -0.82,-6.183 -0.82,-9.488 0,-3.844 0.13,-7.101 0.41,-9.758 0.28,-2.66 0.96,-4.953 2.06,-6.875 1.1,-1.925 2.7,-3.625 4.81,-5.089 2.11,-1.469 5,-2.934 8.66,-4.399 l 21.45,-8.523 c 6.23,-2.383 11.28,-5.184 15.13,-8.387 3.85,-3.211 6.83,-6.973 8.94,-11.274 2.1,-4.312 3.52,-9.261 4.26,-14.851 0.73,-5.594 1.1,-11.961 1.1,-19.113 0,-8.246 -0.83,-15.903 -2.48,-22.957 -1.65,-7.063 -4.35,-13.114 -8.11,-18.153 -3.76,-5.043 -8.76,-9.031 -14.99,-11.961 -6.23,-2.929 -13.84,-4.398 -22.82,-4.398 -6.78,0 -13.11,1.195 -18.97,3.57 -5.87,2.387 -10.91,5.641 -15.13,9.762 -4.22,4.129 -7.56,9.031 -10.04,14.715 -2.47,5.683 -3.71,11.824 -3.71,18.426 v 10.449 h 28.05 v -8.797 c 0,-5.137 1.51,-9.766 4.54,-13.887 3.02,-4.129 8.11,-6.191 15.26,-6.191 4.77,0 8.48,0.687 11.14,2.062 2.65,1.375 4.67,3.301 6.05,5.778 1.37,2.472 2.24,5.543 2.61,9.211 0.37,3.664 0.55,7.699 0.55,12.097 0,5.133 -0.18,9.352 -0.55,12.653 -0.37,3.3 -1.15,5.953 -2.34,7.972 -1.19,2.016 -2.84,3.668 -4.95,4.953 -2.11,1.278 -4.9,2.649 -8.38,4.121 l -20.08,8.25 c -12.1,4.954 -20.21,11.504 -24.33,19.664 -4.13,8.153 -6.19,18.375 -6.19,30.661 0,7.328 1,14.3 3.02,20.894 2.02,6.606 4.99,12.281 8.94,17.055 3.94,4.765 8.94,8.562 14.99,11.41 6.05,2.84 13.1,4.262 21.17,4.262 6.96,0 13.34,-1.285 19.11,-3.852 5.78,-2.57 10.72,-5.957 14.85,-10.172 4.13,-4.218 7.29,-8.941 9.49,-14.164 2.2,-5.226 3.3,-10.586 3.3,-16.086 v -13.75" /><path
         id="path34"
         style="fill:#4692d5;fill-opacity:1;fill-rule:nonzero;stroke:none"
         d="m 1768.24,450.09 h -32.45 v 26.398 h 92.94 V 450.09 h -32.44 V 280.695 h -28.05 V 450.09" /><path
         id="path36"
         style="fill:#4692d5;fill-opacity:1;fill-rule:nonzero;stroke:none"
         d="m 1918.1,389.039 h 15.95 c 4.95,0 8.89,0.691 11.83,2.063 2.93,1.375 5.17,3.343 6.73,5.914 1.56,2.566 2.61,5.726 3.16,9.484 0.56,3.758 0.83,8.117 0.83,13.063 0,4.953 -0.27,9.3 -0.83,13.062 -0.55,3.754 -1.69,6.969 -3.43,9.621 -1.75,2.66 -4.17,4.633 -7.29,5.914 -3.12,1.285 -7.24,1.93 -12.38,1.93 h -14.57 z m -28.05,87.449 h 45.1 c 33,0 49.5,-19.16 49.5,-57.472 0,-11.371 -1.79,-21.133 -5.37,-29.286 -3.57,-8.16 -9.85,-14.714 -18.83,-19.664 l 30.25,-89.371 H 1961 l -26.12,83.594 h -16.78 v -83.594 h -28.05 v 195.793" /><path
         id="path38"
         style="fill:#4692d5;fill-opacity:1;fill-rule:nonzero;stroke:none"
         d="m 2099.04,420.113 h -0.55 l -13.75,-70.945 h 28.05 z m -11.83,56.375 h 23.38 l 43.72,-195.793 h -28.05 l -8.25,42.075 h -38.22 l -8.25,-42.075 h -28.05 l 43.72,195.793" /><path
         id="path40"
         style="fill:#4692d5;fill-opacity:1;fill-rule:nonzero;stroke:none"
         d="m 2217.01,476.488 h 28.05 V 308.742 h 55.55 v -28.047 h -83.6 v 195.793" /><path
         id="path42"
         style="fill:#4692d5;fill-opacity:1;fill-rule:nonzero;stroke:none"
         d="m 2368.53,476.488 h 28.05 V 280.695 h -28.05 v 195.793" /><path
         id="path44"
         style="fill:#4692d5;fill-opacity:1;fill-rule:nonzero;stroke:none"
         d="m 2515.65,420.113 h -0.55 l -13.75,-70.945 h 28.05 z m -11.83,56.375 h 23.37 l 43.73,-195.793 h -28.05 l -8.25,42.075 h -38.22 l -8.25,-42.075 h -28.05 l 43.72,195.793" /><path
         id="path46"
         style="fill:#4692d5;fill-opacity:1;fill-rule:nonzero;stroke:none"
         d="m 668.563,207.68 h 14.156 v -98.817 h -14.156 v 98.817" /><path
         id="path48"
         style="fill:#4692d5;fill-opacity:1;fill-rule:nonzero;stroke:none"
         d="m 720.602,207.68 h 13.601 l 21.371,-59.539 h 0.278 v 59.539 h 14.156 v -98.817 h -13.324 l -21.649,59.403 h -0.277 v -59.403 h -14.156 v 98.817" /><path
         id="path50"
         style="fill:#4692d5;fill-opacity:1;fill-rule:nonzero;stroke:none"
         d="m 816.773,194.352 h -16.375 v 13.328 h 46.911 V 194.352 H 830.93 v -85.489 h -14.157 v 85.489" /><path
         id="path52"
         style="fill:#4692d5;fill-opacity:1;fill-rule:nonzero;stroke:none"
         d="m 878.25,207.68 h 42.191 v -13.328 h -28.035 v -29.004 h 24.426 V 152.023 H 892.406 V 123.02 h 28.035 V 108.863 H 878.25 v 98.817" /><path
         id="path54"
         style="fill:#4692d5;fill-opacity:1;fill-rule:nonzero;stroke:none"
         d="m 953.473,184.363 c 0,3.973 0.695,7.496 2.082,10.547 1.386,3.051 3.211,5.57 5.484,7.563 2.266,1.988 4.809,3.492 7.629,4.511 2.824,1.016 5.664,1.524 8.535,1.524 2.867,0 5.715,-0.508 8.535,-1.524 2.825,-1.019 5.367,-2.523 7.633,-4.511 2.266,-1.993 4.098,-4.512 5.484,-7.563 1.385,-3.051 2.075,-6.574 2.075,-10.547 v -4.996 h -14.149 v 4.996 c 0,3.422 -0.949,5.942 -2.847,7.563 -1.895,1.617 -4.141,2.426 -6.731,2.426 -2.59,0 -4.832,-0.809 -6.73,-2.426 -1.895,-1.621 -2.844,-4.141 -2.844,-7.563 V 132.18 c 0,-3.422 0.949,-5.946 2.844,-7.563 1.898,-1.621 4.14,-2.426 6.73,-2.426 2.59,0 4.836,0.805 6.731,2.426 1.898,1.617 2.847,4.141 2.847,7.563 v 18.597 h -11.242 v 12.493 h 25.391 v -31.09 c 0,-4.071 -0.69,-7.614 -2.075,-10.614 -1.386,-3.007 -3.218,-5.507 -5.484,-7.496 -2.266,-1.992 -4.808,-3.496 -7.633,-4.511 -2.82,-1.016 -5.668,-1.528 -8.535,-1.528 -2.871,0 -5.711,0.512 -8.535,1.528 -2.82,1.015 -5.363,2.519 -7.629,4.511 -2.273,1.989 -4.098,4.489 -5.484,7.496 -1.387,3 -2.082,6.543 -2.082,10.614 v 52.183" /><path
         id="path56"
         style="fill:#4692d5;fill-opacity:1;fill-rule:nonzero;stroke:none"
         d="m 1052.28,163.543 h 8.05 c 2.5,0 4.49,0.348 5.97,1.043 1.48,0.695 2.61,1.687 3.4,2.984 0.79,1.293 1.32,2.891 1.6,4.785 0.27,1.895 0.41,4.098 0.41,6.594 0,2.5 -0.14,4.696 -0.41,6.59 -0.28,1.899 -0.86,3.516 -1.74,4.859 -0.88,1.344 -2.1,2.332 -3.67,2.985 -1.58,0.648 -3.66,0.969 -6.25,0.969 h -7.36 z m -14.15,44.137 h 22.76 c 16.65,0 24.98,-9.668 24.98,-29.012 0,-5.734 -0.9,-10.664 -2.71,-14.777 -1.8,-4.118 -4.97,-7.422 -9.51,-9.922 l 15.27,-45.106 h -14.99 l -13.18,42.188 h -8.47 v -42.188 h -14.15 v 98.817" /><path
         id="path58"
         style="fill:#4692d5;fill-opacity:1;fill-rule:nonzero;stroke:none"
         d="m 1143.6,179.227 h -0.28 l -6.94,-35.805 h 14.16 z m -5.97,28.453 h 11.8 l 22.07,-98.817 h -14.16 l -4.16,21.239 h -19.29 l -4.17,-21.239 h -14.15 l 22.06,98.817" /><path
         id="path60"
         style="fill:#4692d5;fill-opacity:1;fill-rule:nonzero;stroke:none"
         d="m 1204.81,194.352 h -16.38 v 13.328 h 46.91 v -13.328 h -16.38 v -85.489 h -14.15 v 85.489" /><path
         id="path62"
         style="fill:#4692d5;fill-opacity:1;fill-rule:nonzero;stroke:none"
         d="m 1266.28,207.68 h 42.19 v -13.328 h -28.03 v -29.004 h 24.43 v -13.325 h -24.43 V 123.02 h 28.03 v -14.157 h -42.19 v 98.817" /><path
         id="path64"
         style="fill:#4692d5;fill-opacity:1;fill-rule:nonzero;stroke:none"
         d="m 1356.49,122.191 h 6.52 c 3.98,0 6.8,0.989 8.47,2.981 1.66,1.988 2.5,5.109 2.5,9.367 v 47.602 c 0,3.886 -0.79,6.89 -2.37,9.019 -1.57,2.129 -4.43,3.192 -8.6,3.192 h -6.52 z m -14.16,85.489 h 20.96 c 8.05,0 14.2,-2.246 18.46,-6.735 4.25,-4.488 6.38,-10.754 6.38,-18.804 v -46.215 c 0,-9.254 -2.24,-16.074 -6.73,-20.469 -4.49,-4.394 -10.94,-6.594 -19.36,-6.594 h -19.71 v 98.817" /><path
         id="path66"
         style="fill:#4692d5;fill-opacity:1;fill-rule:nonzero;stroke:none"
         d="m 1522.47,179.227 h -14.16 v 3.191 c 0,3.238 -0.76,6.035 -2.29,8.395 -1.53,2.363 -4.09,3.539 -7.7,3.539 -1.95,0 -3.54,-0.372 -4.79,-1.11 -1.25,-0.738 -2.22,-1.687 -2.91,-2.844 -0.7,-1.156 -1.18,-2.496 -1.46,-4.023 -0.28,-1.527 -0.42,-3.125 -0.42,-4.789 0,-1.945 0.07,-3.586 0.21,-4.93 0.14,-1.34 0.49,-2.496 1.04,-3.465 0.56,-0.972 1.36,-1.832 2.43,-2.57 1.06,-0.742 2.52,-1.476 4.37,-2.219 l 10.82,-4.304 c 3.15,-1.2 5.7,-2.61 7.64,-4.231 1.94,-1.625 3.44,-3.515 4.51,-5.691 1.06,-2.176 1.78,-4.672 2.15,-7.492 0.37,-2.825 0.56,-6.036 0.56,-9.645 0,-4.168 -0.42,-8.027 -1.25,-11.594 -0.84,-3.558 -2.2,-6.609 -4.1,-9.152 -1.89,-2.551 -4.42,-4.563 -7.56,-6.043 -3.15,-1.477 -6.99,-2.219 -11.52,-2.219 -3.42,0 -6.62,0.606 -9.58,1.805 -2.95,1.199 -5.5,2.848 -7.63,4.926 -2.13,2.082 -3.82,4.558 -5.06,7.429 -1.25,2.864 -1.88,5.965 -1.88,9.297 v 5.274 h 14.16 v -4.446 c 0,-2.586 0.76,-4.925 2.29,-7.007 1.53,-2.079 4.09,-3.118 7.7,-3.118 2.41,0 4.28,0.344 5.62,1.039 1.34,0.692 2.36,1.665 3.06,2.915 0.69,1.246 1.13,2.793 1.31,4.648 0.19,1.852 0.28,3.887 0.28,6.105 0,2.59 -0.09,4.719 -0.28,6.387 -0.18,1.664 -0.58,3 -1.18,4.024 -0.6,1.015 -1.43,1.847 -2.49,2.5 -1.07,0.644 -2.48,1.336 -4.24,2.078 l -10.13,4.164 c -6.11,2.496 -10.2,5.801 -12.28,9.922 -2.08,4.117 -3.12,9.273 -3.12,15.476 0,3.699 0.51,7.215 1.53,10.543 1.01,3.332 2.52,6.199 4.5,8.606 1.99,2.406 4.51,4.328 7.57,5.761 3.05,1.43 6.61,2.149 10.68,2.149 3.52,0 6.73,-0.649 9.65,-1.942 2.91,-1.296 5.41,-3.007 7.49,-5.132 2.08,-2.129 3.68,-4.512 4.79,-7.149 1.11,-2.637 1.67,-5.344 1.67,-8.121 v -6.937" /><path
         id="path68"
         style="fill:#4692d5;fill-opacity:1;fill-rule:nonzero;stroke:none"
         d="m 1567.02,194.352 h -16.38 v 13.328 h 46.91 v -13.328 h -16.38 v -85.489 h -14.15 v 85.489" /><path
         id="path70"
         style="fill:#4692d5;fill-opacity:1;fill-rule:nonzero;stroke:none"
         d="m 1628.49,207.68 h 42.2 v -13.328 h -28.04 v -29.004 h 24.43 v -13.325 h -24.43 V 123.02 h 28.04 v -14.157 h -42.2 v 98.817" /><path
         id="path72"
         style="fill:#4692d5;fill-opacity:1;fill-rule:nonzero;stroke:none"
         d="m 1704.54,207.68 h 42.2 v -13.328 h -28.04 v -29.004 h 24.43 V 152.023 H 1718.7 V 123.02 h 28.04 v -14.157 h -42.2 v 98.817" /><path
         id="path74"
         style="fill:#4692d5;fill-opacity:1;fill-rule:nonzero;stroke:none"
         d="m 1780.6,207.68 h 14.15 v -84.66 h 28.04 v -14.157 h -42.19 v 98.817" /><path
         id="path76"
         style="fill:#4692d5;fill-opacity:1;fill-rule:nonzero;stroke:none"
         d="m 1952.96,179.227 h -14.15 v 3.191 c 0,3.238 -0.77,6.035 -2.29,8.395 -1.53,2.363 -4.1,3.539 -7.71,3.539 -1.94,0 -3.54,-0.372 -4.78,-1.11 -1.25,-0.738 -2.23,-1.687 -2.92,-2.844 -0.69,-1.156 -1.18,-2.496 -1.46,-4.023 -0.28,-1.527 -0.41,-3.125 -0.41,-4.789 0,-1.945 0.06,-3.586 0.21,-4.93 0.13,-1.34 0.48,-2.496 1.04,-3.465 0.55,-0.972 1.36,-1.832 2.42,-2.57 1.07,-0.742 2.52,-1.476 4.38,-2.219 l 10.82,-4.304 c 3.14,-1.2 5.69,-2.61 7.63,-4.231 1.95,-1.625 3.45,-3.515 4.51,-5.691 1.07,-2.176 1.78,-4.672 2.15,-7.492 0.37,-2.825 0.56,-6.036 0.56,-9.645 0,-4.168 -0.42,-8.027 -1.25,-11.594 -0.83,-3.558 -2.2,-6.609 -4.1,-9.152 -1.89,-2.551 -4.41,-4.563 -7.56,-6.043 -3.14,-1.477 -6.99,-2.219 -11.52,-2.219 -3.42,0 -6.61,0.606 -9.57,1.805 -2.96,1.199 -5.51,2.848 -7.63,4.926 -2.13,2.082 -3.82,4.558 -5.07,7.429 -1.25,2.864 -1.87,5.965 -1.87,9.297 v 5.274 h 14.15 v -4.446 c 0,-2.586 0.76,-4.925 2.29,-7.007 1.53,-2.079 4.09,-3.118 7.7,-3.118 2.41,0 4.28,0.344 5.62,1.039 1.35,0.692 2.37,1.665 3.06,2.915 0.69,1.246 1.13,2.793 1.32,4.648 0.18,1.852 0.28,3.887 0.28,6.105 0,2.59 -0.1,4.719 -0.28,6.387 -0.19,1.664 -0.58,3 -1.18,4.024 -0.6,1.015 -1.44,1.847 -2.5,2.5 -1.07,0.644 -2.48,1.336 -4.23,2.078 l -10.13,4.164 c -6.11,2.496 -10.2,5.801 -12.29,9.922 -2.08,4.117 -3.12,9.273 -3.12,15.476 0,3.699 0.51,7.215 1.53,10.543 1.01,3.332 2.52,6.199 4.51,8.606 1.99,2.406 4.51,4.328 7.56,5.761 3.06,1.43 6.62,2.149 10.69,2.149 3.51,0 6.73,-0.649 9.64,-1.942 2.92,-1.296 5.42,-3.007 7.5,-5.132 2.08,-2.129 3.67,-4.512 4.79,-7.149 1.1,-2.637 1.66,-5.344 1.66,-8.121 v -6.937" /><path
         id="path78"
         style="fill:#4692d5;fill-opacity:1;fill-rule:nonzero;stroke:none"
         d="m 2001.54,132.18 c 0,-3.422 0.94,-5.946 2.84,-7.563 1.9,-1.621 4.14,-2.426 6.73,-2.426 2.59,0 4.83,0.805 6.73,2.426 1.9,1.617 2.85,4.141 2.85,7.563 v 52.183 c 0,3.422 -0.95,5.942 -2.85,7.563 -1.9,1.617 -4.14,2.426 -6.73,2.426 -2.59,0 -4.83,-0.809 -6.73,-2.426 -1.9,-1.621 -2.84,-4.141 -2.84,-7.563 z m -14.16,52.183 c 0,3.973 0.69,7.496 2.08,10.547 1.39,3.051 3.21,5.57 5.48,7.563 2.27,1.988 4.81,3.492 7.64,4.511 2.82,1.016 5.66,1.524 8.53,1.524 2.87,0 5.71,-0.508 8.54,-1.524 2.82,-1.019 5.36,-2.523 7.63,-4.511 2.26,-1.993 4.09,-4.512 5.48,-7.563 1.39,-3.051 2.08,-6.574 2.08,-10.547 V 132.18 c 0,-4.071 -0.69,-7.614 -2.08,-10.614 -1.39,-3.007 -3.22,-5.507 -5.48,-7.496 -2.27,-1.992 -4.81,-3.496 -7.63,-4.511 -2.83,-1.016 -5.67,-1.528 -8.54,-1.528 -2.87,0 -5.71,0.512 -8.53,1.528 -2.83,1.015 -5.37,2.519 -7.64,4.511 -2.27,1.989 -4.09,4.489 -5.48,7.496 -1.39,3 -2.08,6.543 -2.08,10.614 v 52.183" /><path
         id="path80"
         style="fill:#4692d5;fill-opacity:1;fill-rule:nonzero;stroke:none"
         d="m 2072.03,207.68 h 14.16 v -84.66 h 28.04 v -14.157 h -42.2 v 98.817" /><path
         id="path82"
         style="fill:#4692d5;fill-opacity:1;fill-rule:nonzero;stroke:none"
         d="m 2193.88,131.07 c 0,-3.242 -0.6,-6.242 -1.8,-9.023 -1.2,-2.774 -2.84,-5.203 -4.93,-7.285 -2.08,-2.078 -4.51,-3.727 -7.28,-4.926 -2.78,-1.199 -5.74,-1.805 -8.89,-1.805 -3.14,0 -6.1,0.606 -8.88,1.805 -2.78,1.199 -5.2,2.848 -7.28,4.926 -2.09,2.082 -3.73,4.511 -4.93,7.285 -1.21,2.781 -1.81,5.781 -1.81,9.023 v 76.61 h 14.16 v -75.223 c 0,-3.519 0.83,-6.105 2.5,-7.773 1.66,-1.664 3.74,-2.493 6.24,-2.493 2.5,0 4.58,0.829 6.25,2.493 1.66,1.668 2.5,4.254 2.5,7.773 v 75.223 h 14.15 v -76.61" /><path
         id="path84"
         style="fill:#4692d5;fill-opacity:1;fill-rule:nonzero;stroke:none"
         d="m 2241.21,194.352 h -16.38 v 13.328 h 46.91 v -13.328 h -16.38 v -85.489 h -14.15 v 85.489" /><path
         id="path86"
         style="fill:#4692d5;fill-opacity:1;fill-rule:nonzero;stroke:none"
         d="m 2303.1,207.68 h 14.16 v -98.817 h -14.16 v 98.817" /><path
         id="path88"
         style="fill:#4692d5;fill-opacity:1;fill-rule:nonzero;stroke:none"
         d="m 2369.02,132.18 c 0,-3.422 0.95,-5.946 2.84,-7.563 1.9,-1.621 4.14,-2.426 6.74,-2.426 2.58,0 4.83,0.805 6.72,2.426 1.9,1.617 2.85,4.141 2.85,7.563 v 52.183 c 0,3.422 -0.95,5.942 -2.85,7.563 -1.89,1.617 -4.14,2.426 -6.72,2.426 -2.6,0 -4.84,-0.809 -6.74,-2.426 -1.89,-1.621 -2.84,-4.141 -2.84,-7.563 z m -14.15,52.183 c 0,3.973 0.69,7.496 2.08,10.547 1.38,3.051 3.21,5.57 5.48,7.563 2.26,1.988 4.81,3.492 7.63,4.511 2.82,1.016 5.66,1.524 8.54,1.524 2.86,0 5.71,-0.508 8.53,-1.524 2.82,-1.019 5.37,-2.523 7.63,-4.511 2.27,-1.993 4.1,-4.512 5.49,-7.563 1.38,-3.051 2.08,-6.574 2.08,-10.547 V 132.18 c 0,-4.071 -0.7,-7.614 -2.08,-10.614 -1.39,-3.007 -3.22,-5.507 -5.49,-7.496 -2.26,-1.992 -4.81,-3.496 -7.63,-4.511 -2.82,-1.016 -5.67,-1.528 -8.53,-1.528 -2.88,0 -5.72,0.512 -8.54,1.528 -2.82,1.015 -5.37,2.519 -7.63,4.511 -2.27,1.989 -4.1,4.489 -5.48,7.496 -1.39,3 -2.08,6.543 -2.08,10.614 v 52.183" /><path
         id="path90"
         style="fill:#4692d5;fill-opacity:1;fill-rule:nonzero;stroke:none"
         d="m 2438.97,207.68 h 13.6 l 21.37,-59.539 h 0.28 v 59.539 h 14.15 v -98.817 h -13.32 l -21.65,59.403 h -0.28 v -59.403 h -14.15 v 98.817" /><path
         id="path92"
         style="fill:#4692d5;fill-opacity:1;fill-rule:nonzero;stroke:none"
         d="m 2571.64,179.227 h -14.16 v 3.191 c 0,3.238 -0.76,6.035 -2.28,8.395 -1.55,2.363 -4.1,3.539 -7.72,3.539 -1.93,0 -3.53,-0.372 -4.78,-1.11 -1.25,-0.738 -2.23,-1.687 -2.91,-2.844 -0.7,-1.156 -1.18,-2.496 -1.47,-4.023 -0.27,-1.527 -0.41,-3.125 -0.41,-4.789 0,-1.945 0.07,-3.586 0.22,-4.93 0.13,-1.34 0.48,-2.496 1.03,-3.465 0.55,-0.972 1.37,-1.832 2.42,-2.57 1.08,-0.742 2.52,-1.476 4.38,-2.219 l 10.82,-4.304 c 3.14,-1.2 5.7,-2.61 7.64,-4.231 1.95,-1.625 3.45,-3.515 4.51,-5.691 1.07,-2.176 1.78,-4.672 2.15,-7.492 0.37,-2.825 0.56,-6.036 0.56,-9.645 0,-4.168 -0.43,-8.027 -1.25,-11.594 -0.84,-3.558 -2.2,-6.609 -4.1,-9.152 -1.89,-2.551 -4.41,-4.563 -7.56,-6.043 -3.14,-1.477 -6.99,-2.219 -11.52,-2.219 -3.42,0 -6.62,0.606 -9.57,1.805 -2.96,1.199 -5.51,2.848 -7.64,4.926 -2.13,2.082 -3.82,4.558 -5.06,7.429 -1.25,2.864 -1.88,5.965 -1.88,9.297 v 5.274 h 14.16 v -4.446 c 0,-2.586 0.76,-4.925 2.29,-7.007 1.53,-2.079 4.09,-3.118 7.7,-3.118 2.4,0 4.28,0.344 5.62,1.039 1.33,0.692 2.37,1.665 3.05,2.915 0.7,1.246 1.13,2.793 1.33,4.648 0.18,1.852 0.27,3.887 0.27,6.105 0,2.59 -0.09,4.719 -0.27,6.387 -0.2,1.664 -0.59,3 -1.19,4.024 -0.61,1.015 -1.43,1.847 -2.5,2.5 -1.06,0.644 -2.46,1.336 -4.22,2.078 l -10.14,4.164 c -6.11,2.496 -10.2,5.801 -12.28,9.922 -2.08,4.117 -3.12,9.273 -3.12,15.476 0,3.699 0.5,7.215 1.53,10.543 1.01,3.332 2.52,6.199 4.5,8.606 1.99,2.406 4.51,4.328 7.57,5.761 3.05,1.43 6.61,2.149 10.69,2.149 3.51,0 6.72,-0.649 9.65,-1.942 2.91,-1.296 5.41,-3.007 7.48,-5.132 2.09,-2.129 3.69,-4.512 4.78,-7.149 1.12,-2.637 1.68,-5.344 1.68,-8.121 v -6.937" /></g></g></svg>